<svg version="1.1" id="custom" xmlns="http://www.w3.org/2000/svg" xmlns:xlink="http://www.w3.org/1999/xlink">
<style type="text/css">
	.st0{fill:#F1F2F2;}
	.st1{fill:#BD993A;}
	.st2{fill:#FFCC4E;}
	.st3{fill:#2D4447;}
	.st4{fill:#BCBEC0;}
	.st5{fill:#808285;}
	.st6{fill:#84C98B;}
	.st7{fill:#619869;}
	.st8{fill:#04C1E9;}
	.st9{fill:#0592B1;}
</style>
<circle class="st0" cx="75" cy="75" r="75"/>
<g>
	<path class="st4" d="M113.4,57.1H36.6c-2.2,0-4-1.8-4-4s1.8-4,4-4h76.8c2.2,0,4,1.8,4,4S115.6,57.1,113.4,57.1z"/>
</g>
<g>
	<path class="st4" d="M113.4,79H36.6c-2.2,0-4-1.8-4-4s1.8-4,4-4h76.8c2.2,0,4,1.8,4,4S115.6,79,113.4,79z"/>
</g>
<g>
	<path class="st4" d="M113.4,100.9H36.6c-2.2,0-4-1.8-4-4s1.8-4,4-4h76.8c2.2,0,4,1.8,4,4S115.6,100.9,113.4,100.9z"/>
</g>
<g id="top-slider">
	<path class="st2" d="M50.8,60.4c-4,0-7.3-3.3-7.3-7.3s3.3-7.3,7.3-7.3V60.4z"/>
	<path class="st1" d="M50.8,45.8c4,0,7.3,3.3,7.3,7.3s-3.3,7.3-7.3,7.3V45.8z"/>
</g>
<g id="mid-slider">
	<path class="st6" d="M98.7,82.3c-4,0-7.3-3.3-7.3-7.3s3.3-7.3,7.3-7.3V82.3z"/>
	<path class="st7" d="M98.7,67.7c4,0,7.3,3.3,7.3,7.3s-3.3,7.3-7.3,7.3V67.7z"/>
</g>
<g id="bottom-slider">
	<path class="st8" d="M64.6,104.2c-4,0-7.3-3.3-7.3-7.3c0-4,3.3-7.3,7.3-7.3V104.2z"/>
	<path class="st9" d="M64.6,89.6c4,0,7.3,3.3,7.3,7.3c0,4-3.3,7.3-7.3,7.3V89.6z"/>
</g>
</svg>
