<?xml version="1.0" encoding="UTF-8"?>
<svg width="113px" height="95px" viewBox="0 0 113 95" version="1.1" xmlns="http://www.w3.org/2000/svg" xmlns:xlink="http://www.w3.org/1999/xlink">
    <!-- Generator: Sketch 49 (51002) - http://www.bohemiancoding.com/sketch -->
    <title>Page 1</title>
    <desc>Created with Sketch.</desc>
    <defs></defs>
    <g id="Page-1" stroke="none" stroke-width="1" fill="none" fill-rule="evenodd">
        <g id="icons-and-illustration" transform="translate(-760.000000, -745.000000)">
            <g id="Page-1" transform="translate(760.000000, 745.000000)">
                <path d="M55.720125,72.805875 C59.871625,79.028375 66.179625,82.752375 72.606375,82.752375 L78.819375,82.752375 L90.100625,94.028875 C90.556625,94.480125 91.164625,94.722375 91.782125,94.722375 C92.086125,94.722375 92.394875,94.660625 92.689375,94.541875 C93.577625,94.176125 94.157125,93.306875 94.157125,92.347375 L94.157125,81.469875 C104.179625,79.802625 112.259375,69.865625 112.259375,58.612875 C112.259375,45.797375 103.059269,36.3395815 91.359375,35.760625 C79.3530273,35.1665039 68.5799476,36.877367 62.9648437,40.8398438 C55.6440865,46.0059691 52.5883789,51.9707031 52.7905273,60.4614258 C52.2744782,61.8042041 53.2417519,64.2752941 53.3196275,65.5884615 C53.5457772,69.4018812 55.6187866,72.6535362 55.720125,72.805875 Z" id="Fill-3" fill="#2C3E50"></path>
                <path d="M91.359375,40.510625 C100.401669,40.9954539 107.509375,48.462125 107.509375,58.612875 C107.509375,68.065375 100.118375,76.639125 91.691875,76.957375 C90.414125,77.009625 89.407125,78.054625 89.407125,79.332375 L89.407125,86.614125 L81.484125,78.695875 C81.037625,78.249375 80.434375,78.002375 79.802625,78.002375 L72.606375,78.002375 C67.775625,78.002375 62.940125,75.071625 59.672125,70.169625 C59.35815,69.6996886 52.9020683,57.0032414 59.5009766,50.7939453 C68.1763966,42.6307386 81.4990234,39.9819336 91.359375,40.510625 Z" id="Fill-3-Copy" fill="#97B349"></path>
                <path d="M49.9437244,65.75 L29.7149636,86.1449636 C28.8879401,86.971987 27.7731054,87.429 26.6145,87.429 C26.0401862,87.429 25.4694968,87.3175372 24.9457504,87.0978562 C23.3072346,86.4231732 22.2395,84.8277646 22.2395,83.054 L22.2395,65.5757624 C8.74761374,61.5679104 0,49.025261 0,33.47825 C0,14.7728277 13.1171186,0 29.949,0 L56.47775,0 C73.6489967,0 87.06325,14.4891283 87.06325,32.875 C87.06325,51.2608717 73.6489967,65.75 56.47775,65.75 L49.9437244,65.75 Z" id="Path" fill="#2C3E50" fill-rule="nonzero"></path>
                <path d="M48.1225,59 C47.49075,59 46.88275,59.2565 46.43625,59.69825 L28.9895,77.29225 L28.9895,62.116 C28.9895,60.96175 28.15825,59.97375 27.01825,59.779 C14.70625,57.63675 6.75,47.315 6.75,33.47825 C6.75,18.492 16.9435,6.75 29.949,6.75 L56.47775,6.75 C69.84425,6.75 80.31325,18.226 80.31325,32.875 C80.31325,47.524 69.84425,59 56.47775,59 L48.1225,59 Z" id="Fill-1" fill="#BDDC66"></path>
                <path d="M63.898675,32.875 C63.898675,31.564 62.834675,30.5 61.523675,30.5 L24.283675,30.5 C22.972675,30.5 21.908675,31.564 21.908675,32.875 C21.908675,34.186 22.972675,35.25 24.283675,35.25 L61.523675,35.25 C62.834675,35.25 63.898675,34.186 63.898675,32.875" id="Fill-5" fill="#2C3E50"></path>
                <path d="M24.28415,25.75 L61.52415,25.75 C62.83515,25.75 63.89915,24.686 63.89915,23.375 C63.89915,22.064 62.83515,21 61.52415,21 L24.28415,21 C22.97315,21 21.90915,22.064 21.90915,23.375 C21.90915,24.686 22.97315,25.75 24.28415,25.75" id="Fill-7" fill="#2C3E50"></path>
                <path d="M42.903675,40 L24.283675,40 C22.972675,40 21.908675,41.064 21.908675,42.375 C21.908675,43.686 22.972675,44.75 24.283675,44.75 L42.903675,44.75 C44.214675,44.75 45.278675,43.686 45.278675,42.375 C45.278675,41.064 44.214675,40 42.903675,40" id="Fill-9" fill="#2C3E50"></path>
            </g>
        </g>
    </g>
</svg>