<?xml version="1.0" encoding="UTF-8"?>
<svg width="170px" height="407px" viewBox="0 0 170 407" version="1.1" xmlns="http://www.w3.org/2000/svg" xmlns:xlink="http://www.w3.org/1999/xlink">
    <!-- Generator: Sketch 49 (51002) - http://www.bohemiancoding.com/sketch -->
    <title>thumb - stroked - usds home wire blue copy 2</title>
    <desc>Created with Sketch.</desc>
    <defs>
        <path d="M37.3101971,65.338403 C37.3101971,69.6130085 37.3101971,75.2041547 37.3101971,76.6956433 C37.3101971,78.1871319 37.0706716,80.4273863 33.1755197,79.9244036 C30.5787518,79.5890817 26.3036458,78.9991945 20.3502017,78.1547418 C14.7539709,76.6572591 10.5791237,73.7299229 7.82565996,69.3727333 C3.69546437,62.8369488 0.961587616,47.3132768 0.961587616,37.6150321 C0.961587616,27.9167874 12.0151144,1.18891358 42.9880956,1.18891358 C73.9610767,1.18891358 84.1043072,26.0205077 84.1043072,39.2820036 C84.1043072,52.5434996 78.9682043,69.3727333 60.2578307,78.1547418 C52.8235782,81.2459171 51.9341968,79.9244036 50.8157474,79.9244036 C49.697298,79.9244036 48.4966829,79.2768569 48.4966829,77.3401989 C48.4966829,76.0490936 48.4966829,72.0640373 48.4966829,65.38503 C42.3350858,65.3539453 38.6062572,65.338403 37.3101971,65.338403 Z" id="path-1"></path>
    </defs>
    <g id="Page-1" stroke="none" stroke-width="1" fill="none" fill-rule="evenodd">
        <g id="icons-and-illustration" transform="translate(-904.000000, -1605.000000)">
            <g id="thumb-/-stoked---github-to-federalist" transform="translate(904.000000, 1604.000000)">
                <path d="M73.9411458,95.8146853 L97.4663479,95.8146853 C98.5709174,95.8146853 99.4663479,96.7101158 99.4663479,97.8146853 C99.4663479,98.2255983 99.3397789,98.6265385 99.1038554,98.962975 L87.4561235,115.573111 C86.8219406,116.477481 85.5746967,116.696512 84.6703263,116.062329 C84.4851372,115.932466 84.3233183,115.772131 84.1917555,115.588146 L72.3142854,98.9780103 C71.6717987,98.0795201 71.8793306,96.8303115 72.7778208,96.1878249 C73.1171857,95.945154 73.5239437,95.8146853 73.9411458,95.8146853 Z" id="Rectangle-3-Copy-64" fill="#BDDC66"></path>
                <path d="M73.9411458,224.520979 L97.4663479,224.520979 C98.5709174,224.520979 99.4663479,225.41641 99.4663479,226.520979 C99.4663479,226.931892 99.3397789,227.332832 99.1038554,227.669269 L87.4561235,244.279405 C86.8219406,245.183775 85.5746967,245.402805 84.6703263,244.768623 C84.4851372,244.63876 84.3233183,244.478425 84.1917555,244.29444 L72.3142854,227.684304 C71.6717987,226.785814 71.8793306,225.536605 72.7778208,224.894119 C73.1171857,224.651448 73.5239437,224.520979 73.9411458,224.520979 Z" id="Rectangle-3-Copy-65" fill="#BDDC66"></path>
                <g id="Group-2-Copy" stroke-width="1" transform="translate(42.857143, -2.860140)">
                    <mask id="mask-2" fill="white">
                        <use xlink:href="#path-1"></use>
                    </mask>
                    <g id="Path-11"></g>
                    <path d="M51.0011729,80.2021527 C49.6924483,80.3160586 49.2091889,79.8571332 48.0258292,78.3427644 C47.8303826,78.0926476 46.5684552,76.3957849 46.1662513,75.8869443 C44.7137624,74.0493558 43.5676228,73.1121035 42.956317,73.1129487 C42.3177576,73.1657435 41.223088,74.0959675 39.7740897,75.8997124 C39.5223535,76.2130791 38.1639533,77.974949 37.8081656,78.4007808 C36.6793438,79.7518339 36.0111652,80.3133214 34.7257989,80.2021625 C32.3386955,79.9957251 30.5429228,79.7012392 29.4148876,79.2844474 C14.3144269,73.7050572 4.07940225,59.2587969 4.07940225,42.8786541 C4.07940225,21.4527823 21.430303,4.08368135 42.8337237,4.08368135 C64.2371444,4.08368135 81.5880451,21.4527823 81.5880451,42.8786541 C81.5880451,59.2758067 71.3317933,73.7338363 56.208527,79.3006863 C55.0977022,79.7095791 53.3385178,79.9987201 51.0011729,80.2021527 Z M51.653054,76.3250487 C51.6823945,76.3566658 51.7081859,76.3830046 51.7303559,76.4040582 C51.72272,76.3968068 51.7149702,76.3896043 51.7070852,76.3824626 L51.653054,76.3250487 Z M54.8006441,75.467912 C68.3314273,70.4872526 77.5086428,57.5503183 77.5086428,42.8786541 C77.5086428,23.7081372 61.9841527,8.16736269 42.8337237,8.16736269 C23.6832946,8.16736269 8.15880451,23.7081372 8.15880451,42.8786541 C8.15880451,57.5351099 17.3170167,70.4614997 30.8274383,75.4533946 C31.4420896,75.6804989 32.7111926,75.9024301 34.4256223,76.0731498 C34.4997008,75.9915302 34.5844532,75.8939747 34.6789894,75.7808271 C34.9726657,75.4293347 36.2971604,73.711441 36.5950891,73.3405728 C38.747818,70.6608085 40.4354149,69.2267292 42.5818848,69.0451685 C42.7047053,69.0347796 42.8276756,69.0294414 42.9506825,69.0292713 C45.2875473,69.0260402 47.1471756,70.5467458 49.3653207,73.3529895 C49.815084,73.9219989 51.0861116,75.6310982 51.2389526,75.8266919 C51.3065752,75.9132299 51.3686955,75.9910192 51.4251578,76.0600451 C53.0285533,75.8944574 54.2153838,75.6833454 54.8006441,75.467912 Z" id="Oval-3" fill="#2C3E50" fill-rule="nonzero" mask="url(#mask-2)"></path>
                    <path d="M33.3121575,64.0087747 C28.9811241,64.8611446 26.1485202,63.8910236 23.8478905,61.3482351 C21.5472609,58.8054466 18.9456737,57.2948371 17.4472442,57.3171144 C15.9488148,57.3393916 14.8869857,58.2601845 17.4891027,59.2303055 C19.3775053,60.5632274 20.9013678,61.9826062 22.1205638,64.0087747 C23.3927452,66.6693144 26.6696985,70.1302437 33.3121575,69.2959078 C34.3741429,68.5816197 34.0330308,64.0087747 33.3121575,64.0087747 Z" id="tail-fill" fill="#2C3E50" mask="url(#mask-2)"></path>
                    <path d="M52.9302917,63.7852142 L52.9302917,76.6755511 C52.9302917,77.9323421 51.9257697,78.9511727 50.6866291,78.9511727 C49.4474886,78.9511727 48.4429665,77.9323421 48.4429665,76.6755511 L48.449877,63.6067474 C48.5696121,62.0630331 48.0293561,60.5415932 46.966663,59.4298001 C45.668649,58.0718138 46.4756991,55.7937511 48.3290358,55.5842264 C56.7850362,54.6282528 60.7831108,51.2185359 60.7831108,41.916909 C60.782641,39.3237846 59.7991793,36.8301094 58.0362739,34.9520009 C57.4442315,34.3212694 57.2590171,33.4031521 57.5592284,32.5872595 C58.2041726,30.8344763 58.3066875,28.936668 57.8726185,27.142163 C57.7150934,27.1782691 57.5423271,27.2231317 57.3539324,27.2781377 C55.9081808,27.7002564 54.1064154,28.5862884 51.9359115,30.0619661 C51.3963932,30.4287727 50.7266244,30.5404461 50.0997218,30.368122 C45.3416065,29.0602031 40.3260136,29.0602031 35.5678982,30.368122 C34.9409955,30.5404461 34.2712269,30.4287727 33.7317086,30.0619661 C31.5612047,28.5862884 29.7594393,27.7002564 28.3136877,27.2781377 C28.1252929,27.2231317 27.9525265,27.1782691 27.7950016,27.142163 C27.3609325,28.936668 27.4634476,30.8344763 28.1083917,32.5872595 C28.4086087,33.4031678 28.2233811,34.3213032 27.6313144,34.9520347 C25.8552593,36.8440746 24.8707848,39.3602883 24.8845092,41.9847593 C24.8845092,51.1992013 28.8525482,54.5833027 37.3665803,55.6558409 C39.2033434,55.8872234 39.9894743,58.1476293 38.7023388,59.4966219 C37.6524435,60.5969732 37.1132033,62.0980972 37.2246535,63.7852142 L37.2246535,76.6755511 C37.2246535,77.9323421 36.2201315,78.9511727 34.9809909,78.9511727 C33.7418503,78.9511727 32.7373283,77.9323421 32.7373283,76.6755511 L32.7428571,63.94487 C32.6384329,62.4389995 32.8740803,60.9470116 33.4118913,59.5744333 C25.0186505,57.6209025 20.3971876,52.490267 20.3972157,41.9968566 C20.3797761,38.6696289 21.4786724,35.449945 23.4910251,32.8563438 C22.7245456,29.8953967 22.9468233,26.7451321 24.1460473,23.9073376 C24.4088223,23.2855177 24.9307606,22.8145224 25.5702511,22.6221412 C25.6987534,22.5834832 25.8554713,22.5485029 26.0401673,22.5213111 C28.148842,22.2108627 31.2400679,23.0552123 35.3826808,25.7205432 C40.2819043,24.5410718 45.3857157,24.5410718 50.2849393,25.7205432 C54.4275522,23.0552123 57.5187781,22.2108627 59.6274527,22.5213111 C59.8121488,22.5485029 59.9688666,22.5834832 60.0973688,22.6221412 C60.7368595,22.8145224 61.2587978,23.2855177 61.5215727,23.9073376 C62.7208009,26.7451421 62.9430761,29.8954187 62.1765869,32.8563749 C64.172128,35.4284186 65.2698381,38.6167963 65.270436,41.9164907 C65.270436,52.4802622 60.6256804,57.6600612 52.2782854,59.5370606 C52.8144974,60.902018 53.0442873,62.3631339 52.9302917,63.7852142 Z" id="Shape" fill="#2C3E50" fill-rule="nonzero" mask="url(#mask-2)"></path>
                </g>
                <g id="Group-2" stroke-width="1" transform="translate(47.142857, 131.566434)" fill="#2C3E50">
                    <path d="M25.027932,36.4249726 L53.7495849,7.78662442 C58.0705416,3.47820036 64.6790635,3.47820036 69.0000201,7.78662442 C71.0334115,9.81411809 72.0501072,12.6019219 72.0501072,15.3897257 C72.0501072,18.1775295 71.0334115,20.9653333 69.0000201,22.992827 L56.0371502,35.9180992 L44.090976,35.6646624 L54.2579328,25.5271941 C55.0204545,24.7668839 55.0204545,23.2462637 54.2579328,22.4859536 C53.495411,21.7256434 51.9703675,21.7256434 51.2078457,22.4859536 L29.6030625,44.0280739 L25.027932,48.5899346 L25.027932,36.4249726 Z M39.4991165,40.2385396 L51.5727083,40.4757952 L47.7194343,44.0346283 L35.6458425,43.5601172 L39.4991165,40.2385396 Z M40.3920974,51.6268055 L28.0616207,51.6268055 L31.9148947,47.8307169 L43.9884865,48.0837895 L40.3920974,51.6268055 Z M41.0747813,55.994362 C41.585027,55.994362 42.3503956,55.7389715 42.6055185,55.483581 L50.5143273,47.5664763 L58.4231361,39.6493715 L72.1997708,25.8582857 C78.0675967,19.9843048 78.0675967,10.2794667 72.1997708,4.40548572 C66.3319449,-1.46849524 56.6372761,-1.46849524 50.7694502,4.40548572 L21.1751978,34.030781 C20.6649521,34.541562 20.4098292,35.0523429 20.6649521,35.5631239 L20.9200749,52.6742858 L12.7561433,60.846781 C7.39856309,54.7174096 4.33708871,46.8003048 4.33708871,38.6278096 C4.33708871,29.6891429 7.90880882,21.2612572 14.2868804,14.8764953 C20.4098292,8.49173334 28.8288838,5.17165715 38.0133069,5.17165715 C39.2889212,5.17165715 40.0542898,4.15009524 40.0542898,3.12853334 C40.0542898,2.10697143 39.0337984,1.08540953 38.0133069,1.08540953 C27.8083923,1.08540953 18.3688463,4.91626667 11.2254061,12.3225905 C3.82684298,18.9627429 0,28.667581 0,38.6278096 C0,48.8434286 3.82684298,58.2928763 11.2254061,65.4438096 C18.3688463,72.594743 27.8083923,76.6809906 38.0133069,76.6809906 C48.2182215,76.6809906 57.6577675,72.8501334 64.8012077,65.4438096 C71.944648,58.2928763 76.0266138,48.8434286 76.0266138,38.6278096 C76.0266138,37.3508572 75.0061223,36.5846858 73.9856309,36.5846858 C72.7100166,36.5846858 71.944648,37.6062477 71.944648,38.6278096 C71.944648,47.5664763 68.3729279,55.994362 61.9948562,62.3791239 C55.6167846,68.7638858 47.19773,72.3393525 38.2684298,72.3393525 C30.1044981,72.3393525 22.1956893,69.2746668 16.0727405,63.9114668 L24.2366722,55.7389715 L41.0747813,55.994362 Z" id="Fill-1"></path>
                </g>
                <g id="globe-on-the-web" transform="translate(0.000000, 261.702797)" stroke-width="1">
                    <g id="Group-3-Copy">
                        <g id="Group-Copy" transform="translate(5.730337, 22.909091)" fill="#98B24D">
                            <rect id="Rectangle-3-Copy-6" x="0" y="0" width="158.539326" height="118.363636"></rect>
                        </g>
                        <path d="M21.011236,10.5 C15.2091434,10.5 10.505618,15.2010101 10.505618,21 L10.505618,126 C10.505618,131.79899 15.2091434,136.5 21.011236,136.5 L148.988764,136.5 C154.790857,136.5 159.494382,131.79899 159.494382,126 L159.494382,21 C159.494382,15.2010101 154.790857,10.5 148.988764,10.5 L21.011236,10.5 Z M21.011236,0.954545455 L148.988764,0.954545455 C160.065486,0.954545455 169.044944,9.92920115 169.044944,21 L169.044944,126 C169.044944,137.070799 160.065486,146.045455 148.988764,146.045455 L21.011236,146.045455 C9.93451373,146.045455 0.95505618,137.070799 0.95505618,126 L0.95505618,21 C0.95505618,9.92920115 9.93451373,0.954545455 21.011236,0.954545455 Z" id="Rectangle-Copy-2" fill="#2C3E50" fill-rule="nonzero"></path>
                        <path d="M148.335951,28.2121212 C154.448748,28.2121212 159.404846,33.5308485 159.404846,40.0909091 C162.090319,32.6704989 163.433056,26.953014 163.433056,22.9384544 C163.433056,19.7168635 162.090319,14.5801225 159.404846,7.52823153 L10.4095528,7.52823153 C8.81219642,13.6155303 8.01351826,18.1614287 8.01351826,21.1659268 C8.01351826,25.3975793 8.81219642,31.7059067 10.4095528,40.0909091 C10.4095528,33.5308485 15.3656501,28.2121212 21.4784469,28.2121212 L148.335951,28.2121212 Z" id="Page-1" fill="#2C3E50"></path>
                        <g id="globe-copy" transform="translate(42.022472, 40.090909)" fill="#FFFFFF" fill-rule="nonzero">
                            <g id="globe-#infinity">
                                <path d="M80.2183319,42.5505935 C80.2183319,21.7479585 63.3542642,4.88285499 42.5505935,4.88285499 C21.7469227,4.88285499 4.88285499,21.7479585 4.88285499,42.5505935 C4.88285499,63.3532285 21.7469227,80.2183319 42.5505935,80.2183319 C63.3542642,80.2183319 80.2183319,63.3532285 80.2183319,42.5505935 Z M84.4036362,42.5505935 C84.4036362,65.6646507 65.6658015,84.4036362 42.5505935,84.4036362 C19.4353854,84.4036362 0.697550713,65.6646507 0.697550713,42.5505935 C0.697550713,19.4365363 19.4353854,0.697550713 42.5505935,0.697550713 C65.6658015,0.697550713 84.4036362,19.4365363 84.4036362,42.5505935 Z" id="Stroke-1"></path>
                                <path d="M42.0059306,4.88285499 C40.8501907,4.88285499 39.9132784,3.94594271 39.9132784,2.79020285 C39.9132784,1.63446299 40.8501907,0.697550713 42.0059306,0.697550713 C54.3905486,0.697550713 63.7064466,19.5863211 63.7064466,42.5505935 C63.7064466,65.5148658 54.3905486,84.4036362 42.0059306,84.4036362 C40.8501907,84.4036362 39.9132784,83.4667239 39.9132784,82.3109841 C39.9132784,81.1552442 40.8501907,80.2183319 42.0059306,80.2183319 C51.2741123,80.2183319 59.5211423,63.4967817 59.5211423,42.5505935 C59.5211423,21.6044052 51.2741123,4.88285499 42.0059306,4.88285499 Z" id="Stroke-3"></path>
                                <path d="M42.0059306,0.697550713 C43.1616704,0.697550713 44.0985827,1.63446299 44.0985827,2.79020285 C44.0985827,3.94594271 43.1616704,4.88285499 42.0059306,4.88285499 C32.7355396,4.88285499 24.4907189,21.601979 24.4907189,42.5505935 C24.4907189,63.499208 32.7355396,80.2183319 42.0059306,80.2183319 C43.1616704,80.2183319 44.0985827,81.1552442 44.0985827,82.3109841 C44.0985827,83.4667239 43.1616704,84.4036362 42.0059306,84.4036362 C29.618957,84.4036362 20.3054146,65.5173225 20.3054146,42.5505935 C20.3054146,19.5838645 29.618957,0.697550713 42.0059306,0.697550713 Z" id="Stroke-5"></path>
                                <path d="M39.9132784,4.6057729 C39.9132784,3.50279891 40.8501907,2.60866182 42.0059306,2.60866182 C43.1616704,2.60866182 44.0985827,3.50279891 44.0985827,4.6057729 L44.0985827,80.4959937 C44.0985827,81.5989677 43.1616704,82.4931048 42.0059306,82.4931048 C40.8501907,82.4931048 39.9132784,81.5989677 39.9132784,80.4959937 L39.9132784,4.6057729 Z" id="Stroke-7"></path>
                                <path d="M80.9386868,42.09193 C82.0944267,42.09193 83.031339,43.0288423 83.031339,44.1845821 C83.031339,45.340322 82.0944267,46.2772343 80.9386868,46.2772343 L5.5804057,46.2772343 C4.42466584,46.2772343 3.48775356,45.340322 3.48775356,44.1845821 C3.48775356,43.0288423 4.42466584,42.09193 5.5804057,42.09193 L80.9386868,42.09193 Z" id="Stroke-9"></path>
                                <path d="M76.7328408,23.5733919 C77.8885806,23.5733919 78.8254929,24.5103042 78.8254929,25.666044 C78.8254929,26.8217839 77.8885806,27.7586962 76.7328408,27.7586962 L8.84838301,27.7586962 C7.69264315,27.7586962 6.75573087,26.8217839 6.75573087,25.666044 C6.75573087,24.5103042 7.69264315,23.5733919 8.84838301,23.5733919 L76.7328408,23.5733919 Z" id="Stroke-11"></path>
                                <path d="M75.3458665,59.5211423 C76.5016064,59.5211423 77.4385187,60.4580546 77.4385187,61.6137944 C77.4385187,62.7695343 76.5016064,63.7064466 75.3458665,63.7064466 L9.93770878,63.7064466 C8.78196892,63.7064466 7.84505664,62.7695343 7.84505664,61.6137944 C7.84505664,60.4580546 8.78196892,59.5211423 9.93770878,59.5211423 L75.3458665,59.5211423 Z" id="Stroke-13"></path>
                            </g>
                        </g>
                        <ellipse id="Oval-2" fill="#BDDC66" cx="18.1460674" cy="14.3181818" rx="4.7752809" ry="4.77272727"></ellipse>
                        <ellipse id="Oval-2-Copy" fill="#DCB566" cx="31.5168539" cy="14.3181818" rx="4.7752809" ry="4.77272727"></ellipse>
                        <ellipse id="Oval-2-Copy-2" fill="#D14636" cx="44.8876404" cy="14.3181818" rx="4.7752809" ry="4.77272727"></ellipse>
                    </g>
                </g>
            </g>
        </g>
    </g>
</svg>