<?xml version="1.0" encoding="UTF-8"?>
<svg width="24px" height="24px" viewBox="0 0 24 24" version="1.1" xmlns="http://www.w3.org/2000/svg" xmlns:xlink="http://www.w3.org/1999/xlink">
    <!-- Generator: Sketch 48.2 (47327) - http://www.bohemiancoding.com/sketch -->
    <title>icon-gear</title>
    <desc>Created with Sketch.</desc>
    <defs></defs>
    <g id="Artboard-4" stroke="none" stroke-width="1" fill="none" fill-rule="evenodd" transform="translate(-482.000000, -124.000000)">
        <g id="icon-gear" transform="translate(483.000000, 125.000000)" fill="#000000" fill-rule="nonzero">
            <path d="M11,15 C8.790861,15 7,13.209139 7,11 C7,8.790861 8.790861,7 11,7 C13.209139,7 15,8.790861 15,11 C15,13.209139 13.209139,15 11,15 Z M11,13 C12.1045695,13 13,12.1045695 13,11 C13,9.8954305 12.1045695,9 11,9 C9.8954305,9 9,9.8954305 9,11 C9,12.1045695 9.8954305,13 11,13 Z" id="Oval"></path>
            <path d="M19.91,12 L20,12 C20.5522847,12 21,11.5522847 21,11 C21,10.4477153 20.5522847,10 20,10 L19.8260117,9.99999205 C18.7697973,9.9957795 17.8169395,9.36474787 17.4008602,8.39393144 C17.3646445,8.30943133 17.3403365,8.22053528 17.3284579,8.12978593 C16.997162,7.1847178 17.2270428,6.12462982 17.9428932,5.39289322 L18.0032867,5.3325 C18.1910637,5.14493174 18.2965733,4.89040925 18.2965733,4.625 C18.2965733,4.35959075 18.1910637,4.10506826 18.0025,3.91671334 C17.8149317,3.7289363 17.5604092,3.62342669 17.295,3.62342669 C17.0295908,3.62342669 16.7750683,3.7289363 16.5871068,3.91710678 L16.519265,3.98486258 C15.7448438,4.74238657 14.5873187,4.9522675 13.6060686,4.51913983 C12.6352521,4.10306046 12.0042205,3.1502027 12,2.09 L12,2 C12,1.44771525 11.5522847,1 11,1 C10.4477153,1 10,1.44771525 10,2 L9.99999205,2.17398831 C9.9957795,3.2302027 9.36474787,4.18306046 8.39393144,4.59913983 C8.30943133,4.63535548 8.22053528,4.65966354 8.12978593,4.67154209 C7.1847178,5.00283804 6.12462982,4.77295717 5.39289322,4.05710678 L5.3325,3.99671334 C5.14493174,3.8089363 4.89040925,3.70342669 4.625,3.70342669 C4.35959075,3.70342669 4.10506826,3.8089363 3.91671334,3.9975 C3.7289363,4.18506826 3.62342669,4.43959075 3.62342669,4.705 C3.62342669,4.97040925 3.7289363,5.22493174 3.91710678,5.41289322 L3.98486258,5.48073504 C4.74238657,6.25515616 4.9522675,7.41268129 4.5385361,8.34518109 C4.16293446,9.36642969 3.2012163,10.0542811 2.09,10.08 L2,10.08 C1.44771525,10.08 1,10.5277153 1,11.08 C1,11.6322847 1.44771525,12.08 2,12.08 L2.17398831,12.080008 C3.2302027,12.0842205 4.18306046,12.7152521 4.59486258,13.6762347 C5.0322675,14.6673187 4.82238657,15.8248438 4.05710678,16.6071068 L3.99671334,16.6675 C3.8089363,16.8550683 3.70342669,17.1095908 3.70342669,17.375 C3.70342669,17.6404092 3.8089363,17.8949317 3.9975,18.0832867 C4.18506826,18.2710637 4.43959075,18.3765733 4.705,18.3765733 C4.97040925,18.3765733 5.22493174,18.2710637 5.41289322,18.0828932 L5.48073504,18.0151374 C6.25515616,17.2576134 7.41268129,17.0477325 8.34518109,17.4614639 C9.36642969,17.8370655 10.0542811,18.7987837 10.08,19.91 L10.08,20 C10.08,20.5522847 10.5277153,21 11.08,21 C11.6322847,21 12.08,20.5522847 12.08,20 L12.080008,19.8260117 C12.0842205,18.7697973 12.7152521,17.8169395 13.6762347,17.4051374 C14.6673187,16.9677325 15.8248438,17.1776134 16.6071068,17.9428932 L16.6675,18.0032867 C16.8550683,18.1910637 17.1095908,18.2965733 17.375,18.2965733 C17.6404092,18.2965733 17.8949317,18.1910637 18.0832867,18.0025 C18.2710637,17.8149317 18.3765733,17.5604092 18.3765733,17.295 C18.3765733,17.0295908 18.2710637,16.7750683 18.0828932,16.5871068 L18.0151374,16.519265 C17.2588636,15.7461219 17.0484268,14.5911384 17.482977,13.6011431 C17.9001657,12.6331176 18.8515919,12.0042134 19.91,12 Z M17.4851374,13.5962347 L17.4808602,13.6060686 C17.4815645,13.6044252 17.4822703,13.6027829 17.4829777,13.6011415 C17.4836954,13.5995065 17.4844155,13.5978703 17.4851374,13.5962347 Z M19.2987985,7.71517468 C19.4176633,7.89040605 19.6163373,7.99914118 19.83,8 L20,8 C21.6568542,8 23,9.34314575 23,11 C23,12.6568542 21.6568542,14 20,14 L19.9139883,13.999992 C19.6549169,14.0010253 19.421197,14.1558067 19.3191398,14.3939314 C19.2075746,14.6468614 19.2590548,14.9307827 19.4371068,15.1128932 L19.4967133,15.1725 C20.0600445,15.7352048 20.3765733,16.4987723 20.3765733,17.295 C20.3765733,18.0912277 20.0600445,18.8547952 19.4975,19.4167133 C18.9347952,19.9800445 18.1712277,20.2965733 17.375,20.2965733 C16.5787723,20.2965733 15.8152048,19.9800445 15.2528932,19.4171068 L15.200735,19.3648626 C15.0107827,19.1790548 14.7268614,19.1275746 14.4739314,19.2391398 C14.2358067,19.341197 14.0810253,19.5749169 14.08,19.83 L14.08,20 C14.08,21.6568542 12.7368542,23 11.08,23 C9.42314575,23 8.08,21.6568542 8.08,20 C8.07403212,19.6665579 7.90531385,19.4306648 7.59623466,19.3148626 C7.35313857,19.2075746 7.06921731,19.2590548 6.88710678,19.4371068 L6.8275,19.4967133 C6.26479523,20.0600445 5.50122774,20.3765733 4.705,20.3765733 C3.90877226,20.3765733 3.14520477,20.0600445 2.58328666,19.4975 C2.01995553,18.9347952 1.70342669,18.1712277 1.70342669,17.375 C1.70342669,16.5787723 2.01995553,15.8152048 2.58289322,15.2528932 L2.63513742,15.200735 C2.82094519,15.0107827 2.87242541,14.7268614 2.76086017,14.4739314 C2.65880297,14.2358067 2.42508314,14.0810253 2.17,14.08 L2,14.08 C0.343145751,14.08 -1,12.7368542 -1,11.08 C-1,9.42314575 0.343145751,8.08 2,8.08 C2.33344206,8.07403212 2.56933519,7.90531385 2.68513742,7.59623466 C2.79242541,7.35313857 2.74094519,7.06921731 2.56289322,6.88710678 L2.50328666,6.8275 C1.93995553,6.26479523 1.62342669,5.50122774 1.62342669,4.705 C1.62342669,3.90877226 1.93995553,3.14520477 2.5025,2.58328666 C3.06520477,2.01995553 3.82877226,1.70342669 4.625,1.70342669 C5.42122774,1.70342669 6.18479523,2.01995553 6.74710678,2.58289322 L6.79926496,2.63513742 C6.98921731,2.82094519 7.27313857,2.87242541 7.51623466,2.76513742 C7.58030647,2.73685997 7.64699387,2.71546911 7.71517468,2.70120146 C7.89040605,2.58233675 7.99914118,2.3836627 8,2.17 L8,2 C8,0.343145751 9.34314575,-1 11,-1 C12.6568542,-1 14,0.343145751 14,2 L13.999992,2.08601169 C14.0010253,2.34508314 14.1558067,2.57880297 14.4037653,2.68513742 C14.6468614,2.79242541 14.9307827,2.74094519 15.1128932,2.56289322 L15.1725,2.50328666 C15.7352048,1.93995553 16.4987723,1.62342669 17.295,1.62342669 C18.0912277,1.62342669 18.8547952,1.93995553 19.4167133,2.5025 C19.9800445,3.06520477 20.2965733,3.82877226 20.2965733,4.625 C20.2965733,5.42122774 19.9800445,6.18479523 19.4171068,6.74710678 L19.3648626,6.79926496 C19.1790548,6.98921731 19.1275746,7.27313857 19.2348626,7.51623466 C19.26314,7.58030647 19.2845309,7.64699387 19.2987985,7.71517468 Z" id="Shape"></path>
        </g>
    </g>
</svg>