<?xml version="1.0" encoding="UTF-8"?>
<svg width="20px" height="22px" viewBox="0 0 20 22" version="1.1" xmlns="http://www.w3.org/2000/svg" xmlns:xlink="http://www.w3.org/1999/xlink">
    <!-- Generator: Sketch 48.2 (47327) - http://www.bohemiancoding.com/sketch -->
    <title>icon-lock</title>
    <desc>Created with Sketch.</desc>
    <defs></defs>
    <g id="Artboard-5-Copy" stroke="none" stroke-width="1" fill="none" fill-rule="evenodd" transform="translate(-68.000000, -43.000000)">
        <g id="icon-lock" transform="translate(68.000000, 43.000000)" fill="#0071BC" fill-rule="nonzero">
            <path d="M3,11 C2.44771525,11 2,11.4477153 2,12 L2,19 C2,19.5522847 2.44771525,20 3,20 L17,20 C17.5522847,20 18,19.5522847 18,19 L18,12 C18,11.4477153 17.5522847,11 17,11 L3,11 Z M3,9 L17,9 C18.6568542,9 20,10.3431458 20,12 L20,19 C20,20.6568542 18.6568542,22 17,22 L3,22 C1.34314575,22 2.22044605e-16,20.6568542 0,19 L0,12 C-2.22044605e-16,10.3431458 1.34314575,9 3,9 Z" id="Rectangle-path"></path>
            <path d="M6,10 C6,10.5522847 5.55228475,11 5,11 C4.44771525,11 4,10.5522847 4,10 L4,6 C4,2.6862915 6.6862915,1.44328993e-15 10,8.8817842e-16 C13.3137085,-2.22044605e-16 16,2.6862915 16,6 L16,10 C16,10.5522847 15.5522847,11 15,11 C14.4477153,11 14,10.5522847 14,10 L14,6 C14,3.790861 12.209139,2 10,2 C7.790861,2 6,3.790861 6,6 L6,10 Z" id="Shape"></path>
        </g>
    </g>
</svg>