<?xml version="1.0" encoding="UTF-8"?>
<svg width="24px" height="20px" viewBox="0 0 24 20" version="1.1" xmlns="http://www.w3.org/2000/svg" xmlns:xlink="http://www.w3.org/1999/xlink">
    <!-- Generator: Sketch 48.2 (47327) - http://www.bohemiancoding.com/sketch -->
    <title>icon-cloud_arrow</title>
    <desc>Created with Sketch.</desc>
    <defs></defs>
    <g id="Artboard-4" stroke="none" stroke-width="1" fill="none" fill-rule="evenodd" transform="translate(-21.000000, -93.000000)" stroke-linecap="round" stroke-linejoin="round">
        <g id="icon-cloud-upload" transform="translate(21.000000, 93.000000)" stroke="#000000" stroke-width="2">
            <polyline id="Shape" transform="translate(12.000000, 12.000000) scale(1, -1) translate(-12.000000, -12.000000) " points="8 10 12 14 16 10"></polyline>
            <path d="M12,10 L12,19" id="Shape" transform="translate(12.500000, 14.500000) scale(1, -1) translate(-12.500000, -14.500000) "></path>
            <path d="M20.8770171,16 C22.6600708,14.7538593 23.4246327,12.5028082 22.7662662,10.4376041 C22.1078996,8.37240007 20.1785348,6.96962696 17.9987641,6.97132154 L16.7395284,6.97132154 C15.9163425,3.78292041 13.2003625,1.42905061 9.91007627,1.05241171 C6.61979009,0.675772805 3.43649173,2.35435249 1.90553161,5.27327463 C0.37457149,8.19219678 0.812953607,11.7470629 3.00786286,14.2121429" id="Shape"></path>
        </g>
    </g>
</svg>