<?xml version="1.0" encoding="UTF-8"?>
<svg width="20px" height="18px" viewBox="0 0 20 18" version="1.1" xmlns="http://www.w3.org/2000/svg" xmlns:xlink="http://www.w3.org/1999/xlink">
    <!-- Generator: Sketch 48.2 (47327) - http://www.bohemiancoding.com/sketch -->
    <title>icon-link-external copy 3</title>
    <desc>Created with Sketch.</desc>
    <defs></defs>
    <g id="Artboard-4" stroke="none" stroke-width="1" fill="none" fill-rule="evenodd" transform="translate(-189.000000, -24.000000)">
        <g id="icon-link-external" transform="translate(189.000000, 24.000000)" fill="#000000" fill-rule="nonzero">
            <path d="M16.0152181,13.0033773 C16.0152181,12.4510925 16.4629333,12.0033773 17.0152181,12.0033773 C17.5675028,12.0033773 18.0152181,12.4510925 18.0152181,13.0033773 L18.0152181,14.6666667 C18.0152181,16.5076158 16.5228339,18 14.6818848,18 L3.33333333,18 C1.49238417,18 0,16.5076158 0,14.6666667 L0,5.34008789 C0,3.49913872 1.49238417,2.00675456 3.33333333,2.00675456 L7.00760905,2.00675456 C7.5598938,2.00675456 8.00760905,2.45446981 8.00760905,3.00675456 C8.00760905,3.55903931 7.5598938,4.00675456 7.00760905,4.00675456 L3.33333333,4.00675456 C2.59695367,4.00675456 2,4.60370822 2,5.34008789 L2,14.6666667 C2,15.4030463 2.59695367,16 3.33333333,16 L14.6818848,16 C15.4182644,16 16.0152181,15.4030463 16.0152181,14.6666667 L16.0152181,13.0033773 Z" id="Shape"></path>
            <path d="M18,2 L12,2 C11.4477153,2 11,1.55228475 11,1 C11,0.44771525 11.4477153,0 12,0 L19,0 C19.5522847,0 20,0.44771525 20,1 L20,8 C20,8.55228475 19.5522847,9 19,9 C18.4477153,9 18,8.55228475 18,8 L18,2 Z" id="Shape"></path>
            <path d="M8.87377345,12.5404401 C8.48324916,12.9309644 7.85008418,12.9309644 7.45955989,12.5404401 C7.06903559,12.1499158 7.06903559,11.5167508 7.45955989,11.1262266 L18.2928932,0.292893219 C18.6834175,-0.0976310729 19.3165825,-0.0976310729 19.7071068,0.292893219 C20.0976311,0.683417511 20.0976311,1.31658249 19.7071068,1.70710678 L8.87377345,12.5404401 Z" id="Shape"></path>
        </g>
    </g>
</svg>