<?xml version="1.0" encoding="UTF-8"?>
<svg width="20px" height="20px" viewBox="0 0 20 20" version="1.1" xmlns="http://www.w3.org/2000/svg" xmlns:xlink="http://www.w3.org/1999/xlink">
    <!-- Generator: Sketch 48.2 (47327) - http://www.bohemiancoding.com/sketch -->
    <title>icon-grid</title>
    <desc>Created with Sketch.</desc>
    <defs></defs>
    <g id="Artboard-4" stroke="none" stroke-width="1" fill="none" fill-rule="evenodd" transform="translate(-522.000000, -124.000000)">
        <g id="icon-grid" transform="translate(523.000000, 125.000000)" fill="#000000" fill-rule="nonzero">
            <path d="M2,1 C1.44771525,1 1,1.44771525 1,2 L1,16 C1,16.5522847 1.44771525,17 2,17 L16,17 C16.5522847,17 17,16.5522847 17,16 L17,2 C17,1.44771525 16.5522847,1 16,1 L2,1 Z M2,-1 L16,-1 C17.6568542,-1 19,0.343145751 19,2 L19,16 C19,17.6568542 17.6568542,19 16,19 L2,19 C0.343145751,19 -1,17.6568542 -1,16 L-1,2 C-1,0.343145751 0.343145751,-1 2,-1 Z" id="Rectangle-path"></path>
            <path d="M0,7 C-0.55228475,7 -1,6.55228475 -1,6 C-1,5.44771525 -0.55228475,5 0,5 L18,5 C18.5522847,5 19,5.44771525 19,6 C19,6.55228475 18.5522847,7 18,7 L0,7 Z" id="Shape"></path>
            <path d="M7,18 C7,18.5522847 6.55228475,19 6,19 C5.44771525,19 5,18.5522847 5,18 L5,6 C5,5.44771525 5.44771525,5 6,5 C6.55228475,5 7,5.44771525 7,6 L7,18 Z" id="Shape"></path>
        </g>
    </g>
</svg>