<?xml version="1.0" encoding="UTF-8"?>
<svg width="24px" height="20px" viewBox="0 0 24 20" version="1.1" xmlns="http://www.w3.org/2000/svg" xmlns:xlink="http://www.w3.org/1999/xlink">
    <!-- Generator: Sketch 48.2 (47327) - http://www.bohemiancoding.com/sketch -->
    <title>Group 3</title>
    <desc>Created with Sketch.</desc>
    <defs></defs>
    <g id="Artboard-5-Copy" stroke="none" stroke-width="1" fill="none" fill-rule="evenodd" transform="translate(-231.000000, -21.000000)">
        <g id="Group-3" transform="translate(230.000000, 20.000000)" fill="#0071BC" fill-rule="nonzero">
            <g id="Group-2" transform="translate(13.000000, 15.500000) scale(1, -1) translate(-13.000000, -15.500000) translate(8.000000, 10.000000)">
                <path d="M8.29289322,5.29289322 C8.68341751,4.90236893 9.31658249,4.90236893 9.70710678,5.29289322 C10.0976311,5.68341751 10.0976311,6.31658249 9.70710678,6.70710678 L5.70710678,10.7071068 C5.31658249,11.0976311 4.68341751,11.0976311 4.29289322,10.7071068 L0.292893219,6.70710678 C-0.0976310729,6.31658249 -0.0976310729,5.68341751 0.292893219,5.29289322 C0.683417511,4.90236893 1.31658249,4.90236893 1.70710678,5.29289322 L5,8.58578644 L8.29289322,5.29289322 Z" id="Shape"></path>
                <path d="M4,1 C4,0.44771525 4.44771525,0 5,0 C5.55228475,0 6,0.44771525 6,1 L6,10 C6,10.5522847 5.55228475,11 5,11 C4.44771525,11 4,10.5522847 4,10 L4,1 Z" id="Shape"></path>
            </g>
            <path d="M18.9992178,7.00000031 C21.6165303,6.997953 23.9331733,8.69271367 24.7236927,11.1877904 C25.5142121,13.6828672 24.5961809,16.4024751 22.4552178,17.9080003 C22.0034487,18.2256843 21.3796837,18.1169869 21.0619997,17.6652178 C20.7443157,17.2134487 20.8530131,16.5896837 21.3047822,16.2719997 C22.7320909,15.2683163 23.3441118,13.4552443 22.8170988,11.7918598 C22.2900859,10.1284753 20.7456572,8.99863483 19,9 L17.74,9 C17.2834417,9 16.8848539,8.69077539 16.7713793,8.24854356 C16.0506545,5.43974429 13.6727295,3.36611945 10.7919817,3.03432209 C7.91123385,2.70252473 5.12415719,4.18125755 3.78375401,6.75266123 C2.44335083,9.32406491 2.82716801,12.4556989 4.74887928,14.6272936 C5.11488194,15.0408882 5.07630104,15.6728766 4.66270644,16.0388793 C4.24911183,16.4048819 3.61712338,16.366301 3.25112072,15.9527064 C0.780349079,13.1606562 0.286869859,9.13426961 2.01024537,5.82817916 C3.73362088,2.52208871 7.31700517,0.620860803 11.0208238,1.04745741 C14.4627369,1.44388838 17.34636,3.77429045 18.4806079,7.00000018 L18.9992178,7.00000031 Z" id="Shape"></path>
        </g>
    </g>
</svg>