<?xml version="1.0" encoding="UTF-8"?>
<svg width="22px" height="23px" viewBox="0 0 22 23" version="1.1" xmlns="http://www.w3.org/2000/svg" xmlns:xlink="http://www.w3.org/1999/xlink">
    <!-- Generator: Sketch 48.2 (47327) - http://www.bohemiancoding.com/sketch -->
    <title>icon-github-tail</title>
    <desc>Created with Sketch.</desc>
    <defs></defs>
    <g id="Artboard-4" stroke="none" stroke-width="1" fill="none" fill-rule="evenodd" transform="translate(-267.000000, -124.000000)" stroke-linecap="round" stroke-linejoin="round">
        <g id="icon-github-tail" transform="translate(268.000000, 124.000000)" stroke="#000000">
            <g id="github">
                <path d="M7,19 C2,20.5 2,16.5 0,16 M14,22 L14,18.13 C14.0758831,17.1653973 13.7334911,16.2147131 13.06,15.52 C16.2,15.17 19.5,13.98 19.5,8.52 C19.4997434,7.12382701 18.9626921,5.78119881 18,4.77 C18.4558559,3.54850655 18.423624,2.19834937 17.91,1 C17.91,1 16.73,0.65 14,2.48 C11.7080091,1.85882174 9.29199093,1.85882174 7,2.48 C4.27,0.65 3.09,1 3.09,1 C2.576376,2.19834937 2.54414413,3.54850655 3,4.77 C2.03012711,5.78869968 1.49252265,7.14346292 1.5,8.55 C1.5,13.97 4.8,15.16 7.94,15.55 C7.27461958,16.2375636 6.93287138,17.1755533 7,18.13 L7,22" id="Shape" stroke-width="2"></path>
            </g>
        </g>
    </g>
</svg>