<?xml version="1.0" encoding="UTF-8"?>
<svg width="24px" height="20px" viewBox="0 0 24 20" version="1.1" xmlns="http://www.w3.org/2000/svg" xmlns:xlink="http://www.w3.org/1999/xlink">
    <!-- Generator: Sketch 48.2 (47327) - http://www.bohemiancoding.com/sketch -->
    <title>icon-sliders</title>
    <desc>Created with Sketch.</desc>
    <defs></defs>
    <g id="Artboard-4" stroke="none" stroke-width="1" fill="none" fill-rule="evenodd" transform="translate(-403.000000, -127.000000)">
        <g id="icon-sliders" transform="translate(404.000000, 128.000000)" fill="#000000" fill-rule="nonzero">
            <path d="M4,18 C4,18.5522847 3.55228475,19 3,19 C2.44771525,19 2,18.5522847 2,18 L2,11 C2,10.4477153 2.44771525,10 3,10 C3.55228475,10 4,10.4477153 4,11 L4,18 Z" id="Shape"></path>
            <path d="M4,7 C4,7.55228475 3.55228475,8 3,8 C2.44771525,8 2,7.55228475 2,7 L2,0 C2,-0.55228475 2.44771525,-1 3,-1 C3.55228475,-1 4,-0.55228475 4,0 L4,7 Z" id="Shape"></path>
            <path d="M12,18 C12,18.5522847 11.5522847,19 11,19 C10.4477153,19 10,18.5522847 10,18 L10,9 C10,8.44771525 10.4477153,8 11,8 C11.5522847,8 12,8.44771525 12,9 L12,18 Z" id="Shape"></path>
            <path d="M12,5 C12,5.55228475 11.5522847,6 11,6 C10.4477153,6 10,5.55228475 10,5 L10,0 C10,-0.55228475 10.4477153,-1 11,-1 C11.5522847,-1 12,-0.55228475 12,0 L12,5 Z" id="Shape"></path>
            <path d="M20,18 C20,18.5522847 19.5522847,19 19,19 C18.4477153,19 18,18.5522847 18,18 L18,13 C18,12.4477153 18.4477153,12 19,12 C19.5522847,12 20,12.4477153 20,13 L20,18 Z" id="Shape"></path>
            <path d="M20,9 C20,9.55228475 19.5522847,10 19,10 C18.4477153,10 18,9.55228475 18,9 L18,0 C18,-0.55228475 18.4477153,-1 19,-1 C19.5522847,-1 20,-0.55228475 20,0 L20,9 Z" id="Shape"></path>
            <path d="M0,12 C-0.55228475,12 -1,11.5522847 -1,11 C-1,10.4477153 -0.55228475,10 0,10 L6,10 C6.55228475,10 7,10.4477153 7,11 C7,11.5522847 6.55228475,12 6,12 L0,12 Z" id="Shape"></path>
            <path d="M8,6 C7.44771525,6 7,5.55228475 7,5 C7,4.44771525 7.44771525,4 8,4 L14,4 C14.5522847,4 15,4.44771525 15,5 C15,5.55228475 14.5522847,6 14,6 L8,6 Z" id="Shape"></path>
            <path d="M16,14 C15.4477153,14 15,13.5522847 15,13 C15,12.4477153 15.4477153,12 16,12 L22,12 C22.5522847,12 23,12.4477153 23,13 C23,13.5522847 22.5522847,14 22,14 L16,14 Z" id="Shape"></path>
        </g>
    </g>
</svg>