<?xml version="1.0" encoding="UTF-8"?>
<svg width="22px" height="22px" viewBox="0 0 22 22" version="1.1" xmlns="http://www.w3.org/2000/svg" xmlns:xlink="http://www.w3.org/1999/xlink">
    <!-- Generator: Sketch 48.2 (47327) - http://www.bohemiancoding.com/sketch -->
    <title>icon-edit</title>
    <desc>Created with Sketch.</desc>
    <defs></defs>
    <g id="Artboard" stroke="none" stroke-width="1" fill="none" fill-rule="evenodd" transform="translate(-443.000000, -572.000000)">
        <g id="icon-edit" transform="translate(444.000000, 573.000000)" fill="#000000" fill-rule="nonzero">
            <path d="M17,12.66 C17,12.1077153 17.4477153,11.66 18,11.66 C18.5522847,11.66 19,12.1077153 19,12.66 L19,18 C19,19.6568542 17.6568542,21 16,21 L2,21 C0.343145751,21 -1,19.6568542 -1,18 L-1,4 C-1,2.34314575 0.343145751,1 2,1 L7.34,1 C7.89228475,1 8.34,1.44771525 8.34,2 C8.34,2.55228475 7.89228475,3 7.34,3 L2,3 C1.44771525,3 1,3.44771525 1,4 L1,18 C1,18.5522847 1.44771525,19 2,19 L16,19 C16.5522847,19 17,18.5522847 17,18 L17,12.66 Z" id="Shape"></path>
            <path d="M7,10.4142136 L7,13 L9.58578644,13 L18.5857864,4 L16,1.41421356 L7,10.4142136 Z M16.7071068,-0.707106781 L20.7071068,3.29289322 C21.0976311,3.68341751 21.0976311,4.31658249 20.7071068,4.70710678 L10.7071068,14.7071068 C10.5195704,14.8946432 10.2652165,15 10,15 L6,15 C5.44771525,15 5,14.5522847 5,14 L5,10 C5,9.73478351 5.10535684,9.4804296 5.29289322,9.29289322 L15.2928932,-0.707106781 C15.6834175,-1.09763107 16.3165825,-1.09763107 16.7071068,-0.707106781 Z" id="Shape"></path>
        </g>
    </g>
</svg>