<?xml version="1.0" encoding="UTF-8"?>
<svg width="20px" height="22px" viewBox="0 0 20 22" version="1.1" xmlns="http://www.w3.org/2000/svg" xmlns:xlink="http://www.w3.org/1999/xlink">
    <!-- Generator: Sketch 48.2 (47327) - http://www.bohemiancoding.com/sketch -->
    <title>icon-lock</title>
    <desc>Created with Sketch.</desc>
    <defs></defs>
    <g id="Artboard-4" stroke="none" stroke-width="1" fill="none" fill-rule="evenodd" transform="translate(-448.000000, -124.000000)">
        <g id="icon-lock" transform="translate(449.000000, 125.000000)" fill="#000000" fill-rule="nonzero">
            <path d="M2,10 C1.44771525,10 1,10.4477153 1,11 L1,18 C1,18.5522847 1.44771525,19 2,19 L16,19 C16.5522847,19 17,18.5522847 17,18 L17,11 C17,10.4477153 16.5522847,10 16,10 L2,10 Z M2,8 L16,8 C17.6568542,8 19,9.34314575 19,11 L19,18 C19,19.6568542 17.6568542,21 16,21 L2,21 C0.343145751,21 -1,19.6568542 -1,18 L-1,11 C-1,9.34314575 0.343145751,8 2,8 Z" id="Rectangle-path"></path>
            <path d="M5,9 C5,9.55228475 4.55228475,10 4,10 C3.44771525,10 3,9.55228475 3,9 L3,5 C3,1.6862915 5.6862915,-1 9,-1 C12.3137085,-1 15,1.6862915 15,5 L15,9 C15,9.55228475 14.5522847,10 14,10 C13.4477153,10 13,9.55228475 13,9 L13,5 C13,2.790861 11.209139,1 9,1 C6.790861,1 5,2.790861 5,5 L5,9 Z" id="Shape"></path>
        </g>
    </g>
</svg>