<?xml version="1.0" encoding="UTF-8"?>
<svg width="24px" height="20px" viewBox="0 0 24 20" version="1.1" xmlns="http://www.w3.org/2000/svg" xmlns:xlink="http://www.w3.org/1999/xlink">
    <!-- Generator: Sketch 48.2 (47327) - http://www.bohemiancoding.com/sketch -->
    <title>users</title>
    <desc>Created with Sketch.</desc>
    <defs></defs>
    <g id="Artboard-5-Copy" stroke="none" stroke-width="1" fill="none" fill-rule="evenodd" transform="translate(-19.000000, -53.000000)">
        <g id="users" transform="translate(20.000000, 54.000000)" fill="#0071BC" fill-rule="nonzero">
            <path d="M17,18 C17,18.5522847 16.5522847,19 16,19 C15.4477153,19 15,18.5522847 15,18 L15,16 C15,14.3431458 13.6568542,13 12,13 L4,13 C2.34314575,13 1,14.3431458 1,16 L1,18 C1,18.5522847 0.55228475,19 0,19 C-0.55228475,19 -1,18.5522847 -1,18 L-1,16 C-1,13.2385763 1.23857625,11 4,11 L12,11 C14.7614237,11 17,13.2385763 17,16 L17,18 Z" id="Shape"></path>
            <path d="M8,9 C5.23857625,9 3,6.76142375 3,4 C3,1.23857625 5.23857625,-1 8,-1 C10.7614237,-1 13,1.23857625 13,4 C13,6.76142375 10.7614237,9 8,9 Z M8,7 C9.65685425,7 11,5.65685425 11,4 C11,2.34314575 9.65685425,1 8,1 C6.34314575,1 5,2.34314575 5,4 C5,5.65685425 6.34314575,7 8,7 Z" id="Oval"></path>
            <path d="M23,18 C23,18.5522847 22.5522847,19 22,19 C21.4477153,19 21,18.5522847 21,18 L21.0000003,16.0007459 C20.9989805,14.6335842 20.0737494,13.440036 18.7500003,13.0982459 C18.2152528,12.9601749 17.8936831,12.4147477 18.0317541,11.8800003 C18.1698251,11.3452528 18.7152523,11.0236831 19.2499997,11.1617541 C21.4562482,11.7314043 22.9983001,13.7206513 23,16 L23,18 Z" id="Shape"></path>
            <path d="M14.7519608,1.09875 C14.216935,0.961761741 13.8942617,0.416986666 14.03125,-0.118039185 C14.1682383,-0.653065037 14.7130133,-0.975738259 15.2480392,-0.83875 C17.4604327,-0.272287765 19.0078433,1.72123893 19.0078433,4.005 C19.0078433,6.28876107 17.4604327,8.28228777 15.2480392,8.84875 C14.7130133,8.98573826 14.1682383,8.66306504 14.03125,8.12803919 C13.8942617,7.59301333 14.216935,7.04823826 14.7519608,6.91125 C16.0793969,6.57137266 17.0078433,5.37525664 17.0078433,4.005 C17.0078433,2.63474336 16.0793969,1.43862734 14.7519608,1.09875 Z" id="Shape"></path>
        </g>
    </g>
</svg>