<svg width="973" height="189" viewBox="0 0 973 189" fill="none" xmlns="http://www.w3.org/2000/svg">
<path d="M100.93 137.397C102.184 137.397 104.065 136.77 104.692 136.143L124.126 116.717L143.559 97.29L177.412 63.45C191.83 49.0367 191.83 25.2233 177.412 10.81C162.993 -3.60333 139.171 -3.60333 124.752 10.81L52.0324 83.5033C50.7786 84.7567 50.1517 86.01 50.7786 87.2633L51.4055 129.25L31.3448 149.303C18.18 134.263 10.6572 114.837 10.6572 94.7833C10.6572 72.85 19.4338 52.17 35.1062 36.5033C50.1517 20.8367 70.8393 12.69 93.4076 12.69C96.5421 12.69 98.4228 10.1833 98.4228 7.67667C98.4228 5.17 95.9152 2.66333 93.4076 2.66333C68.3317 2.66333 45.1366 12.0633 27.5834 30.2367C9.40345 46.53 0 70.3433 0 94.7833C0 119.85 9.40345 143.037 27.5834 160.583C45.1366 178.13 68.3317 188.157 93.4076 188.157C118.483 188.157 141.679 178.757 159.232 160.583C176.785 143.037 186.815 119.85 186.815 94.7833C186.815 91.65 184.308 89.77 181.8 89.77C178.666 89.77 176.785 92.2767 176.785 94.7833C176.785 116.717 168.008 137.397 152.336 153.063C136.663 168.73 115.976 177.503 94.0345 177.503C73.9738 177.503 54.54 169.983 39.4945 156.823L59.5552 136.77L100.93 137.397ZM99.0497 126.743H68.9586L78.3621 117.343L107.826 117.97L99.0497 126.743ZM97.7959 97.9167L127.26 98.5433L117.857 107.943L88.3924 106.69L97.7959 97.9167ZM61.4359 89.1433L132.275 18.33C142.932 7.67667 159.232 7.67667 169.889 18.33C174.904 23.3433 177.412 30.2367 177.412 37.13C177.412 44.0233 174.904 50.9167 169.889 55.93L137.917 87.89L108.453 87.2633L133.529 62.1967C135.41 60.3167 135.41 56.5567 133.529 54.6767C131.648 52.7967 127.887 52.7967 126.006 54.6767L72.72 107.943L61.4359 119.223V89.1433Z" fill="white"/>
<path d="M237.898 152V39.212H276.04C284.1 39.212 291.276 40.564 297.568 43.268C303.86 45.972 308.8 49.976 312.388 55.28C316.028 60.584 317.848 67.11 317.848 74.858C317.848 82.346 316.158 88.742 312.778 94.046C309.45 99.298 304.796 103.328 298.816 106.136C292.836 108.892 285.894 110.27 277.99 110.27H252.718V152H237.898ZM252.64 98.102H277.678C285.374 98.102 291.64 95.944 296.476 91.628C301.364 87.312 303.808 81.436 303.808 74C303.808 66.512 301.312 60.844 296.32 56.996C291.328 53.148 284.88 51.224 276.976 51.224H252.64V98.102ZM355.047 153.56C347.195 153.56 340.799 151.506 335.859 147.398C330.919 143.29 328.449 137.544 328.449 130.16C328.449 121.216 331.569 114.56 337.809 110.192C344.049 105.824 354.059 103.484 367.839 103.172L382.269 102.782V96.464C382.269 91.524 380.761 87.624 377.745 84.764C374.781 81.852 370.205 80.396 364.017 80.396C359.389 80.448 355.307 81.566 351.771 83.75C348.235 85.882 345.973 89.34 344.985 94.124H332.271C332.687 86.272 335.755 80.266 341.475 76.106C347.195 71.894 354.943 69.788 364.719 69.788C375.223 69.788 383.075 71.998 388.275 76.418C393.527 80.838 396.153 87.26 396.153 95.684V152H383.829L382.815 136.868C379.643 143.16 375.665 147.528 370.881 149.972C366.097 152.364 360.819 153.56 355.047 153.56ZM359.415 143.186C363.003 143.186 366.539 142.328 370.023 140.612C373.559 138.896 376.471 136.712 378.759 134.06C381.047 131.356 382.217 128.496 382.269 125.48V111.674L370.257 111.908C361.001 112.064 354.059 113.442 349.431 116.042C344.803 118.59 342.489 122.828 342.489 128.756C342.489 133.332 344.049 136.894 347.169 139.442C350.341 141.938 354.423 143.186 359.415 143.186ZM454.801 178.676C442.165 178.676 432.311 176.83 425.239 173.138C418.167 169.498 414.631 164.272 414.631 157.46C414.631 154.548 415.307 152.078 416.659 150.05C418.011 147.97 419.623 146.254 421.495 144.902C423.367 143.55 425.109 142.484 426.721 141.704C428.333 140.872 429.373 140.274 429.841 139.91C428.957 139.39 427.839 138.74 426.487 137.96C425.187 137.18 424.043 136.14 423.055 134.84C422.067 133.54 421.573 131.85 421.573 129.77C421.573 127.222 422.743 124.908 425.083 122.828C427.475 120.696 431.037 119.084 435.769 117.992C431.037 115.652 427.345 112.506 424.693 108.554C422.041 104.55 420.715 100.234 420.715 95.606C420.715 87.754 423.835 81.54 430.075 76.964C436.315 72.388 444.895 70.1 455.815 70.1C461.067 70.1 465.487 70.724 469.075 71.972C472.663 73.168 475.991 74.884 479.059 77.12C480.203 76.652 482.127 75.846 484.831 74.702C487.535 73.558 490.291 72.414 493.099 71.27C495.959 70.074 498.143 69.19 499.651 68.618L499.573 81.956L485.455 84.608C487.223 88.248 488.107 91.914 488.107 95.606C488.107 102.73 485.299 108.762 479.683 113.702C474.119 118.642 465.721 121.112 454.489 121.112C453.865 121.112 453.059 121.112 452.071 121.112C451.135 121.06 450.329 121.008 449.653 120.956C444.089 121.112 440.267 121.736 438.187 122.828C436.159 123.92 435.145 125.09 435.145 126.338C435.145 127.846 436.315 128.886 438.655 129.458C440.995 130.03 444.973 130.524 450.589 130.94C452.617 131.044 455.113 131.2 458.077 131.408C461.041 131.564 464.369 131.746 468.061 131.954C476.537 132.474 483.063 134.632 487.639 138.428C492.215 142.224 494.503 147.346 494.503 153.794C494.503 161.126 491.227 167.106 484.675 171.734C478.123 176.362 468.165 178.676 454.801 178.676ZM454.879 111.83C460.703 111.83 465.383 110.478 468.919 107.774C472.507 105.07 474.301 101.066 474.301 95.762C474.301 90.354 472.507 86.22 468.919 83.36C465.383 80.448 460.703 78.992 454.879 78.992C449.003 78.992 444.245 80.448 440.605 83.36C437.017 86.22 435.223 90.354 435.223 95.762C435.223 100.858 436.939 104.81 440.371 107.618C443.803 110.426 448.639 111.83 454.879 111.83ZM457.375 169.394C464.811 169.394 470.505 168.276 474.457 166.04C478.409 163.804 480.385 160.424 480.385 155.9C480.385 152.728 479.163 150.102 476.719 148.022C474.327 145.942 470.661 144.746 465.721 144.434L443.101 142.952C441.073 142.848 438.967 143.368 436.783 144.512C434.599 145.604 432.727 147.138 431.167 149.114C429.659 151.09 428.905 153.326 428.905 155.822C428.905 160.138 431.219 163.466 435.847 165.806C440.475 168.198 447.651 169.394 457.375 169.394ZM525.39 115.028C525.39 120.124 526.222 124.752 527.886 128.912C529.602 133.02 532.176 136.296 535.608 138.74C539.092 141.184 543.434 142.406 548.634 142.406C553.782 142.406 558.202 141.21 561.894 138.818C565.638 136.426 568.03 132.968 569.07 128.444H582.72C581.732 133.904 579.548 138.506 576.168 142.25C572.788 145.994 568.706 148.828 563.922 150.752C559.138 152.624 554.146 153.56 548.946 153.56C541.406 153.56 534.776 151.922 529.056 148.646C523.336 145.37 518.864 140.664 515.64 134.528C512.416 128.392 510.804 121.034 510.804 112.454C510.804 103.978 512.26 96.542 515.172 90.146C518.084 83.75 522.296 78.758 527.808 75.17C533.372 71.582 540.054 69.788 547.854 69.788C559.242 69.788 567.978 73.402 574.062 80.63C580.146 87.806 583.188 97.504 583.188 109.724V115.028H525.39ZM525.468 105.278H569.304C569.304 98.362 567.536 92.538 564 87.806C560.464 83.074 555.056 80.708 547.776 80.708C542.732 80.708 538.546 81.93 535.218 84.374C531.89 86.766 529.42 89.86 527.808 93.656C526.196 97.4 525.416 101.274 525.468 105.278ZM631.013 153.56C625.345 153.56 620.119 152.676 615.335 150.908C610.551 149.14 606.547 146.436 603.323 142.796C600.151 139.104 598.175 134.346 597.395 128.522H610.499C611.539 133.254 613.905 136.816 617.597 139.208C621.341 141.6 625.787 142.796 630.935 142.796C636.343 142.796 640.711 141.782 644.039 139.754C647.367 137.726 649.031 134.606 649.031 130.394C649.031 124.726 645.469 121.034 638.345 119.318L621.653 115.184C615.101 113.624 609.875 111.18 605.975 107.852C602.127 104.524 600.203 99.87 600.203 93.89C600.151 86.818 602.699 81.046 607.847 76.574C612.995 72.05 620.691 69.788 630.935 69.788C639.671 69.788 646.717 71.764 652.073 75.716C657.481 79.668 660.289 85.414 660.497 92.954H647.783C647.211 89.106 645.469 86.064 642.557 83.828C639.645 81.54 635.719 80.396 630.779 80.396C625.631 80.396 621.445 81.436 618.221 83.516C614.997 85.544 613.385 88.716 613.385 93.032C613.385 95.892 614.529 98.154 616.817 99.818C619.105 101.43 622.485 102.782 626.957 103.874L643.103 107.93C648.043 109.23 651.891 111.076 654.647 113.468C657.403 115.86 659.327 118.486 660.419 121.346C661.511 124.206 662.057 126.962 662.057 129.614C662.057 137.05 659.327 142.9 653.867 147.164C648.407 151.428 640.789 153.56 631.013 153.56Z" fill="white"/>
</svg>
