<?xml version="1.0" encoding="UTF-8" standalone="no"?>
<svg width="110px" height="23px" viewBox="0 0 110 23" version="1.1" xmlns="http://www.w3.org/2000/svg" xmlns:xlink="http://www.w3.org/1999/xlink">
    <!-- Generator: Sketch 43.2 (39069) - http://www.bohemiancoding.com/sketch -->
    <title>logo_federalist_blue</title>
    <desc>Created with Sketch.</desc>
    <defs></defs>
    <g id="Page-1" stroke="none" stroke-width="1" fill="none" fill-rule="evenodd">
        <path d="M12.1595,16.595 L7.1025,16.49 L4.6585,18.934 C6.4795,20.54 8.7925,21.42 11.2425,21.42 C13.9045,21.42 16.4085,20.383 18.2915,18.5 C20.1745,16.617 21.2115,14.113 21.2115,11.45 C21.2115,11.099 21.4965,10.814 21.8475,10.814 C22.1995,10.814 22.4845,11.099 22.4845,11.45 C22.4845,14.453 21.3145,17.276 19.1915,19.399 C17.0685,21.523 14.2445,22.692 11.2425,22.692 C8.2395,22.692 5.4155,21.523 3.2925,19.399 C1.1695,17.276 -0.0005,14.453 -0.0005,11.45 C-0.0005,8.447 1.1695,5.624 3.2925,3.501 C5.4155,1.378 8.2395,0.208 11.2425,0.208 C11.5935,0.208 11.8785,0.493 11.8785,0.844 C11.8785,1.196 11.5935,1.481 11.2425,1.481 C8.5795,1.481 6.0755,2.518 4.1925,4.401 C2.3095,6.284 1.2725,8.787 1.2725,11.45 C1.2725,13.9 2.1525,16.213 3.7585,18.034 L6.2025,15.59 L6.0975,10.533 C6.0935,10.36 6.1615,10.193 6.2835,10.07 L15.0425,1.311 C16.7905,-0.437 19.6345,-0.437 21.3815,1.311 C23.1295,3.058 23.1295,5.902 21.3815,7.649 L17.3155,11.715 L14.9665,14.064 L12.6225,16.409 C12.5025,16.528 12.3405,16.595 12.1725,16.595 L12.1595,16.595 Z M37.0901,4.6121 L37.0901,6.1221 L30.5141,6.1221 L30.5141,10.9111 L36.1341,10.9111 L36.1341,12.4211 L30.5141,12.4211 L30.5141,18.3091 L28.6501,18.3091 L28.6501,4.6121 L37.0901,4.6121 Z M42.3668,8.474 C42.9468,8.474 43.4818,8.571 43.9718,8.765 C44.4628,8.96 44.8868,9.24 45.2438,9.607 C45.6008,9.973 45.8798,10.425 46.0798,10.964 C46.2808,11.502 46.3808,12.115 46.3808,12.804 C46.3808,13.071 46.3528,13.25 46.2948,13.339 C46.2378,13.428 46.1288,13.473 45.9698,13.473 L39.5278,13.473 C39.5398,14.085 39.6228,14.617 39.7758,15.069 C39.9288,15.522 40.1388,15.899 40.4068,16.202 C40.6748,16.504 40.9928,16.731 41.3628,16.881 C41.7328,17.03 42.1468,17.105 42.6058,17.105 C43.0328,17.105 43.3998,17.056 43.7098,16.957 C44.0188,16.858 44.2848,16.751 44.5078,16.637 C44.7308,16.522 44.9168,16.415 45.0668,16.317 C45.2168,16.218 45.3458,16.168 45.4538,16.168 C45.5938,16.168 45.7028,16.223 45.7788,16.331 L46.2568,16.952 C46.0468,17.207 45.7948,17.429 45.5018,17.617 C45.2088,17.804 44.8948,17.959 44.5598,18.08 C44.2258,18.201 43.8798,18.292 43.5228,18.353 C43.1658,18.413 42.8128,18.443 42.4618,18.443 C41.7928,18.443 41.1768,18.33 40.6128,18.104 C40.0488,17.878 39.5608,17.546 39.1498,17.11 C38.7388,16.673 38.4188,16.134 38.1898,15.49 C37.9598,14.846 37.8448,14.107 37.8448,13.272 C37.8448,12.597 37.9488,11.966 38.1558,11.379 C38.3628,10.793 38.6608,10.285 39.0498,9.855 C39.4388,9.425 39.9128,9.087 40.4738,8.842 C41.0348,8.596 41.6658,8.474 42.3668,8.474 Z M55.3661,18.3097 C55.1241,18.3097 54.9711,18.1917 54.9071,17.9557 L54.7541,16.7797 C54.3401,17.2837 53.8661,17.6867 53.3351,17.9887 C52.8021,18.2917 52.1921,18.4437 51.5041,18.4437 C50.9501,18.4437 50.4461,18.3367 49.9941,18.1227 C49.5411,17.9097 49.1561,17.5957 48.8371,17.1817 C48.5191,16.7677 48.2731,16.2517 48.1011,15.6327 C47.9291,15.0147 47.8431,14.3047 47.8431,13.5017 C47.8431,12.7877 47.9391,12.1237 48.1301,11.5087 C48.3211,10.8937 48.5971,10.3597 48.9571,9.9077 C49.3171,9.4547 49.7551,9.0997 50.2711,8.8417 C50.7871,8.5837 51.3731,8.4547 52.0301,8.4547 C52.6221,8.4547 53.1291,8.5547 53.5501,8.7557 C53.9701,8.9567 54.3461,9.2387 54.6771,9.6017 L54.6771,4.2297 L56.3791,4.2297 L56.3791,18.3097 L55.3661,18.3097 Z M63.0703,8.474 C63.6503,8.474 64.1853,8.571 64.6753,8.765 C65.1663,8.96 65.5903,9.24 65.9473,9.607 C66.3043,9.973 66.5833,10.425 66.7833,10.964 C66.9843,11.502 67.0843,12.115 67.0843,12.804 C67.0843,13.071 67.0563,13.25 66.9983,13.339 C66.9413,13.428 66.8323,13.473 66.6733,13.473 L60.2313,13.473 C60.2433,14.085 60.3263,14.617 60.4793,15.069 C60.6323,15.522 60.8423,15.899 61.1103,16.202 C61.3783,16.504 61.6963,16.731 62.0663,16.881 C62.4363,17.03 62.8503,17.105 63.3093,17.105 C63.7363,17.105 64.1033,17.056 64.4133,16.957 C64.7223,16.858 64.9883,16.751 65.2113,16.637 C65.4343,16.522 65.6203,16.415 65.7703,16.317 C65.9203,16.218 66.0493,16.168 66.1573,16.168 C66.2973,16.168 66.4063,16.223 66.4823,16.331 L66.9603,16.952 C66.7503,17.207 66.4983,17.429 66.2053,17.617 C65.9123,17.804 65.5983,17.959 65.2633,18.08 C64.9293,18.201 64.5833,18.292 64.2263,18.353 C63.8693,18.413 63.5163,18.443 63.1653,18.443 C62.4963,18.443 61.8803,18.33 61.3163,18.104 C60.7523,17.878 60.2643,17.546 59.8533,17.11 C59.4423,16.673 59.1223,16.134 58.8933,15.49 C58.6633,14.846 58.5483,14.107 58.5483,13.272 C58.5483,12.597 58.6523,11.966 58.8593,11.379 C59.0663,10.793 59.3643,10.285 59.7533,9.855 C60.1423,9.425 60.6163,9.087 61.1773,8.842 C61.7383,8.596 62.3693,8.474 63.0703,8.474 Z M69.2542,18.3094 L69.2542,8.6264 L70.2292,8.6264 C70.4142,8.6264 70.5412,8.6614 70.6112,8.7314 C70.6812,8.8014 70.7292,8.9234 70.7552,9.0954 L70.8692,10.6054 C71.2002,9.9294 71.6102,9.4024 72.0982,9.0234 C72.5852,8.6444 73.1572,8.4544 73.8132,8.4544 C74.0812,8.4544 74.3232,8.4844 74.5402,8.5454 C74.7562,8.6064 74.9572,8.6904 75.1422,8.7984 L74.9222,10.0704 C74.8772,10.2294 74.7792,10.3094 74.6262,10.3094 C74.5362,10.3094 74.3992,10.2784 74.2152,10.2184 C74.0302,10.1574 73.7722,10.1274 73.4412,10.1274 C72.8482,10.1274 72.3522,10.2994 71.9542,10.6434 C71.5562,10.9874 71.2232,11.4874 70.9552,12.1444 L70.9552,18.3094 L69.2542,18.3094 Z M83.7066,18.3095 L82.9516,18.3095 C82.7856,18.3095 82.6516,18.2835 82.5496,18.2335 C82.4486,18.1815 82.3816,18.0735 82.3496,17.9085 L82.1576,17.0095 C81.9036,17.2385 81.6546,17.4445 81.4126,17.6255 C81.1706,17.8075 80.9156,17.9605 80.6476,18.0845 C80.3806,18.2095 80.0946,18.3035 79.7926,18.3665 C79.4896,18.4305 79.1536,18.4625 78.7836,18.4625 C78.4076,18.4625 78.0556,18.4095 77.7276,18.3045 C77.3996,18.1985 77.1146,18.0405 76.8726,17.8295 C76.6296,17.6185 76.4376,17.3515 76.2936,17.0285 C76.1506,16.7055 76.0786,16.3235 76.0786,15.8825 C76.0786,15.4985 76.1846,15.1295 76.3946,14.7745 C76.6046,14.4195 76.9436,14.1045 77.4126,13.8295 C77.8806,13.5545 78.4936,13.3295 79.2526,13.1535 C80.0106,12.9775 80.9376,12.8895 82.0336,12.8895 L82.0336,12.1295 C82.0336,11.3735 81.8726,10.8015 81.5516,10.4125 C81.2296,10.0255 80.7526,9.8315 80.1226,9.8315 C79.7076,9.8315 79.3586,9.8835 79.0756,9.9885 C78.7916,10.0935 78.5466,10.2115 78.3396,10.3425 C78.1326,10.4735 77.9536,10.5905 77.8046,10.6955 C77.6546,10.8015 77.5066,10.8535 77.3596,10.8535 C77.2446,10.8535 77.1446,10.8235 77.0586,10.7625 C76.9726,10.7025 76.9046,10.6275 76.8536,10.5385 L76.5476,9.9935 C77.0826,9.4775 77.6596,9.0915 78.2776,8.8365 C78.8956,8.5825 79.5806,8.4545 80.3326,8.4545 C80.8736,8.4545 81.3556,8.5435 81.7756,8.7225 C82.1966,8.9005 82.5496,9.1495 82.8366,9.4675 C83.1236,9.7865 83.3406,10.1725 83.4866,10.6245 C83.6336,11.0765 83.7066,11.5735 83.7066,12.1155 L83.7066,18.3095 Z M86.479,18.3092 L86.479,4.2292 L88.18,4.2292 L88.18,18.3092 L86.479,18.3092 Z M93.456,5.5872 C93.456,5.7532 93.423,5.9072 93.356,6.0502 C93.289,6.1942 93.2,6.3212 93.088,6.4332 C92.977,6.5442 92.848,6.6322 92.701,6.6962 C92.554,6.7592 92.398,6.7912 92.233,6.7912 C92.067,6.7912 91.912,6.7592 91.769,6.6962 C91.626,6.6322 91.498,6.5442 91.387,6.4332 C91.275,6.3212 91.187,6.1942 91.124,6.0502 C91.06,5.9072 91.028,5.7532 91.028,5.5872 C91.028,5.4212 91.06,5.2632 91.124,5.1142 C91.187,4.9642 91.275,4.8332 91.387,4.7222 C91.498,4.6102 91.626,4.5232 91.769,4.4592 C91.912,4.3952 92.067,4.3632 92.233,4.3632 C92.398,4.3632 92.554,4.3952 92.701,4.4592 C92.848,4.5232 92.977,4.6102 93.088,4.7222 C93.2,4.8332 93.289,4.9642 93.356,5.1142 C93.423,5.2632 93.456,5.4212 93.456,5.5872 Z M101.6189,10.223 C101.5429,10.363 101.4249,10.433 101.2649,10.433 C101.1699,10.433 101.0609,10.398 100.9409,10.328 C100.8189,10.258 100.6709,10.18 100.4959,10.094 C100.3209,10.008 100.1119,9.928 99.8699,9.855 C99.6279,9.782 99.3409,9.745 99.0099,9.745 C98.7229,9.745 98.4649,9.782 98.2349,9.855 C98.0059,9.928 97.8099,10.029 97.6469,10.156 C97.4849,10.284 97.3609,10.432 97.2749,10.601 C97.1889,10.769 97.1459,10.953 97.1459,11.15 C97.1459,11.399 97.2169,11.606 97.3609,11.771 C97.5039,11.937 97.6939,12.081 97.9299,12.201 C98.1649,12.323 98.4329,12.429 98.7319,12.522 C99.0319,12.614 99.3389,12.713 99.6549,12.818 C99.9699,12.923 100.2779,13.04 100.5769,13.167 C100.8769,13.295 101.1439,13.454 101.3799,13.645 C101.6159,13.836 101.8049,14.07 101.9489,14.348 C102.0919,14.625 102.1639,14.958 102.1639,15.346 C102.1639,15.792 102.0839,16.205 101.9249,16.584 C101.7659,16.963 101.5299,17.292 101.2179,17.569 C100.9049,17.846 100.5229,18.064 100.0709,18.223 C99.6179,18.383 99.0959,18.462 98.5029,18.462 C97.8269,18.462 97.2159,18.353 96.6679,18.133 C96.1199,17.913 95.6549,17.631 95.2719,17.287 L95.6739,16.637 C95.7249,16.554 95.7849,16.49 95.8549,16.446 C95.9249,16.401 96.0179,16.379 96.1329,16.379 C96.2469,16.379 96.3679,16.423 96.4959,16.512 C96.6229,16.602 96.7779,16.7 96.9589,16.809 C97.1409,16.917 97.3609,17.016 97.6189,17.105 C97.8769,17.194 98.1999,17.239 98.5889,17.239 C98.9199,17.239 99.2099,17.196 99.4589,17.11 C99.7069,17.024 99.9139,16.908 100.0799,16.761 C100.2459,16.614 100.3689,16.446 100.4479,16.254 C100.5279,16.063 100.5679,15.859 100.5679,15.643 C100.5679,15.375 100.4959,15.154 100.3519,14.978 C100.2089,14.803 100.0189,14.653 99.7839,14.529 C99.5479,14.405 99.2789,14.296 98.9759,14.204 C98.6729,14.112 98.3639,14.015 98.0489,13.912 C97.7329,13.811 97.4239,13.694 97.1219,13.564 C96.8189,13.433 96.5499,13.269 96.3139,13.071 C96.0779,12.874 95.8889,12.63 95.7449,12.34 C95.6019,12.05 95.5299,11.698 95.5299,11.284 C95.5299,10.914 95.6069,10.559 95.7599,10.218 C95.9129,9.877 96.1359,9.578 96.4289,9.32 C96.7219,9.062 97.0819,8.856 97.5089,8.703 C97.9359,8.55 98.4229,8.474 98.9709,8.474 C99.6079,8.474 100.1799,8.574 100.6869,8.775 C101.1939,8.976 101.6319,9.251 102.0019,9.602 L101.6189,10.223 Z M107.3062,18.4624 C106.5412,18.4624 105.9532,18.2484 105.5422,17.8224 C105.1312,17.3954 104.9262,16.7804 104.9262,15.9774 L104.9262,10.0514 L103.7602,10.0514 C103.6582,10.0514 103.5722,10.0204 103.5022,9.9604 C103.4322,9.8994 103.3972,9.8054 103.3972,9.6784 L103.3972,8.9994 L104.9832,8.7984 L105.3752,5.8074 C105.3882,5.7114 105.4292,5.6334 105.4992,5.5724 C105.5702,5.5124 105.6592,5.4824 105.7672,5.4824 L106.6272,5.4824 L106.6272,8.8184 L109.3992,8.8184 L109.3992,10.0514 L106.6272,10.0514 L106.6272,15.8624 C106.6272,16.2704 106.7262,16.5734 106.9242,16.7704 C107.1212,16.9684 107.3762,17.0664 107.6882,17.0664 C107.8672,17.0664 108.0212,17.0434 108.1522,16.9954 C108.2822,16.9474 108.3962,16.8944 108.4912,16.8374 C108.5872,16.7804 108.6682,16.7274 108.7352,16.6794 C108.8022,16.6324 108.8612,16.6084 108.9122,16.6084 C109.0012,16.6084 109.0812,16.6624 109.1512,16.7704 L109.6482,17.5834 C109.3552,17.8574 109.0012,18.0724 108.5872,18.2284 C108.1732,18.3844 107.7462,18.4624 107.3062,18.4624 Z M91.373,18.3092 L91.373,8.6262 L93.074,8.6262 L93.074,18.3092 L91.373,18.3092 Z M52.0681,17.0667 C52.6221,17.0667 53.1081,16.9397 53.5261,16.6847 C53.9431,16.4297 54.3271,16.0697 54.6771,15.6047 L54.6771,10.9207 C54.3651,10.4997 54.0231,10.2057 53.6501,10.0367 C53.2771,9.8677 52.8651,9.7827 52.4121,9.7827 C51.5071,9.7827 50.8131,10.1047 50.3281,10.7487 C49.8441,11.3927 49.6021,12.3097 49.6021,13.5017 C49.6021,14.1327 49.6561,14.6727 49.7641,15.1217 C49.8731,15.5707 50.0321,15.9407 50.2421,16.2307 C50.4531,16.5207 50.7111,16.7327 51.0171,16.8657 C51.3221,16.9997 51.6731,17.0667 52.0681,17.0667 Z M7.3755,10.778 L7.4495,14.343 L8.7485,13.044 L15.1535,6.639 C15.4025,6.39 15.8045,6.39 16.0535,6.639 C16.3015,6.887 16.3015,7.29 16.0535,7.539 L13.0475,10.544 L16.6125,10.618 L20.4815,6.749 C21.0875,6.143 21.4215,5.337 21.4215,4.48 C21.4215,3.623 21.0875,2.817 20.4815,2.211 C19.2305,0.959 17.1945,0.959 15.9425,2.211 L7.3755,10.778 Z M11.8005,11.791 L10.6985,12.894 L14.2635,12.968 L15.3655,11.865 L11.8005,11.791 Z M11.9145,15.317 L13.0165,14.215 L9.4515,14.141 L8.3495,15.243 L11.9145,15.317 Z M63.1083,9.726 C62.2863,9.726 61.6393,9.963 61.1673,10.438 C60.6963,10.913 60.4033,11.571 60.2883,12.412 L65.5553,12.412 C65.5553,12.017 65.5013,11.655 65.3923,11.327 C65.2843,10.999 65.1253,10.715 64.9143,10.476 C64.7043,10.237 64.4483,10.053 64.1453,9.922 C63.8423,9.791 63.4973,9.726 63.1083,9.726 Z M79.2906,17.2675 C79.5906,17.2675 79.8636,17.2375 80.1126,17.1765 C80.3616,17.1165 80.5956,17.0305 80.8156,16.9185 C81.0346,16.8075 81.2456,16.6715 81.4456,16.5125 C81.6466,16.3535 81.8426,16.1715 82.0336,15.9675 L82.0336,13.9695 C81.2496,13.9695 80.5846,14.0195 80.0366,14.1185 C79.4876,14.2185 79.0416,14.3485 78.6976,14.5085 C78.3536,14.6685 78.1036,14.8575 77.9476,15.0755 C77.7916,15.2935 77.7136,15.5365 77.7136,15.8065 C77.7136,16.0625 77.7546,16.2835 77.8376,16.4695 C77.9206,16.6555 78.0326,16.8075 78.1726,16.9265 C78.3126,17.0445 78.4786,17.1315 78.6696,17.1855 C78.8606,17.2405 79.0676,17.2675 79.2906,17.2675 Z M42.4048,9.726 C41.5828,9.726 40.9358,9.963 40.4638,10.438 C39.9928,10.913 39.6998,11.571 39.5848,12.412 L44.8518,12.412 C44.8518,12.017 44.7978,11.655 44.6888,11.327 C44.5808,10.999 44.4218,10.715 44.2108,10.476 C44.0008,10.237 43.7448,10.053 43.4418,9.922 C43.1388,9.791 42.7938,9.726 42.4048,9.726 Z" id="logo_federalist_blue" fill="#2D476A"></path>
    </g>
</svg>