<svg width="664" height="189" fill="none" xmlns="http://www.w3.org/2000/svg"><path d="M100.93 137.397c1.254 0 3.135-.627 3.762-1.254l19.434-19.426 19.433-19.427 33.853-33.84c14.418-14.413 14.418-38.227 0-52.64-14.419-14.413-38.241-14.413-52.66 0l-72.72 72.693c-1.253 1.254-1.88 2.507-1.253 3.76l.627 41.987-20.061 20.053c-13.165-15.04-20.688-34.466-20.688-54.52 0-21.933 8.777-42.613 24.45-58.28 15.045-15.666 35.732-23.813 58.3-23.813 3.135 0 5.016-2.507 5.016-5.013 0-2.507-2.508-5.014-5.015-5.014-25.076 0-48.271 9.4-65.825 27.574C9.403 46.53 0 70.343 0 94.783c0 25.067 9.403 48.254 27.583 65.8 17.554 17.547 40.749 27.574 65.825 27.574 25.075 0 48.271-9.4 65.824-27.574 17.553-17.546 27.583-40.733 27.583-65.8 0-3.133-2.507-5.013-5.015-5.013-3.134 0-5.015 2.507-5.015 5.013 0 21.934-8.777 42.614-24.449 58.28-15.673 15.667-36.36 24.44-58.302 24.44-20.06 0-39.494-7.52-54.54-20.68l20.061-20.053 41.375.627Zm-1.88-10.654H68.959l9.403-9.4 29.464.627-8.776 8.773Zm-1.254-28.826 29.464.626-9.403 9.4-29.465-1.253 9.404-8.773Zm-36.36-8.774 70.839-70.813c10.657-10.653 26.957-10.653 37.614 0 5.015 5.013 7.523 11.907 7.523 18.8 0 6.893-2.508 13.787-7.523 18.8l-31.972 31.96-29.464-.627 25.076-25.066c1.881-1.88 1.881-5.64 0-7.52s-5.642-1.88-7.523 0L72.72 107.943l-11.284 11.28v-30.08ZM238.898 150V37.212h38.142c8.06 0 15.236 1.352 21.528 4.056 6.292 2.704 11.232 6.708 14.82 12.012 3.64 5.304 5.46 11.83 5.46 19.578 0 7.488-1.69 13.884-5.07 19.188-3.328 5.252-7.982 9.282-13.962 12.09-5.98 2.756-12.922 4.134-20.826 4.134h-25.272V150h-14.82Zm14.742-53.898h25.038c7.696 0 13.962-2.158 18.798-6.474 4.888-4.316 7.332-10.192 7.332-17.628 0-7.488-2.496-13.156-7.488-17.004-4.992-3.848-11.44-5.772-19.344-5.772H253.64v46.878ZM356.047 151.56c-7.852 0-14.248-2.054-19.188-6.162-4.94-4.108-7.41-9.854-7.41-17.238 0-8.944 3.12-15.6 9.36-19.968 6.24-4.368 16.25-6.708 30.03-7.02l14.43-.39v-6.318c0-4.94-1.508-8.84-4.524-11.7-2.964-2.912-7.54-4.368-13.728-4.368-4.628.052-8.71 1.17-12.246 3.354-3.536 2.132-5.798 5.59-6.786 10.374h-12.714c.416-7.852 3.484-13.858 9.204-18.018 5.72-4.212 13.468-6.318 23.244-6.318 10.504 0 18.356 2.21 23.556 6.63 5.252 4.42 7.878 10.842 7.878 19.266V150h-12.324l-1.014-15.132c-3.172 6.292-7.15 10.66-11.934 13.104-4.784 2.392-10.062 3.588-15.834 3.588Zm4.368-10.374c3.588 0 7.124-.858 10.608-2.574 3.536-1.716 6.448-3.9 8.736-6.552 2.288-2.704 3.458-5.564 3.51-8.58v-13.806l-12.012.234c-9.256.156-16.198 1.534-20.826 4.134-4.628 2.548-6.942 6.786-6.942 12.714 0 4.576 1.56 8.138 4.68 10.686 3.172 2.496 7.254 3.744 12.246 3.744ZM455.801 176.676c-12.636 0-22.49-1.846-29.562-5.538-7.072-3.64-10.608-8.866-10.608-15.678 0-2.912.676-5.382 2.028-7.41 1.352-2.08 2.964-3.796 4.836-5.148 1.872-1.352 3.614-2.418 5.226-3.198 1.612-.832 2.652-1.43 3.12-1.794-.884-.52-2.002-1.17-3.354-1.95-1.3-.78-2.444-1.82-3.432-3.12s-1.482-2.99-1.482-5.07c0-2.548 1.17-4.862 3.51-6.942 2.392-2.132 5.954-3.744 10.686-4.836-4.732-2.34-8.424-5.486-11.076-9.438-2.652-4.004-3.978-8.32-3.978-12.948 0-7.852 3.12-14.066 9.36-18.642 6.24-4.576 14.82-6.864 25.74-6.864 5.252 0 9.672.624 13.26 1.872a36.394 36.394 0 0 1 9.984 5.148 603.295 603.295 0 0 0 5.772-2.418 669.94 669.94 0 0 1 8.268-3.432c2.86-1.196 5.044-2.08 6.552-2.652l-.078 13.338-14.118 2.652c1.768 3.64 2.652 7.306 2.652 10.998 0 7.124-2.808 13.156-8.424 18.096-5.564 4.94-13.962 7.41-25.194 7.41h-2.418a116.16 116.16 0 0 1-2.418-.156c-5.564.156-9.386.78-11.466 1.872-2.028 1.092-3.042 2.262-3.042 3.51 0 1.508 1.17 2.548 3.51 3.12 2.34.572 6.318 1.066 11.934 1.482 2.028.104 4.524.26 7.488.468 2.964.156 6.292.338 9.984.546 8.476.52 15.002 2.678 19.578 6.474 4.576 3.796 6.864 8.918 6.864 15.366 0 7.332-3.276 13.312-9.828 17.94-6.552 4.628-16.51 6.942-29.874 6.942Zm.078-66.846c5.824 0 10.504-1.352 14.04-4.056 3.588-2.704 5.382-6.708 5.382-12.012 0-5.408-1.794-9.542-5.382-12.402-3.536-2.912-8.216-4.368-14.04-4.368-5.876 0-10.634 1.456-14.274 4.368-3.588 2.86-5.382 6.994-5.382 12.402 0 5.096 1.716 9.048 5.148 11.856 3.432 2.808 8.268 4.212 14.508 4.212Zm2.496 57.564c7.436 0 13.13-1.118 17.082-3.354 3.952-2.236 5.928-5.616 5.928-10.14 0-3.172-1.222-5.798-3.666-7.878-2.392-2.08-6.058-3.276-10.998-3.588l-22.62-1.482c-2.028-.104-4.134.416-6.318 1.56-2.184 1.092-4.056 2.626-5.616 4.602-1.508 1.976-2.262 4.212-2.262 6.708 0 4.316 2.314 7.644 6.942 9.984 4.628 2.392 11.804 3.588 21.528 3.588ZM526.39 113.028c0 5.096.832 9.724 2.496 13.884 1.716 4.108 4.29 7.384 7.722 9.828 3.484 2.444 7.826 3.666 13.026 3.666 5.148 0 9.568-1.196 13.26-3.588 3.744-2.392 6.136-5.85 7.176-10.374h13.65c-.988 5.46-3.172 10.062-6.552 13.806-3.38 3.744-7.462 6.578-12.246 8.502-4.784 1.872-9.776 2.808-14.976 2.808-7.54 0-14.17-1.638-19.89-4.914-5.72-3.276-10.192-7.982-13.416-14.118s-4.836-13.494-4.836-22.074c0-8.476 1.456-15.912 4.368-22.308 2.912-6.396 7.124-11.388 12.636-14.976 5.564-3.588 12.246-5.382 20.046-5.382 11.388 0 20.124 3.614 26.208 10.842 6.084 7.176 9.126 16.874 9.126 29.094v5.304H526.39Zm.078-9.75h43.836c0-6.916-1.768-12.74-5.304-17.472-3.536-4.732-8.944-7.098-16.224-7.098-5.044 0-9.23 1.222-12.558 3.666-3.328 2.392-5.798 5.486-7.41 9.282-1.612 3.744-2.392 7.618-2.34 11.622ZM632.013 151.56c-5.668 0-10.894-.884-15.678-2.652-4.784-1.768-8.788-4.472-12.012-8.112-3.172-3.692-5.148-8.45-5.928-14.274h13.104c1.04 4.732 3.406 8.294 7.098 10.686 3.744 2.392 8.19 3.588 13.338 3.588 5.408 0 9.776-1.014 13.104-3.042 3.328-2.028 4.992-5.148 4.992-9.36 0-5.668-3.562-9.36-10.686-11.076l-16.692-4.134c-6.552-1.56-11.778-4.004-15.678-7.332-3.848-3.328-5.772-7.982-5.772-13.962-.052-7.072 2.496-12.844 7.644-17.316 5.148-4.524 12.844-6.786 23.088-6.786 8.736 0 15.782 1.976 21.138 5.928 5.408 3.952 8.216 9.698 8.424 17.238h-12.714c-.572-3.848-2.314-6.89-5.226-9.126-2.912-2.288-6.838-3.432-11.778-3.432-5.148 0-9.334 1.04-12.558 3.12-3.224 2.028-4.836 5.2-4.836 9.516 0 2.86 1.144 5.122 3.432 6.786 2.288 1.612 5.668 2.964 10.14 4.056l16.146 4.056c4.94 1.3 8.788 3.146 11.544 5.538 2.756 2.392 4.68 5.018 5.772 7.878 1.092 2.86 1.638 5.616 1.638 8.268 0 7.436-2.73 13.286-8.19 17.55-5.46 4.264-13.078 6.396-22.854 6.396Z" fill="#153D64"/></svg>