<?xml version="1.0" encoding="UTF-8"?>
<svg id="Layer_1" data-name="Layer 1" xmlns="http://www.w3.org/2000/svg" viewBox="0 0 1740 555">
  <defs>
    <style>
      .cls-1 {
        fill: #2d2e2f;
      }

      .cls-2 {
        fill: #c2c2be;
      }

      .cls-3 {
        fill: #0fadd0;
      }

      .cls-4 {
        fill: #fff;
      }

      .cls-5 {
        fill: #2e2e2e;
        fill-rule: evenodd;
      }

      .cls-6 {
        fill: #333;
      }
    </style>
  </defs>
  <g>
    <polygon class="cls-3" points="2 156.3 214.6 309.3 214.6 3.2 2 156.3"/>
    <polygon class="cls-1" points="214.6 3.2 214.6 309.3 427.2 156.3 214.6 3.2"/>
    <polygon class="cls-6" points="214.6 462.4 427.2 309.3 405.1 293.3 214.6 430.5 214.6 462.4"/>
    <g>
      <polygon class="cls-2" points="405.1 217.3 405.1 172.2 214.6 309.5 214.6 354.4 405.1 217.3 405.1 217.3"/>
      <polygon class="cls-2" points="214.6 386.4 214.6 370.5 214.6 430.5 405.1 293.3 405.1 249.2 214.6 386.4"/>
      <polygon class="cls-6" points="405.1 217.3 405.1 217.3 214.6 354.4 214.6 386.4 405.1 249.2 427.2 233.3 405.1 217.3"/>
    </g>
    <g>
      <polygon class="cls-3" points="214.6 309.3 28.1 175 214.6 309.5 214.6 430.5 28 296 28 175 2 156.3 2 309.3 214.6 462.4 214.6 309.3"/>
      <polygon class="cls-4" points="28 175 28 175 28.1 175 28 175"/>
      <polygon class="cls-4" points="214.6 430.5 214.6 309.5 28.1 175 28 175 28 296 214.6 430.5"/>
    </g>
    <polygon class="cls-4" points="214.6 178.4 270.7 208.9 249.3 159.5 305.3 128.9 236 128.9 214.6 79.5 193.2 128.9 123.9 128.9 179.9 159.5 158.5 208.9 214.6 178.4"/>
  </g>
  <path class="cls-3" d="M853.8,268.1c0,16.2-3,29.9-9,41.1-6,11-14.1,19.8-24.3,26.6-10.2,6.8-21.9,11.7-35.2,14.9-13.3,3.1-27.1,4.7-41.5,4.7h-33.3v104.5h-66.9V182.8h101.7c15.1,0,29.2,1.6,42.3,4.7,13.3,2.9,24.8,7.7,34.4,14.5,9.9,6.5,17.6,15.3,23.1,26.2,5.7,10.7,8.6,24,8.6,39.9ZM786.9,268.5c0-6.5-1.3-11.9-3.9-16-2.6-4.2-6.1-7.4-10.6-9.8-4.4-2.3-9.5-3.9-15.3-4.7-5.5-.8-11.2-1.2-17.2-1.2h-29.3v65.4h28.2c6.3,0,12.3-.5,18-1.6,5.7-1,10.8-2.9,15.3-5.5,4.7-2.6,8.3-6,11-10.2,2.6-4.4,3.9-9.9,3.9-16.4ZM992.2,370.9h-8.2c-7,0-14.2.4-21.5,1.2-7,.5-13.4,1.7-19.2,3.5-5.5,1.8-10,4.6-13.7,8.2-3.7,3.4-5.5,8-5.5,13.7s.8,6.8,2.3,9.4c1.8,2.6,4,4.7,6.7,6.3,2.6,1.6,5.6,2.7,9,3.5,3.4.5,6.7.8,9.8.8,13,0,23-3.5,29.7-10.6,7-7.3,10.6-17.1,10.6-29.3v-6.7ZM874.5,287.6c11.5-11,24.8-19.2,39.9-24.7,15.4-5.5,31-8.2,47-8.2s30.3,2.1,41.5,6.3c11.5,3.9,20.7,10.2,27.8,18.8,7,8.3,12.1,19,15.3,32.1,3.4,12.8,5.1,28,5.1,45.8v102.2h-58.7v-24.7h-1.2c-5,8.1-12.5,14.3-22.7,18.8-9.9,4.4-20.7,6.7-32.5,6.7s-15.9-1-24.3-3.1c-8.3-2.1-16-5.5-23.1-10.2-6.8-4.7-12.4-11-16.8-18.8-4.4-7.8-6.7-17.5-6.7-29s3.8-25.4,11.3-34c7.8-8.6,17.7-15.3,29.7-20,12.3-4.7,25.8-7.8,40.7-9.4,14.9-1.6,29.3-2.3,43.4-2.3v-3.1c0-9.7-3.4-16.7-10.2-21.1-6.8-4.7-15.1-7-25-7s-18,2-26.6,5.9c-8.3,3.9-15.5,8.6-21.5,14.1l-32.5-34.8ZM1294.6,439.5c0,19-2.7,35.6-8.2,49.7-5.5,14.1-13.2,25.7-23.1,34.8-9.9,9.4-22,16.3-36.4,20.7-14.1,4.7-29.7,7-47,7s-35-2.6-53.2-7.8c-18-5.2-33.7-12.8-47-22.7l32.1-45.8c9.4,8.3,19.7,14.5,30.9,18.4,11.5,4.2,22.7,6.3,33.7,6.3,18.8,0,32.6-5,41.5-14.9,9.1-9.9,13.7-23.1,13.7-39.5v-11.7h-1.2c-6,7.8-14.1,14.1-24.3,18.8-10.2,4.7-21.8,7-34.8,7s-28-2.6-39.5-7.8c-11.5-5.5-21.3-12.8-29.3-21.9-7.8-9.1-13.8-19.7-18-31.7-4.2-12.3-6.3-25.2-6.3-38.7s2.1-26.5,6.3-38.7c4.2-12.3,10.2-23.1,18-32.5,8.1-9.4,17.9-16.8,29.3-22.3,11.5-5.7,24.5-8.6,39.1-8.6s24,2.5,35.2,7.4c11.2,5,20.2,12.7,27,23.1h.8v-25h60.7v176.5ZM1233.5,359.3c0-6.5-1.2-12.8-3.5-18.8-2.1-6-5.2-11.2-9.4-15.7-4.2-4.7-9.1-8.3-14.9-11s-12.3-3.9-19.6-3.9-13.8,1.3-19.6,3.9c-5.5,2.6-10.2,6.1-14.1,10.6-3.9,4.4-6.9,9.7-9,15.7-2.1,6-3.1,12.4-3.1,19.2s1,12.8,3.1,18.8c2.1,6,5.1,11.3,9,16,3.9,4.4,8.6,8.1,14.1,11,5.7,2.6,12.3,3.9,19.6,3.9s13.8-1.3,19.6-3.9c6-2.9,11-6.5,14.9-11,4.2-4.4,7.3-9.7,9.4-15.7,2.3-6,3.5-12.4,3.5-19.2ZM1463.8,334.1c0-10.2-3.3-18.9-9.8-26.2-6.3-7.3-15.8-11-28.6-11s-12,1-17.2,3.1c-5.2,1.8-9.8,4.4-13.7,7.8-3.9,3.4-7,7.4-9.4,12.1-2.3,4.4-3.7,9.1-3.9,14.1h82.6ZM1522.9,358.8v7.8c0,2.6-.1,5.1-.4,7.4h-141.3c.5,5.5,2.1,10.4,4.7,14.9,2.9,4.4,6.4,8.3,10.6,11.7,4.4,3.1,9.3,5.6,14.5,7.4,5.5,1.8,11.1,2.7,16.8,2.7,10.2,0,18.8-1.8,25.8-5.5,7-3.9,12.8-8.9,17.2-14.9l44.6,28.2c-9.1,13.3-21.3,23.6-36.4,30.9-14.9,7-32.2,10.6-52,10.6s-28.4-2.2-41.5-6.7c-13-4.7-24.5-11.3-34.4-20-9.7-8.9-17.3-19.7-23.1-32.5-5.5-12.8-8.2-27.4-8.2-43.8s2.7-30.3,8.2-43c5.5-13,12.9-24,22.3-32.9,9.4-9.1,20.5-16.2,33.3-21.1,12.8-5,26.6-7.4,41.5-7.4s27.5,2.5,39.5,7.4c12,4.7,22.3,11.6,30.9,20.7,8.6,9.1,15.3,20.2,20,33.3,5,13,7.4,27.9,7.4,44.6ZM1669.4,316.5c-5.2-5-11.3-9.1-18.4-12.5-7-3.4-14.5-5.1-22.3-5.1s-11.6,1.2-16.8,3.5c-5,2.3-7.4,6.4-7.4,12.1s2.7,9.4,8.2,11.7c5.7,2.3,14.9,5,27.4,7.8,7.3,1.6,14.6,3.8,21.9,6.7,7.6,2.9,14.3,6.7,20.3,11.3,6,4.7,10.8,10.4,14.5,17.2,3.7,6.8,5.5,14.9,5.5,24.3s-2.5,22.7-7.4,31.3c-5,8.3-11.5,15.1-19.6,20.3-7.8,5.2-16.7,9-26.6,11.3-9.9,2.3-19.8,3.5-29.7,3.5-15.9,0-31.6-2.5-47-7.4-15.1-5.2-27.8-12.8-38-22.7l36-38c5.7,6.3,12.8,11.5,21.1,15.7,8.3,4.2,17.2,6.3,26.6,6.3s10.3-1.2,15.3-3.5c5.2-2.6,7.8-7,7.8-13.3s-3.1-10.4-9.4-13.3c-6.3-2.9-16-5.9-29.3-9-6.8-1.6-13.6-3.7-20.3-6.3-6.8-2.6-12.9-6.1-18.4-10.6-5.2-4.4-9.5-9.9-12.9-16.4-3.4-6.5-5.1-14.3-5.1-23.5s2.5-21.7,7.4-29.7c5-8.3,11.3-15.1,19.2-20.3,7.8-5.2,16.4-9,25.8-11.3,9.7-2.6,19.2-3.9,28.6-3.9,14.6,0,28.8,2.3,42.7,7,14.1,4.4,26,11.2,35.6,20.3l-35.2,36.4Z"/>
  <path class="cls-5" d="M729.4,33.5c-2.9-4-7-7.1-11.6-8.8-4.5-1.8-9.2-2.7-14-2.8-5.8,0-11.2,1.1-15.9,3.2-4.7,2-8.9,5-12.4,8.7-3.5,3.8-6.2,8.2-8,13-1.9,5.2-2.8,10.7-2.8,16.2,0,6.2.9,11.8,2.7,16.8,1.8,5.1,4.4,9.5,7.7,13.1,3.4,3.7,7.5,6.6,12,8.5,4.7,2,9.9,3,15.8,3s11.4-1.2,16.1-3.6c4.5-2.2,8.4-5.5,11.3-9.5l16.1,11.3c-4.9,6.2-11.2,11.2-18.3,14.5-7.2,3.4-15.7,5.2-25.4,5.2s-16.9-1.5-24.3-4.4c-7.1-2.7-13.6-6.9-19-12.2-5.4-5.3-9.6-11.7-12.4-18.8-3-7.3-4.5-15.3-4.5-24.1s1.6-17.1,4.7-24.4c3-7,7.4-13.3,12.9-18.5,5.6-5.2,12.2-9.2,19.4-11.8,7.4-2.8,15.5-4.1,24.2-4.1s7.4.3,11.3,1c3.9.7,7.7,1.7,11.3,3.2,3.6,1.4,7,3.2,10.2,5.3,3.2,2.1,5.9,4.7,8.1,7.6l-15.3,12.1ZM774.1,4.1h20.1v100.6h48v17.8h-68.1V4.1ZM860.6,63c0-9,1.5-17.1,4.5-24.4,2.8-7,7.1-13.3,12.6-18.5,5.5-5.2,12-9.2,19.1-11.8,7.4-2.8,15.4-4.1,24.2-4.1s17,1.4,24.4,4.1c7.2,2.6,13.7,6.6,19.3,11.8,5.5,5.2,9.8,11.5,12.7,18.5,3,7.3,4.5,15.4,4.5,24.4s-1.5,16.8-4.5,24.1c-2.9,7-7.2,13.4-12.7,18.7-5.5,5.3-12.1,9.5-19.3,12.2-7.4,2.9-15.6,4.4-24.4,4.4s-16.8-1.5-24.2-4.4c-7.1-2.8-13.6-6.9-19.1-12.2-5.4-5.3-9.7-11.7-12.6-18.8-3-7.3-4.5-15.3-4.5-24.1ZM882.5,63c0,6,.9,11.6,2.8,16.6,1.8,4.9,4.5,9.3,8,13.1,3.4,3.7,7.6,6.7,12.3,8.7,4.7,2.1,10,3.1,15.7,3.1s11-1,15.8-3.1c4.7-2,8.9-4.9,12.4-8.7,3.5-3.8,6.2-8.3,8-13.1,1.9-5,2.8-10.6,2.8-16.6,0-5.5-.9-11-2.8-16.2-1.8-4.8-4.4-9.2-7.9-13-3.4-3.7-7.6-6.7-12.3-8.7-4.8-2.1-10.1-3.2-15.9-3.2s-11.1,1.1-15.9,3.2c-4.6,2-8.8,5-12.2,8.7-3.5,3.8-6.1,8.2-7.9,13-1.9,5.2-2.8,10.7-2.8,16.2ZM1107.2,78.3c0,6.8-1.2,12.9-3.5,18.4-2.2,5.2-5.4,10-9.6,13.9-4.1,3.9-9,6.9-14.3,8.8-5.8,2.1-11.9,3.2-18,3.1-6.5,0-12.5-1-18-3.1-5.3-2-10.3-5-14.4-8.8-4.2-3.9-7.4-8.6-9.6-13.9-2.3-5.5-3.4-11.6-3.4-18.4V4.1h20.1v73.4c0,3.3.4,6.5,1.3,9.8.9,3.2,2.3,6.1,4.2,8.7,2,2.5,4.6,4.6,7.8,6.2,3.2,1.6,7.3,2.4,12,2.4s8.8-.8,12-2.4c3.2-1.6,5.8-3.7,7.8-6.2,2-2.6,3.4-5.5,4.2-8.7.8-3.2,1.3-6.5,1.3-9.8V4.1h20.1v74.2ZM1147.1,4.1h40c7.3,0,14.7,1,22.2,2.9,7.3,1.8,14.1,5,20.1,9.5,6,4.4,10.8,10.2,14.5,17.3,3.7,7.2,5.6,19.4,5.6,30s-1.9,20.8-5.6,27.9c-3.7,7.1-8.6,12.9-14.5,17.5-6,4.6-12.8,8-20.1,10.1-7.2,2.1-14.7,3.2-22.2,3.3h-40V4.1ZM1183.9,105c5.2,0,10.4-.6,15.6-1.8,5.1-1.2,9.8-3.3,14.1-6.2,4.2-2.9,7.6-6.9,10.3-11.8,2.7-5,4-13.8,4-21.4s-1.3-18-4-23.1c-2.7-5.1-6.1-9.1-10.3-11.9-4.3-2.9-9.1-4.9-14.1-5.9-5.1-1.1-10.4-1.6-15.6-1.6h-16.7v83.7h16.7ZM1272.7,108.9c0-3.4,1.2-6.3,3.7-8.7,1.2-1.2,2.6-2.1,4.1-2.7,1.5-.6,3.2-.9,4.9-.9,3.4,0,6.4,1.2,8.9,3.5,2.6,2.3,3.8,5.2,3.8,8.6s-1.2,6.3-3.7,8.7c-1.2,1.2-2.6,2.1-4.1,2.7-1.5.6-3.2.9-4.9.9-1.7,0-3.3-.3-4.9-1-1.5-.6-2.9-1.5-4.1-2.5-1.2-1.1-2.1-2.4-2.8-3.8-.7-1.5-1-3.1-1-4.8ZM1425.8,113.4c-5.7,2.8-12,4.9-18.9,6.4-6.9,1.5-14.7,2.3-23.7,2.3s-17.5-1.5-25-4.4c-7.5-2.9-14-7-19.5-12.2-5.5-5.3-9.8-11.7-12.7-18.8-3-7.3-4.5-15.3-4.5-24.1s1.6-17.1,4.7-24.4c3-7,7.4-13.3,12.9-18.5,5.6-5.2,12.2-9.2,19.4-11.8,7.4-2.8,15.5-4.1,24.2-4.1s17.3,1.3,24.8,3.9c7.5,2.6,13.5,6,18.1,10.2l-13.9,14.9c-2.9-3.2-6.9-5.9-12-8.1-5.3-2.3-11-3.4-16.8-3.3-6,0-11.3,1.1-16.2,3.2-4.7,2-8.9,5-12.4,8.7-3.5,3.8-6.1,8.2-7.9,13-1.9,5.2-2.8,10.7-2.8,16.2,0,6,.9,11.6,2.8,16.6,1.8,4.9,4.5,9.3,8,13.1,3.5,3.8,7.8,6.7,12.6,8.7,4.9,2.1,10.6,3.1,16.8,3.1s16.1-1.3,22.5-4v-28.6h-23.8v-16.5h43.2v58.3ZM1457.2,62.7c0-9,1.5-17.1,4.5-24.4,2.8-7,7.1-13.3,12.6-18.5,5.5-5.2,12-9.2,19.1-11.8,7.4-2.8,15.4-4.1,24.1-4.1s17,1.4,24.4,4.1c7.2,2.6,13.7,6.6,19.3,11.8,5.5,5.2,9.8,11.5,12.7,18.5,3,7.3,4.5,15.4,4.5,24.4s-1.5,16.8-4.5,24.1c-2.9,7-7.2,13.4-12.7,18.7-5.5,5.3-12.1,9.5-19.3,12.2-7.4,2.9-15.6,4.4-24.4,4.4s-16.8-1.5-24.1-4.4c-7.1-2.8-13.6-6.9-19.1-12.2-5.4-5.3-9.7-11.7-12.6-18.8-3-7.3-4.5-15.3-4.5-24.1ZM1479.1,62.7c0,6,.9,11.6,2.8,16.6,1.7,4.9,4.5,9.3,8,13.1,3.4,3.7,7.6,6.7,12.3,8.7,4.7,2.1,10,3.1,15.7,3.1s11-1,15.8-3.1c4.7-2,8.9-4.9,12.3-8.7,3.5-3.8,6.2-8.3,8-13.1,1.8-5,2.8-10.6,2.8-16.6s-.9-11.2-2.8-16.2c-1.8-4.8-4.4-9.2-7.9-13-3.4-3.7-7.6-6.7-12.3-8.7-4.8-2.1-10.1-3.2-15.9-3.2s-11.1,1.1-15.9,3.2c-4.6,2-8.8,5-12.2,8.7-3.5,3.8-6.1,8.2-7.9,13-1.9,5.2-2.9,10.7-2.8,16.2ZM1595.7,4.1h22.6l33.1,92.1h.6l33.2-92.1h22.1l-47.6,118h-17.4l-46.9-118Z"/>
</svg>