<svg width="219" height="31" viewBox="0 0 219 31" fill="none" xmlns="http://www.w3.org/2000/svg">
<path d="M162.402 19.5469H155.254L153.648 24H151.328L157.844 6.9375H159.812L166.34 24H164.031L162.402 19.5469ZM155.934 17.6953H161.734L158.828 9.71484L155.934 17.6953Z" fill="white"/>
<path d="M167.77 17.5547C167.77 15.6094 168.23 14.0469 169.152 12.8672C170.074 11.6797 171.281 11.0859 172.773 11.0859C174.258 11.0859 175.434 11.5938 176.301 12.6094V6H178.469V24H176.477L176.371 22.6406C175.504 23.7031 174.297 24.2344 172.75 24.2344C171.281 24.2344 170.082 23.6328 169.152 22.4297C168.23 21.2266 167.77 19.6562 167.77 17.7188V17.5547ZM169.938 17.8008C169.938 19.2383 170.234 20.3633 170.828 21.1758C171.422 21.9883 172.242 22.3945 173.289 22.3945C174.664 22.3945 175.668 21.7773 176.301 20.543V14.7188C175.652 13.5234 174.656 12.9258 173.312 12.9258C172.25 12.9258 171.422 13.3359 170.828 14.1562C170.234 14.9766 169.938 16.1914 169.938 17.8008Z" fill="white"/>
<path d="M183.883 11.3203L183.941 12.7266C184.871 11.6328 186.125 11.0859 187.703 11.0859C189.477 11.0859 190.684 11.7656 191.324 13.125C191.746 12.5156 192.293 12.0234 192.965 11.6484C193.645 11.2734 194.445 11.0859 195.367 11.0859C198.148 11.0859 199.562 12.5586 199.609 15.5039V24H197.441V15.6328C197.441 14.7266 197.234 14.0508 196.82 13.6055C196.406 13.1523 195.711 12.9258 194.734 12.9258C193.93 12.9258 193.262 13.168 192.73 13.6523C192.199 14.1289 191.891 14.7734 191.805 15.5859V24H189.625V15.6914C189.625 13.8477 188.723 12.9258 186.918 12.9258C185.496 12.9258 184.523 13.5312 184 14.7422V24H181.832V11.3203H183.883Z" fill="white"/>
<path d="M205.246 24H203.078V11.3203H205.246V24ZM202.902 7.95703C202.902 7.60547 203.008 7.30859 203.219 7.06641C203.438 6.82422 203.758 6.70312 204.18 6.70312C204.602 6.70312 204.922 6.82422 205.141 7.06641C205.359 7.30859 205.469 7.60547 205.469 7.95703C205.469 8.30859 205.359 8.60156 205.141 8.83594C204.922 9.07031 204.602 9.1875 204.18 9.1875C203.758 9.1875 203.438 9.07031 203.219 8.83594C203.008 8.60156 202.902 8.30859 202.902 7.95703Z" fill="white"/>
<path d="M210.777 11.3203L210.848 12.9141C211.816 11.6953 213.082 11.0859 214.645 11.0859C217.324 11.0859 218.676 12.5977 218.699 15.6211V24H216.531V15.6094C216.523 14.6953 216.312 14.0195 215.898 13.582C215.492 13.1445 214.855 12.9258 213.988 12.9258C213.285 12.9258 212.668 13.1133 212.137 13.4883C211.605 13.8633 211.191 14.3555 210.895 14.9648V24H208.727V11.3203H210.777Z" fill="white"/>
<path d="M16.1 21.925C16.3 21.925 16.6 21.825 16.7 21.725L19.8 18.625L22.9 15.525L28.3 10.125C30.6 7.825 30.6 4.025 28.3 1.725C26 -0.575 22.2 -0.575 19.9 1.725L8.3 13.325C8.1 13.525 8 13.725 8.1 13.925L8.2 20.625L5 23.825C2.9 21.425 1.7 18.325 1.7 15.125C1.7 11.625 3.1 8.325 5.6 5.825C8 3.325 11.3 2.025 14.9 2.025C15.4 2.025 15.7 1.625 15.7 1.225C15.7 0.825 15.3 0.425 14.9 0.425C10.9 0.425 7.2 1.925 4.4 4.825C1.5 7.425 0 11.225 0 15.125C0 19.125 1.5 22.825 4.4 25.625C7.2 28.425 10.9 30.025 14.9 30.025C18.9 30.025 22.6 28.525 25.4 25.625C28.2 22.825 29.8 19.125 29.8 15.125C29.8 14.625 29.4 14.325 29 14.325C28.5 14.325 28.2 14.725 28.2 15.125C28.2 18.625 26.8 21.925 24.3 24.425C21.8 26.925 18.5 28.325 15 28.325C11.8 28.325 8.7 27.125 6.3 25.025L9.5 21.825L16.1 21.925ZM15.8 20.225H11L12.5 18.725L17.2 18.825L15.8 20.225ZM15.6 15.625L20.3 15.725L18.8 17.225L14.1 17.025L15.6 15.625ZM9.8 14.225L21.1 2.925C22.8 1.225 25.4 1.225 27.1 2.925C27.9 3.725 28.3 4.825 28.3 5.925C28.3 7.025 27.9 8.125 27.1 8.925L22 14.025L17.3 13.925L21.3 9.925C21.6 9.625 21.6 9.025 21.3 8.725C21 8.425 20.4 8.425 20.1 8.725L11.6 17.225L9.8 19.025V14.225Z" fill="white"/>
<path d="M49.1 6.125V8.125H40.4V14.425H47.8V16.425H40.4V24.225H37.9V6.125H49.1Z" fill="white"/>
<path d="M56.1 11.225C56.9 11.225 57.6 11.325 58.2 11.625C58.8 11.925 59.4 12.225 59.9 12.725C60.4 13.225 60.7 13.825 61 14.525C61.3 15.225 61.4 16.025 61.4 16.925C61.4 17.325 61.4 17.525 61.3 17.625C61.2 17.725 61.1 17.825 60.9 17.825H52.4C52.4 18.625 52.5 19.325 52.7 19.925C52.9 20.525 53.2 21.025 53.5 21.425C53.8 21.825 54.3 22.125 54.8 22.325C55.3 22.525 55.8 22.625 56.4 22.625C57 22.625 57.5 22.525 57.9 22.425C58.3 22.325 58.7 22.125 59 22.025C59.3 21.825 59.5 21.725 59.7 21.625C59.9 21.525 60.1 21.425 60.2 21.425C60.4 21.425 60.5 21.525 60.6 21.625L61.2 22.425C60.9 22.725 60.6 23.025 60.2 23.325C59.8 23.525 59.4 23.825 59 23.925C58.6 24.125 58.1 24.225 57.6 24.325C57.1 24.425 56.7 24.425 56.2 24.425C55.3 24.425 54.5 24.325 53.8 24.025C53.1 23.725 52.4 23.325 51.9 22.725C51.4 22.125 50.9 21.425 50.6 20.625C50.3 19.725 50.1 18.825 50.1 17.725C50.1 16.825 50.2 16.025 50.5 15.225C50.8 14.425 51.2 13.825 51.7 13.225C52.2 12.625 52.8 12.225 53.6 11.925C54.3 11.425 55.1 11.225 56.1 11.225ZM56.1 12.925C55 12.925 54.2 13.225 53.5 13.825C52.9 14.425 52.5 15.325 52.3 16.425H59.3C59.3 15.925 59.2 15.425 59.1 15.025C59 14.625 58.7 14.225 58.5 13.925C58.2 13.625 57.9 13.325 57.5 13.225C57.1 12.925 56.6 12.925 56.1 12.925Z" fill="white"/>
<path d="M73.2 24.225C72.9 24.225 72.7 24.025 72.6 23.725L72.4 22.125C71.9 22.825 71.2 23.325 70.5 23.725C69.8 24.125 69 24.325 68.1 24.325C67.4 24.325 66.7 24.225 66.1 23.925C65.5 23.625 65 23.225 64.6 22.725C64.2 22.225 63.9 21.525 63.6 20.725C63.3 19.925 63.3 18.925 63.3 17.925C63.3 17.025 63.4 16.125 63.7 15.325C64 14.525 64.3 13.825 64.8 13.225C65.3 12.625 65.9 12.125 66.5 11.825C67.2 11.525 68 11.325 68.8 11.325C69.6 11.325 70.3 11.425 70.8 11.725C71.4 12.025 71.9 12.325 72.3 12.825V5.625H74.5V24.225H73.2V24.225ZM68.9 22.625C69.6 22.625 70.3 22.425 70.8 22.125C71.4 21.825 71.9 21.325 72.3 20.725V14.525C71.9 13.925 71.4 13.625 70.9 13.325C70.4 13.125 69.9 13.025 69.3 13.025C68.1 13.025 67.2 13.425 66.5 14.325C65.9 15.225 65.5 16.425 65.5 17.925C65.5 18.725 65.6 19.425 65.7 20.025C65.8 20.625 66.1 21.125 66.3 21.525C66.6 21.925 66.9 22.225 67.3 22.325C67.9 22.525 68.4 22.625 68.9 22.625Z" fill="white"/>
<path d="M83.4 11.225C84.2 11.225 84.9 11.325 85.5 11.625C86.1 11.925 86.7 12.225 87.2 12.725C87.7 13.225 88 13.825 88.3 14.525C88.6 15.225 88.7 16.025 88.7 16.925C88.7 17.325 88.7 17.525 88.6 17.625C88.5 17.725 88.4 17.825 88.2 17.825H79.7C79.7 18.625 79.8 19.325 80 19.925C80.2 20.525 80.5 21.025 80.8 21.425C81.2 21.825 81.6 22.125 82.1 22.325C82.6 22.525 83.1 22.625 83.7 22.625C84.3 22.625 84.8 22.525 85.2 22.425C85.6 22.325 86 22.125 86.3 22.025C86.6 21.825 86.8 21.725 87 21.625C87.2 21.525 87.4 21.425 87.5 21.425C87.7 21.425 87.8 21.525 87.9 21.625L88.5 22.425C88.2 22.725 87.9 23.025 87.5 23.325C87.1 23.525 86.7 23.825 86.3 23.925C85.9 24.125 85.4 24.225 84.9 24.325C84.4 24.425 84 24.425 83.5 24.425C82.6 24.425 81.8 24.325 81.1 24.025C80.4 23.725 79.7 23.325 79.2 22.725C78.7 22.125 78.2 21.425 77.9 20.625C77.6 19.725 77.4 18.825 77.4 17.725C77.4 16.825 77.5 16.025 77.8 15.225C78.1 14.425 78.5 13.825 79 13.225C79.5 12.625 80.1 12.225 80.9 11.925C81.7 11.425 82.5 11.225 83.4 11.225ZM83.5 12.925C82.4 12.925 81.6 13.225 80.9 13.825C80.3 14.425 79.9 15.325 79.7 16.425H86.7C86.7 15.925 86.6 15.425 86.5 15.025C86.4 14.625 86.1 14.225 85.9 13.925C85.6 13.625 85.3 13.325 84.9 13.225C84.4 12.925 84 12.925 83.5 12.925Z" fill="white"/>
<path d="M91.6 24.225V11.425H92.9C93.1 11.425 93.3 11.425 93.4 11.525C93.5 11.625 93.6 11.825 93.6 12.025L93.8 14.025C94.2 13.125 94.8 12.425 95.4 11.925C96 11.425 96.8 11.125 97.7 11.125C98.1 11.125 98.4 11.125 98.7 11.225C99 11.325 99.3 11.425 99.5 11.525L99.2 13.225C99.1 13.425 99 13.525 98.8 13.525C98.7 13.525 98.5 13.525 98.3 13.425C98.1 13.325 97.7 13.325 97.3 13.325C96.5 13.325 95.9 13.525 95.3 14.025C94.8 14.525 94.3 15.125 94 16.025V24.225H91.6Z" fill="white"/>
<path d="M110.7 24.225H109.7C109.5 24.225 109.3 24.225 109.2 24.125C109.1 24.025 109 23.925 108.9 23.725L108.6 22.525C108.3 22.825 107.9 23.125 107.6 23.325C107.3 23.525 106.9 23.725 106.6 23.925C106.2 24.125 105.9 24.225 105.5 24.325C105.1 24.425 104.7 24.425 104.2 24.425C103.7 24.425 103.2 24.325 102.8 24.225C102.4 24.125 102 23.925 101.7 23.625C101.4 23.325 101.1 23.025 100.9 22.525C100.7 22.125 100.6 21.625 100.6 21.025C100.6 20.525 100.7 20.025 101 19.525C101.3 19.025 101.7 18.625 102.3 18.325C102.9 17.925 103.7 17.625 104.7 17.425C105.7 17.225 106.9 17.125 108.4 17.125V16.125C108.4 15.125 108.2 14.325 107.8 13.825C107.4 13.325 106.7 13.025 105.9 13.025C105.4 13.025 104.9 13.125 104.5 13.225C104.1 13.325 103.8 13.525 103.5 13.725C103.2 13.925 103 14.025 102.8 14.225C102.6 14.325 102.4 14.425 102.2 14.425C102 14.425 101.9 14.425 101.8 14.325C101.7 14.225 101.6 14.125 101.5 14.025L101.1 13.325C101.8 12.625 102.6 12.125 103.4 11.825C104.2 11.525 105.1 11.325 106.1 11.325C106.8 11.325 107.5 11.425 108 11.725C108.6 11.925 109 12.325 109.4 12.725C109.8 13.125 110.1 13.625 110.3 14.225C110.5 14.825 110.6 15.525 110.6 16.225V24.225H110.7ZM104.9 22.825C105.3 22.825 105.7 22.825 106 22.725C106.3 22.625 106.6 22.525 106.9 22.425C107.2 22.325 107.5 22.125 107.7 21.925C108 21.725 108.2 21.425 108.5 21.225V18.625C107.5 18.625 106.6 18.725 105.9 18.825C105.2 18.925 104.6 19.125 104.1 19.325C103.6 19.525 103.3 19.825 103.1 20.025C102.9 20.325 102.8 20.625 102.8 21.025C102.8 21.325 102.9 21.625 103 21.925C103.1 22.125 103.3 22.325 103.4 22.525C103.6 22.725 103.8 22.825 104.1 22.825C104.3 22.825 104.6 22.825 104.9 22.825Z" fill="white"/>
<path d="M116.6 5.625V24.225H114.4V5.625H116.6Z" fill="white"/>
<path d="M123.6 7.42499C123.6 7.62499 123.6 7.82499 123.5 8.02499C123.4 8.22499 123.3 8.42499 123.1 8.52499C123 8.62499 122.8 8.82499 122.6 8.82499C122.4 8.92499 122.2 9.02499 122 9.02499C121.8 9.02499 121.6 9.02499 121.4 8.92499C121.2 8.82499 121 8.72499 120.9 8.62499C120.8 8.52499 120.6 8.32499 120.6 8.12499C120.5 7.92499 120.5 7.72499 120.5 7.52499C120.5 7.32499 120.5 7.12499 120.6 6.92499C120.7 6.72499 120.8 6.52499 120.9 6.42499C121 6.32499 121.2 6.12499 121.4 6.12499C121.6 6.02499 121.8 6.02499 122 6.02499C122.2 6.02499 122.4 6.02499 122.6 6.12499C122.8 6.22499 123 6.32499 123.1 6.42499C123.2 6.52499 123.4 6.72499 123.5 6.92499C123.5 7.02499 123.6 7.22499 123.6 7.42499ZM123.1 11.425V24.225H120.9V11.425H123.1Z" fill="white"/>
<path d="M134.4 13.525C134.3 13.725 134.1 13.825 133.9 13.825C133.8 13.825 133.6 13.825 133.5 13.725C133.3 13.625 133.1 13.525 132.9 13.425C132.7 13.325 132.4 13.225 132.1 13.125C131.8 13.025 131.4 13.025 131 13.025C130.6 13.025 130.3 13.025 130 13.125C129.7 13.225 129.4 13.325 129.2 13.525C129 13.725 128.8 13.925 128.7 14.125C128.6 14.325 128.5 14.625 128.5 14.825C128.5 15.125 128.6 15.425 128.8 15.625C129 15.825 129.2 16.025 129.6 16.225C129.9 16.425 130.3 16.525 130.7 16.625C131.1 16.725 131.5 16.925 131.9 17.025C132.3 17.125 132.7 17.325 133.1 17.525C133.5 17.725 133.8 17.925 134.2 18.125C134.5 18.425 134.8 18.725 135 19.025C135.2 19.425 135.3 19.825 135.3 20.325C135.3 20.925 135.2 21.425 135 21.925C134.8 22.425 134.5 22.825 134.1 23.225C133.7 23.625 133.2 23.925 132.6 24.125C132 24.325 131.3 24.425 130.5 24.425C129.6 24.425 128.8 24.325 128.1 24.025C127.4 23.725 126.8 23.325 126.3 22.925L126.8 22.025C126.9 21.925 126.9 21.825 127 21.725C127.1 21.625 127.2 21.625 127.4 21.625C127.6 21.625 127.7 21.725 127.9 21.825C128.1 21.925 128.3 22.025 128.5 22.225C128.7 22.325 129 22.525 129.4 22.625C129.8 22.725 130.2 22.825 130.7 22.825C131.1 22.825 131.5 22.725 131.9 22.625C132.2 22.525 132.5 22.325 132.7 22.125C132.9 21.925 133.1 21.725 133.2 21.425C133.3 21.125 133.4 20.925 133.4 20.625C133.4 20.225 133.3 20.025 133.1 19.725C132.9 19.525 132.7 19.325 132.3 19.125C132 18.925 131.6 18.825 131.2 18.725C130.8 18.625 130.4 18.425 130 18.325C129.6 18.225 129.2 18.025 128.8 17.825C128.4 17.625 128 17.425 127.7 17.125C127.4 16.825 127.1 16.525 126.9 16.125C126.7 15.725 126.6 15.325 126.6 14.725C126.6 14.225 126.7 13.725 126.9 13.325C127.1 12.825 127.4 12.525 127.8 12.125C128.2 11.825 128.7 11.525 129.2 11.325C129.8 11.125 130.4 11.025 131.1 11.025C131.9 11.025 132.7 11.125 133.4 11.425C134.1 11.725 134.6 12.025 135.1 12.525L134.4 13.525Z" fill="white"/>
<path d="M141.9 24.425C140.9 24.425 140.1 24.125 139.6 23.625C139.1 23.025 138.8 22.225 138.8 21.225V13.425H137.3C137.2 13.425 137.1 13.425 137 13.325C136.9 13.225 136.9 13.125 136.9 12.925V12.025L139 11.725L139.5 7.725C139.5 7.625 139.6 7.525 139.7 7.425C139.8 7.325 139.9 7.325 140.1 7.325H141.2V11.725H144.9V13.325H141V21.025C141 21.525 141.1 21.925 141.4 22.225C141.7 22.525 142 22.625 142.4 22.625C142.6 22.625 142.8 22.625 143 22.525C143.2 22.425 143.3 22.425 143.4 22.325C143.5 22.225 143.6 22.225 143.7 22.125C143.9 22.025 144 22.025 144 22.025C144.1 22.025 144.2 22.125 144.3 22.225L145 23.325C144.6 23.725 144.1 23.925 143.6 24.225C143 24.325 142.5 24.425 141.9 24.425Z" fill="white"/>
</svg>
