<svg version="1.1" id="maintain" xmlns="http://www.w3.org/2000/svg" xmlns:xlink="http://www.w3.org/1999/xlink">
<style type="text/css">
	.st0{fill:#F1F2F2;}
	.st1{fill:#BD993A;}
	.st2{fill:#FFCC4E;}
	.st3{fill:#2D4447;}
	.st4{fill:#BCBEC0;}
	.st5{fill:#808285;}
	.st6{fill:#84C98B;}
	.st7{fill:#619869;}
	.st8{fill:#04C1E9;}
	.st9{fill:#0592B1;}
</style>
<g id="wheel">
	<circle class="st0" cx="75" cy="75" r="75"/>
	<path class="st4" d="M75,42.5C75,42.5,75,42.5,75,42.5l0-10c-2.5,0-4.6,2.1-4.6,4.6v5.8c-5.5,0.8-10.6,3-14.9,6.2l-4.1-4.1
		c-1.8-1.8-4.7-1.8-6.5,0c-1.8,1.8-1.8,4.7,0,6.5l4.1,4.1c-3.2,4.3-5.4,9.3-6.2,14.9h-5.8c-2.5,0-4.6,2.1-4.6,4.6s2.1,4.6,4.6,4.6
		h5.8c0.8,5.5,3,10.6,6.2,14.9l-4.1,4.1c-1.8,1.8-1.8,4.7,0,6.5c1.8,1.8,4.7,1.8,6.5,0l4.1-4.1c4.3,3.2,9.3,5.4,14.9,6.2v5.8
		c0,2.5,2.1,4.6,4.6,4.6v-10c0,0,0,0,0,0h0L75,42.5L75,42.5z"/>
	<path class="st5" d="M112.9,70.4h-5.8c-0.8-5.5-3-10.6-6.2-14.9l4.1-4.1c0.9-0.9,1.3-2.1,1.3-3.3c0-1.2-0.4-2.4-1.3-3.3
		c-1.8-1.8-4.7-1.8-6.5,0L94.5,49c-4.3-3.2-9.3-5.4-14.9-6.2v-5.8c0-2.5-2.1-4.6-4.6-4.6v36v13v36c2.5,0,4.6-2.1,4.6-4.6v-5.8
		c5.5-0.8,10.6-3,14.9-6.2l4.1,4.1c1.8,1.8,4.7,1.8,6.5,0c0.9-0.9,1.3-2.1,1.3-3.3c0-1.2-0.4-2.4-1.3-3.3l-4.1-4.1
		c3.2-4.3,5.4-9.3,6.2-14.9h5.8c2.5,0,4.6-2.1,4.6-4.6S115.4,70.4,112.9,70.4z"/>
	<path class="st6" d="M75,95.6c-11.4,0-20.6-9.2-20.6-20.6S63.6,54.4,75,54.4V95.6z"/>
	<path class="st7" d="M75,54.4c11.4,0,20.6,9.2,20.6,20.6S86.4,95.6,75,95.6V54.4z"/>
	<circle class="st0" cx="75" cy="75" r="12.6"/>
</g>
</svg>
