<?xml version="1.0" encoding="utf-8"?>
<!-- Generator: Adobe Illustrator 19.1.0, SVG Export Plug-In . SVG Version: 6.00 Build 0)  -->
<svg version="1.1" id="secure" xmlns="http://www.w3.org/2000/svg" xmlns:xlink="http://www.w3.org/1999/xlink">
<style type="text/css">
	.st0{fill:#F1F2F2;}
	.st1{fill:#BD993A;}
	.st2{fill:#FFCC4E;}
	.st3{fill:#2D4447;}
	.st4{fill:#BCBEC0;}
	.st5{fill:#808285;}
	.st6{fill:#84C98B;}
	.st7{fill:#619869;}
	.st8{fill:#04C1E9;}
	.st9{fill:#0592B1;}
</style>
<circle class="st0" cx="75" cy="75" r="75"/>
<g id="shackle">
	<path class="st4" d="M51.5,58.5v7.4h8.6v-7.4c0-8.2,6.7-14.9,14.9-14.9V35C62,35,51.5,45.5,51.5,58.5z"/>
	<path class="st5" d="M89.9,58.5v7.4h8.6v-7.4C98.5,45.5,88,35,75,35v8.6C83.2,43.6,89.9,50.3,89.9,58.5z"/>
</g>
<g id="body">
	<path class="st1" d="M106.5,110.7V70.2c0-2.4-1.9-4.3-4.3-4.3H75V115h27.2C104.5,115,106.5,113.1,106.5,110.7z"/>
	<path class="st2" d="M47.8,65.9c-2.4,0-4.3,1.9-4.3,4.3v40.5c0,2.4,1.9,4.3,4.3,4.3H75V65.9H47.8z"/>
</g>
<g id="keyhole">
	<path class="st3" d="M81.5,84c0-3.6-2.9-6.5-6.5-6.5c-3.6,0-6.5,2.9-6.5,6.5c0,2.5,1.4,4.6,3.5,5.7l-3.1,14.4h12.2L78,89.7
	C80.1,88.6,81.5,86.5,81.5,84z"/>
</g>
</svg>
