<?xml version="1.0" encoding="utf-8"?>
<!-- Generator: Adobe Illustrator 19.1.0, SVG Export Plug-In . SVG Version: 6.00 Build 0)  -->
<svg version="1.1" id="Layer_1" xmlns="http://www.w3.org/2000/svg" xmlns:xlink="http://www.w3.org/1999/xlink" x="0px" y="0px"
	 viewBox="0 0 288 216" style="enable-background:new 0 0 288 216;" xml:space="preserve">
<style type="text/css">
	.st0{fill:none;stroke:#414142;stroke-linecap:round;stroke-linejoin:round;stroke-miterlimit:10;}
	.st1{fill:none;stroke:#0D79A6;stroke-linecap:round;stroke-linejoin:round;stroke-miterlimit:10;}
	.st2{fill:#414142;stroke:#414142;stroke-linecap:round;stroke-linejoin:round;stroke-miterlimit:10;}
	.st3{fill:none;stroke:#414142;stroke-width:1.25;stroke-linecap:round;stroke-linejoin:round;stroke-miterlimit:10;}
	.st4{fill:none;stroke:#525656;stroke-linecap:round;stroke-linejoin:round;stroke-miterlimit:10;}
	.st5{fill:#414142;}
	.st6{fill:#0D79A6;stroke:#0D79A6;stroke-linecap:round;stroke-linejoin:round;stroke-miterlimit:10;}
	.st7{fill:none;stroke:#0D79A6;stroke-width:1.25;stroke-linecap:round;stroke-linejoin:round;stroke-miterlimit:10;}
	.st8{fill:#0D79A6;}
	.st9{fill:none;stroke:#949494;stroke-linecap:round;stroke-linejoin:round;stroke-miterlimit:10;}
	.st10{fill:#949494;stroke:#949494;stroke-linecap:round;stroke-linejoin:round;stroke-miterlimit:10;}
	.st11{fill:none;stroke:#949494;stroke-width:1.25;stroke-linecap:round;stroke-linejoin:round;stroke-miterlimit:10;}
	.st12{fill:#949494;}
	.st13{fill:none;stroke:#FFFFFF;stroke-linecap:round;stroke-linejoin:round;stroke-miterlimit:10;}
	.st14{fill:#FFFFFF;stroke:#FFFFFF;stroke-linecap:round;stroke-linejoin:round;stroke-miterlimit:10;}
	.st15{fill:none;stroke:#FFFFFF;stroke-width:1.25;stroke-linecap:round;stroke-linejoin:round;stroke-miterlimit:10;}
	.st16{fill:#FFFFFF;}
</style>
<rect x="2.5" y="28.5" class="st0" width="19" height="15"/>
<rect x="74.5" y="4.5" class="st1" width="19" height="15"/>
<rect x="2.5" y="76.5" class="st0" width="19" height="15"/>
<polyline class="st0" points="21.5,41.5 17,37.5 12,39.5 7,34.5 2.5,39.5 "/>
<circle class="st0" cx="14.5" cy="33.5" r="2"/>
<line class="st0" x1="21.5" y1="65.5" x2="16.5" y2="65.5"/>
<line class="st0" x1="12.5" y1="65.5" x2="2.5" y2="65.5"/>
<line class="st0" x1="21.5" y1="59.5" x2="9.5" y2="59.5"/>
<line class="st0" x1="21.5" y1="53.5" x2="19.5" y2="53.5"/>
<line class="st0" x1="2.5" y1="53.5" x2="15.5" y2="53.5"/>
<line class="st0" x1="2.5" y1="59.5" x2="5.5" y2="59.5"/>
<circle class="st0" cx="14.5" cy="65.5" r="2"/>
<circle class="st0" cx="17.5" cy="53.5" r="2"/>
<circle class="st0" cx="7.5" cy="59.5" r="2"/>
<line class="st0" x1="5.5" y1="79.5" x2="18.5" y2="79.5"/>
<line class="st0" x1="5.5" y1="82.5" x2="15.5" y2="82.5"/>
<line class="st0" x1="5.5" y1="85.5" x2="18.5" y2="85.5"/>
<line class="st0" x1="5.5" y1="88.5" x2="15.5" y2="88.5"/>
<polyline class="st0" points="56.5,41.5 56.5,44.5 67.5,44.5 67.5,30.5 63.5,30.5 "/>
<rect x="52.5" y="27.5" class="st0" width="11" height="14"/>
<polyline class="st0" points="56.5,65.5 56.5,68.5 67.5,68.5 67.5,54.5 63.5,54.5 "/>
<rect x="52.5" y="51.5" class="st2" width="11" height="14"/>
<g>
	<circle class="st0" cx="59.5" cy="83.5" r="8"/>
</g>
<circle class="st0" cx="59.5" cy="107.5" r="8"/>
<polyline class="st0" points="54.5,108.5 57.5,111.5 64.5,104.5 "/>
<polyline class="st0" points="6.5,180.5 9.5,183.5 16.5,176.5 "/>
<path class="st0" d="M21.5,108c0,0-4.3,4.5-9.5,4.5S2.5,108,2.5,108s4.3-4.5,9.5-4.5S21.5,108,21.5,108z"/>
<circle class="st3" cx="12" cy="108" r="2.5"/>
<g>
	<polyline class="st0" points="43.5,134.5 43.5,139.5 28.5,139.5 28.5,124.5 33.5,124.5 	"/>
	<polyline class="st0" points="43.5,129.5 43.5,124.5 38.5,124.5 	"/>
	<line class="st0" x1="43.5" y1="124.5" x2="32.5" y2="135.5"/>
</g>
<polyline class="st4" points="5.5,135.5 10.5,130.5 15.5,132.5 19.5,126.5 "/>
<polyline class="st4" points="21.5,139.5 2.5,139.5 2.5,124.5 "/>
<g>
	<line class="st0" x1="28.5" y1="11.5" x2="42.5" y2="11.5"/>
	<line class="st0" x1="35.5" y1="4.5" x2="35.5" y2="18.5"/>
</g>
<g>
	<polygon class="st0" points="42.5,92.5 29.5,92.5 29.5,75.5 38.5,75.5 42.5,79.5 	"/>
	<polyline class="st0" points="42.5,79.5 38.5,79.5 38.5,75.5 	"/>
	<line class="st0" x1="32.5" y1="82.5" x2="39.5" y2="82.5"/>
	<line class="st0" x1="32.5" y1="79.5" x2="35.5" y2="79.5"/>
	<line class="st0" x1="32.5" y1="85.5" x2="39.5" y2="85.5"/>
	<line class="st0" x1="32.5" y1="88.5" x2="39.5" y2="88.5"/>
</g>
<line class="st0" x1="42.5" y1="116.5" x2="29.5" y2="116.5"/>
<polyline class="st0" points="29.5,99.5 38.5,99.5 42.5,103.5 "/>
<polyline class="st0" points="42.5,103.5 38.5,103.5 38.5,99.5 "/>
<line class="st0" x1="32.5" y1="106.5" x2="39.5" y2="106.5"/>
<line class="st0" x1="32.5" y1="103.5" x2="35.5" y2="103.5"/>
<line class="st0" x1="32.5" y1="109.5" x2="39.5" y2="109.5"/>
<line class="st0" x1="32.5" y1="112.5" x2="39.5" y2="112.5"/>
<g>
	<g>
		<line class="st0" x1="29.5" y1="53.5" x2="42.5" y2="66.5"/>
		<line class="st0" x1="42.5" y1="53.5" x2="29.5" y2="66.5"/>
	</g>
</g>
<circle class="st3" cx="36" cy="36" r="2.5"/>
<polygon class="st0" points="34,43 34.5,45.5 37.5,45.5 38,43 39.5,42.4 41.7,43.8 43.8,41.7 42.4,39.5 43,38 45.5,37.5 45.5,34.5 
	43,34 42.4,32.5 43.8,30.3 41.7,28.2 39.5,29.6 38,29 37.5,26.5 34.5,26.5 34,29 32.5,29.6 30.3,28.2 28.2,30.3 29.6,32.5 29,34 
	26.5,34.5 26.5,37.5 29,38 29.6,39.5 28.2,41.7 30.3,43.8 32.5,42.4 "/>
<polyline class="st0" points="64.2,18.5 68.5,18.5 68.5,4.5 50.5,4.5 50.5,18.5 54.8,18.5 "/>
<g>
	<polyline class="st0" points="62.5,13.5 59.5,10.5 56.5,13.5 	"/>
	<line class="st0" x1="59.5" y1="10.5" x2="59.5" y2="20.5"/>
</g>
<line class="st0" x1="50.5" y1="8.5" x2="68.5" y2="8.5"/>
<circle class="st5" cx="52.5" cy="6.5" r="0.6"/>
<circle class="st5" cx="54.5" cy="6.5" r="0.6"/>
<line class="st3" x1="29.5" y1="109.5" x2="29.5" y2="109.5"/>
<line class="st3" x1="29.5" y1="112.5" x2="29.5" y2="112.5"/>
<line class="st3" x1="29.5" y1="106.5" x2="29.5" y2="106.5"/>
<line class="st3" x1="42.5" y1="109.5" x2="42.5" y2="109.5"/>
<line class="st3" x1="42.5" y1="112.5" x2="42.5" y2="112.5"/>
<line class="st3" x1="42.5" y1="106.5" x2="42.5" y2="106.5"/>
<line class="st3" x1="29.5" y1="103.5" x2="29.5" y2="103.5"/>
<rect x="74.5" y="28.5" class="st1" width="19" height="15"/>
<rect x="74.5" y="76.5" class="st1" width="19" height="15"/>
<polyline class="st1" points="93.5,41.5 89,37.5 84,39.5 79,34.5 74.5,39.5 "/>
<circle class="st1" cx="86.5" cy="33.5" r="2"/>
<line class="st1" x1="93.5" y1="65.5" x2="88.5" y2="65.5"/>
<line class="st1" x1="84.5" y1="65.5" x2="74.5" y2="65.5"/>
<line class="st1" x1="93.5" y1="59.5" x2="81.5" y2="59.5"/>
<line class="st1" x1="93.5" y1="53.5" x2="91.5" y2="53.5"/>
<line class="st1" x1="74.5" y1="53.5" x2="87.5" y2="53.5"/>
<line class="st1" x1="74.5" y1="59.5" x2="77.5" y2="59.5"/>
<circle class="st1" cx="86.5" cy="65.5" r="2"/>
<circle class="st1" cx="89.5" cy="53.5" r="2"/>
<circle class="st1" cx="79.5" cy="59.5" r="2"/>
<line class="st1" x1="77.5" y1="79.5" x2="90.5" y2="79.5"/>
<line class="st1" x1="77.5" y1="82.5" x2="87.5" y2="82.5"/>
<line class="st1" x1="77.5" y1="85.5" x2="90.5" y2="85.5"/>
<line class="st1" x1="77.5" y1="88.5" x2="87.5" y2="88.5"/>
<polyline class="st1" points="128.5,41.5 128.5,44.5 139.5,44.5 139.5,30.5 135.5,30.5 "/>
<rect x="124.5" y="27.5" class="st1" width="11" height="14"/>
<polyline class="st1" points="128.5,65.5 128.5,68.5 139.5,68.5 139.5,54.5 135.5,54.5 "/>
<rect x="124.5" y="51.5" class="st6" width="11" height="14"/>
<g>
	<circle class="st0" cx="59.5" cy="131.5" r="8"/>
</g>
<path class="st1" d="M93.5,108c0,0-4.3,4.5-9.5,4.5s-9.5-4.5-9.5-4.5s4.3-4.5,9.5-4.5S93.5,108,93.5,108z"/>
<circle class="st7" cx="84" cy="108" r="2.5"/>
<g>
	<polyline class="st1" points="115.5,134.5 115.5,139.5 100.5,139.5 100.5,124.5 105.5,124.5 	"/>
	<polyline class="st1" points="115.5,129.5 115.5,124.5 110.5,124.5 	"/>
	<line class="st1" x1="115.5" y1="124.5" x2="104.5" y2="135.5"/>
</g>
<polyline class="st1" points="77.5,135.5 82.5,130.5 87.5,132.5 91.5,126.5 "/>
<polyline class="st1" points="93.5,139.5 74.5,139.5 74.5,124.5 "/>
<g>
	<line class="st1" x1="100.5" y1="11.5" x2="114.5" y2="11.5"/>
	<line class="st1" x1="107.5" y1="4.5" x2="107.5" y2="18.5"/>
</g>
<g>
	<polygon class="st1" points="114.5,92.5 101.5,92.5 101.5,75.5 110.5,75.5 114.5,79.5 	"/>
	<polyline class="st1" points="114.5,79.5 110.5,79.5 110.5,75.5 	"/>
	<line class="st1" x1="104.5" y1="82.5" x2="111.5" y2="82.5"/>
	<line class="st1" x1="104.5" y1="79.5" x2="107.5" y2="79.5"/>
	<line class="st1" x1="104.5" y1="85.5" x2="111.5" y2="85.5"/>
	<line class="st1" x1="104.5" y1="88.5" x2="111.5" y2="88.5"/>
</g>
<line class="st1" x1="114.5" y1="116.5" x2="101.5" y2="116.5"/>
<polyline class="st1" points="101.5,99.5 110.5,99.5 114.5,103.5 "/>
<polyline class="st1" points="114.5,103.5 110.5,103.5 110.5,99.5 "/>
<line class="st1" x1="104.5" y1="106.5" x2="111.5" y2="106.5"/>
<line class="st1" x1="104.5" y1="103.5" x2="107.5" y2="103.5"/>
<line class="st1" x1="104.5" y1="109.5" x2="111.5" y2="109.5"/>
<line class="st1" x1="104.5" y1="112.5" x2="111.5" y2="112.5"/>
<g>
	<g>
		<line class="st1" x1="101.5" y1="53.5" x2="114.5" y2="66.5"/>
		<line class="st1" x1="114.5" y1="53.5" x2="101.5" y2="66.5"/>
	</g>
</g>
<circle class="st7" cx="108" cy="36" r="2.5"/>
<polygon class="st1" points="106,43 106.5,45.5 109.5,45.5 110,43 111.5,42.4 113.7,43.8 115.8,41.7 114.4,39.5 115,38 117.5,37.5 
	117.5,34.5 115,34 114.4,32.5 115.8,30.3 113.7,28.2 111.5,29.6 110,29 109.5,26.5 106.5,26.5 106,29 104.5,29.6 102.3,28.2 
	100.2,30.3 101.6,32.5 101,34 98.5,34.5 98.5,37.5 101,38 101.6,39.5 100.2,41.7 102.3,43.8 104.5,42.4 "/>
<polyline class="st1" points="136.2,18.5 140.5,18.5 140.5,4.5 122.5,4.5 122.5,18.5 126.8,18.5 "/>
<g>
	<polyline class="st1" points="134.5,13.5 131.5,10.5 128.5,13.5 	"/>
	<line class="st1" x1="131.5" y1="10.5" x2="131.5" y2="20.5"/>
</g>
<line class="st1" x1="122.5" y1="8.5" x2="140.5" y2="8.5"/>
<circle class="st8" cx="124.5" cy="6.5" r="0.6"/>
<circle class="st8" cx="126.5" cy="6.5" r="0.6"/>
<line class="st7" x1="101.5" y1="109.5" x2="101.5" y2="109.5"/>
<line class="st7" x1="101.5" y1="112.5" x2="101.5" y2="112.5"/>
<line class="st7" x1="101.5" y1="106.5" x2="101.5" y2="106.5"/>
<line class="st7" x1="114.5" y1="109.5" x2="114.5" y2="109.5"/>
<line class="st7" x1="114.5" y1="112.5" x2="114.5" y2="112.5"/>
<line class="st7" x1="114.5" y1="106.5" x2="114.5" y2="106.5"/>
<line class="st7" x1="101.5" y1="103.5" x2="101.5" y2="103.5"/>
<rect x="77.5" y="7.5" class="st1" width="13" height="4"/>
<line class="st1" x1="77.5" y1="14.5" x2="90.5" y2="14.5"/>
<line class="st1" x1="77.5" y1="16.5" x2="86.5" y2="16.5"/>
<g>
	<rect x="2.5" y="4.5" class="st0" width="19" height="15"/>
	<rect x="5.5" y="7.5" class="st0" width="13" height="4"/>
	<line class="st0" x1="5.5" y1="14.5" x2="18.5" y2="14.5"/>
	<line class="st0" x1="5.5" y1="16.5" x2="14.5" y2="16.5"/>
</g>
<line class="st0" x1="55.5" y1="131.5" x2="63.5" y2="131.5"/>
<line class="st0" x1="7.5" y1="203.5" x2="15.5" y2="203.5"/>
<g>
	<circle class="st1" cx="131.5" cy="83.5" r="8"/>
</g>
<circle class="st1" cx="131.5" cy="107.5" r="8"/>
<polyline class="st1" points="126.5,108.5 129.5,111.5 136.5,104.5 "/>
<g>
	<circle class="st1" cx="131.5" cy="131.5" r="8"/>
</g>
<line class="st1" x1="127.5" y1="131.5" x2="135.5" y2="131.5"/>
<rect x="146.5" y="4.5" class="st9" width="19" height="15"/>
<rect x="146.5" y="28.5" class="st9" width="19" height="15"/>
<rect x="146.5" y="76.5" class="st9" width="19" height="15"/>
<polyline class="st9" points="165.5,41.5 161,37.5 156,39.5 151,34.5 146.5,39.5 "/>
<circle class="st9" cx="158.5" cy="33.5" r="2"/>
<line class="st9" x1="165.5" y1="65.5" x2="160.5" y2="65.5"/>
<line class="st9" x1="156.5" y1="65.5" x2="146.5" y2="65.5"/>
<line class="st9" x1="165.5" y1="59.5" x2="153.5" y2="59.5"/>
<line class="st9" x1="165.5" y1="53.5" x2="163.5" y2="53.5"/>
<line class="st9" x1="146.5" y1="53.5" x2="159.5" y2="53.5"/>
<line class="st9" x1="146.5" y1="59.5" x2="149.5" y2="59.5"/>
<circle class="st9" cx="158.5" cy="65.5" r="2"/>
<circle class="st9" cx="161.5" cy="53.5" r="2"/>
<circle class="st9" cx="151.5" cy="59.5" r="2"/>
<line class="st9" x1="149.5" y1="79.5" x2="162.5" y2="79.5"/>
<line class="st9" x1="149.5" y1="82.5" x2="159.5" y2="82.5"/>
<line class="st9" x1="149.5" y1="85.5" x2="162.5" y2="85.5"/>
<line class="st9" x1="149.5" y1="88.5" x2="159.5" y2="88.5"/>
<polyline class="st9" points="200.5,41.5 200.5,44.5 211.5,44.5 211.5,30.5 207.5,30.5 "/>
<rect x="196.5" y="27.5" class="st9" width="11" height="14"/>
<polyline class="st9" points="200.5,65.5 200.5,68.5 211.5,68.5 211.5,54.5 207.5,54.5 "/>
<rect x="196.5" y="51.5" class="st10" width="11" height="14"/>
<path class="st9" d="M165.5,108c0,0-4.3,4.5-9.5,4.5s-9.5-4.5-9.5-4.5s4.3-4.5,9.5-4.5S165.5,108,165.5,108z"/>
<circle class="st11" cx="156" cy="108" r="2.5"/>
<g>
	<polyline class="st9" points="187.5,134.5 187.5,139.5 172.5,139.5 172.5,124.5 177.5,124.5 	"/>
	<polyline class="st9" points="187.5,129.5 187.5,124.5 182.5,124.5 	"/>
	<line class="st9" x1="187.5" y1="124.5" x2="176.5" y2="135.5"/>
</g>
<polyline class="st9" points="149.5,135.5 154.5,130.5 159.5,132.5 163.5,126.5 "/>
<polyline class="st9" points="165.5,139.5 146.5,139.5 146.5,124.5 "/>
<g>
	<line class="st9" x1="172.5" y1="11.5" x2="186.5" y2="11.5"/>
	<line class="st9" x1="179.5" y1="4.5" x2="179.5" y2="18.5"/>
</g>
<g>
	<polygon class="st9" points="186.5,92.5 173.5,92.5 173.5,75.5 182.5,75.5 186.5,79.5 	"/>
	<polyline class="st9" points="186.5,79.5 182.5,79.5 182.5,75.5 	"/>
	<line class="st9" x1="176.5" y1="82.5" x2="183.5" y2="82.5"/>
	<line class="st9" x1="176.5" y1="79.5" x2="179.5" y2="79.5"/>
	<line class="st9" x1="176.5" y1="85.5" x2="183.5" y2="85.5"/>
	<line class="st9" x1="176.5" y1="88.5" x2="183.5" y2="88.5"/>
</g>
<line class="st9" x1="186.5" y1="116.5" x2="173.5" y2="116.5"/>
<polyline class="st9" points="173.5,99.5 182.5,99.5 186.5,103.5 "/>
<polyline class="st9" points="186.5,103.5 182.5,103.5 182.5,99.5 "/>
<line class="st9" x1="176.5" y1="106.5" x2="183.5" y2="106.5"/>
<line class="st9" x1="176.5" y1="103.5" x2="179.5" y2="103.5"/>
<line class="st9" x1="176.5" y1="109.5" x2="183.5" y2="109.5"/>
<line class="st9" x1="176.5" y1="112.5" x2="183.5" y2="112.5"/>
<g>
	<g>
		<line class="st9" x1="173.5" y1="53.5" x2="186.5" y2="66.5"/>
		<line class="st9" x1="186.5" y1="53.5" x2="173.5" y2="66.5"/>
	</g>
</g>
<circle class="st11" cx="180" cy="36" r="2.5"/>
<polygon class="st9" points="178,43 178.5,45.5 181.5,45.5 182,43 183.5,42.4 185.7,43.8 187.8,41.7 186.4,39.5 187,38 189.5,37.5 
	189.5,34.5 187,34 186.4,32.5 187.8,30.3 185.7,28.2 183.5,29.6 182,29 181.5,26.5 178.5,26.5 178,29 176.5,29.6 174.3,28.2 
	172.2,30.3 173.6,32.5 173,34 170.5,34.5 170.5,37.5 173,38 173.6,39.5 172.2,41.7 174.3,43.8 176.5,42.4 "/>
<polyline class="st9" points="208.2,18.5 212.5,18.5 212.5,4.5 194.5,4.5 194.5,18.5 198.8,18.5 "/>
<g>
	<polyline class="st9" points="206.5,13.5 203.5,10.5 200.5,13.5 	"/>
	<line class="st9" x1="203.5" y1="10.5" x2="203.5" y2="20.5"/>
</g>
<line class="st9" x1="194.5" y1="8.5" x2="212.5" y2="8.5"/>
<circle class="st12" cx="196.5" cy="6.5" r="0.6"/>
<circle class="st12" cx="198.5" cy="6.5" r="0.6"/>
<line class="st11" x1="173.5" y1="109.5" x2="173.5" y2="109.5"/>
<line class="st11" x1="173.5" y1="112.5" x2="173.5" y2="112.5"/>
<line class="st11" x1="173.5" y1="106.5" x2="173.5" y2="106.5"/>
<line class="st11" x1="186.5" y1="109.5" x2="186.5" y2="109.5"/>
<line class="st11" x1="186.5" y1="112.5" x2="186.5" y2="112.5"/>
<line class="st11" x1="186.5" y1="106.5" x2="186.5" y2="106.5"/>
<line class="st11" x1="173.5" y1="103.5" x2="173.5" y2="103.5"/>
<rect x="149.5" y="7.5" class="st9" width="13" height="4"/>
<line class="st9" x1="149.5" y1="14.5" x2="162.5" y2="14.5"/>
<line class="st9" x1="149.5" y1="16.5" x2="158.5" y2="16.5"/>
<g>
	<circle class="st9" cx="203.5" cy="83.5" r="8"/>
</g>
<circle class="st9" cx="203.5" cy="107.5" r="8"/>
<polyline class="st9" points="198.5,108.5 201.5,111.5 208.5,104.5 "/>
<g>
	<circle class="st9" cx="203.5" cy="131.5" r="8"/>
</g>
<line class="st9" x1="199.5" y1="131.5" x2="207.5" y2="131.5"/>
<rect x="218.5" y="4.5" class="st13" width="19" height="15"/>
<rect x="218.5" y="28.5" class="st13" width="19" height="15"/>
<rect x="218.5" y="76.5" class="st13" width="19" height="15"/>
<polyline class="st13" points="237.5,41.5 233,37.5 228,39.5 223,34.5 218.5,39.5 "/>
<circle class="st13" cx="230.5" cy="33.5" r="2"/>
<line class="st13" x1="237.5" y1="65.5" x2="232.5" y2="65.5"/>
<line class="st13" x1="228.5" y1="65.5" x2="218.5" y2="65.5"/>
<line class="st13" x1="237.5" y1="59.5" x2="225.5" y2="59.5"/>
<line class="st13" x1="237.5" y1="53.5" x2="235.5" y2="53.5"/>
<line class="st13" x1="218.5" y1="53.5" x2="231.5" y2="53.5"/>
<line class="st13" x1="218.5" y1="59.5" x2="221.5" y2="59.5"/>
<circle class="st13" cx="230.5" cy="65.5" r="2"/>
<circle class="st13" cx="233.5" cy="53.5" r="2"/>
<circle class="st13" cx="223.5" cy="59.5" r="2"/>
<line class="st13" x1="221.5" y1="79.5" x2="234.5" y2="79.5"/>
<line class="st13" x1="221.5" y1="82.5" x2="231.5" y2="82.5"/>
<line class="st13" x1="221.5" y1="85.5" x2="234.5" y2="85.5"/>
<line class="st13" x1="221.5" y1="88.5" x2="231.5" y2="88.5"/>
<polyline class="st13" points="272.5,41.5 272.5,44.5 283.5,44.5 283.5,30.5 279.5,30.5 "/>
<rect x="268.5" y="27.5" class="st13" width="11" height="14"/>
<polyline class="st13" points="272.5,65.5 272.5,68.5 283.5,68.5 283.5,54.5 279.5,54.5 "/>
<rect x="268.5" y="51.5" class="st14" width="11" height="14"/>
<path class="st13" d="M237.5,108c0,0-4.3,4.5-9.5,4.5s-9.5-4.5-9.5-4.5s4.3-4.5,9.5-4.5S237.5,108,237.5,108z"/>
<circle class="st15" cx="228" cy="108" r="2.5"/>
<g>
	<polyline class="st13" points="259.5,134.5 259.5,139.5 244.5,139.5 244.5,124.5 249.5,124.5 	"/>
	<polyline class="st13" points="259.5,129.5 259.5,124.5 254.5,124.5 	"/>
	<line class="st13" x1="259.5" y1="124.5" x2="248.5" y2="135.5"/>
</g>
<polyline class="st13" points="221.5,135.5 226.5,130.5 231.5,132.5 235.5,126.5 "/>
<polyline class="st13" points="237.5,139.5 218.5,139.5 218.5,124.5 "/>
<g>
	<line class="st13" x1="244.5" y1="11.5" x2="258.5" y2="11.5"/>
	<line class="st13" x1="251.5" y1="4.5" x2="251.5" y2="18.5"/>
</g>
<g>
	<polygon class="st13" points="258.5,92.5 245.5,92.5 245.5,75.5 254.5,75.5 258.5,79.5 	"/>
	<polyline class="st13" points="258.5,79.5 254.5,79.5 254.5,75.5 	"/>
	<line class="st13" x1="248.5" y1="82.5" x2="255.5" y2="82.5"/>
	<line class="st13" x1="248.5" y1="79.5" x2="251.5" y2="79.5"/>
	<line class="st13" x1="248.5" y1="85.5" x2="255.5" y2="85.5"/>
	<line class="st13" x1="248.5" y1="88.5" x2="255.5" y2="88.5"/>
</g>
<line class="st13" x1="258.5" y1="116.5" x2="245.5" y2="116.5"/>
<polyline class="st13" points="245.5,99.5 254.5,99.5 258.5,103.5 "/>
<polyline class="st13" points="258.5,103.5 254.5,103.5 254.5,99.5 "/>
<line class="st13" x1="248.5" y1="106.5" x2="255.5" y2="106.5"/>
<line class="st13" x1="248.5" y1="103.5" x2="251.5" y2="103.5"/>
<line class="st13" x1="248.5" y1="109.5" x2="255.5" y2="109.5"/>
<line class="st13" x1="248.5" y1="112.5" x2="255.5" y2="112.5"/>
<g>
	<g>
		<line class="st13" x1="245.5" y1="53.5" x2="258.5" y2="66.5"/>
		<line class="st13" x1="258.5" y1="53.5" x2="245.5" y2="66.5"/>
	</g>
</g>
<circle class="st15" cx="252" cy="36" r="2.5"/>
<polygon class="st13" points="250,43 250.5,45.5 253.5,45.5 254,43 255.5,42.4 257.7,43.8 259.8,41.7 258.4,39.5 259,38 261.5,37.5 
	261.5,34.5 259,34 258.4,32.5 259.8,30.3 257.7,28.2 255.5,29.6 254,29 253.5,26.5 250.5,26.5 250,29 248.5,29.6 246.3,28.2 
	244.2,30.3 245.6,32.5 245,34 242.5,34.5 242.5,37.5 245,38 245.6,39.5 244.2,41.7 246.3,43.8 248.5,42.4 "/>
<polyline class="st13" points="280.2,18.5 284.5,18.5 284.5,4.5 266.5,4.5 266.5,18.5 270.8,18.5 "/>
<g>
	<polyline class="st13" points="278.5,13.5 275.5,10.5 272.5,13.5 	"/>
	<line class="st13" x1="275.5" y1="10.5" x2="275.5" y2="20.5"/>
</g>
<line class="st13" x1="266.5" y1="8.5" x2="284.5" y2="8.5"/>
<circle class="st16" cx="268.5" cy="6.5" r="0.6"/>
<circle class="st16" cx="270.5" cy="6.5" r="0.6"/>
<line class="st15" x1="245.5" y1="109.5" x2="245.5" y2="109.5"/>
<line class="st15" x1="245.5" y1="112.5" x2="245.5" y2="112.5"/>
<line class="st15" x1="245.5" y1="106.5" x2="245.5" y2="106.5"/>
<line class="st15" x1="258.5" y1="109.5" x2="258.5" y2="109.5"/>
<line class="st15" x1="258.5" y1="112.5" x2="258.5" y2="112.5"/>
<line class="st15" x1="258.5" y1="106.5" x2="258.5" y2="106.5"/>
<line class="st15" x1="245.5" y1="103.5" x2="245.5" y2="103.5"/>
<rect x="221.5" y="7.5" class="st13" width="13" height="4"/>
<line class="st13" x1="221.5" y1="14.5" x2="234.5" y2="14.5"/>
<line class="st13" x1="221.5" y1="16.5" x2="230.5" y2="16.5"/>
<g>
	<circle class="st13" cx="275.5" cy="83.5" r="8"/>
</g>
<circle class="st13" cx="275.5" cy="107.5" r="8"/>
<polyline class="st13" points="270.5,108.5 273.5,111.5 280.5,104.5 "/>
<g>
	<circle class="st13" cx="275.5" cy="131.5" r="8"/>
</g>
<line class="st13" x1="271.5" y1="131.5" x2="279.5" y2="131.5"/>
<g>
	<path class="st0" d="M19.5,208.5c0,1.6-1.4,3-3,3h-10c-1.7,0-3-1.4-3-3v-10c0-1.6,1.3-3,3-3h10c1.6,0,3,1.4,3,3V208.5z"/>
</g>
<g>
	<path class="st0" d="M19.5,184.5c0,1.6-1.4,3-3,3h-10c-1.7,0-3-1.4-3-3v-10c0-1.6,1.3-3,3-3h10c1.6,0,3,1.4,3,3V184.5z"/>
</g>
<g>
	<path class="st0" d="M19.5,160.5c0,1.6-1.4,3-3,3h-10c-1.7,0-3-1.4-3-3v-10c0-1.6,1.3-3,3-3h10c1.6,0,3,1.4,3,3V160.5z"/>
</g>
<polyline class="st0" points="34.5,151.5 39.5,156 34.5,160.5 "/>
<polyline class="st0" points="40.5,178.5 36,183.5 31.5,178.5 "/>
<polyline class="st1" points="78.5,180.5 81.5,183.5 88.5,176.5 "/>
<line class="st1" x1="79.5" y1="203.5" x2="87.5" y2="203.5"/>
<g>
	<path class="st1" d="M91.5,208.5c0,1.6-1.3,3-3,3h-10c-1.7,0-3-1.4-3-3v-10c0-1.6,1.3-3,3-3h10c1.7,0,3,1.4,3,3V208.5z"/>
</g>
<g>
	<path class="st1" d="M91.5,184.5c0,1.6-1.3,3-3,3h-10c-1.7,0-3-1.4-3-3v-10c0-1.6,1.3-3,3-3h10c1.7,0,3,1.4,3,3V184.5z"/>
</g>
<g>
	<path class="st1" d="M91.5,160.5c0,1.6-1.3,3-3,3h-10c-1.7,0-3-1.4-3-3v-10c0-1.6,1.3-3,3-3h10c1.7,0,3,1.4,3,3V160.5z"/>
</g>
<polyline class="st1" points="106.5,151.5 111.5,156 106.5,160.5 "/>
<polyline class="st1" points="112.5,178.5 108,183.5 103.5,178.5 "/>
<polyline class="st9" points="150.5,180.5 153.5,183.5 160.5,176.5 "/>
<line class="st9" x1="151.5" y1="203.5" x2="159.5" y2="203.5"/>
<g>
	<path class="st9" d="M163.5,208.5c0,1.6-1.4,3-3,3h-10c-1.6,0-3-1.4-3-3v-10c0-1.6,1.4-3,3-3h10c1.6,0,3,1.4,3,3V208.5z"/>
</g>
<g>
	<path class="st9" d="M163.5,184.5c0,1.6-1.4,3-3,3h-10c-1.6,0-3-1.4-3-3v-10c0-1.6,1.4-3,3-3h10c1.6,0,3,1.4,3,3V184.5z"/>
</g>
<g>
	<path class="st9" d="M163.5,160.5c0,1.6-1.4,3-3,3h-10c-1.6,0-3-1.4-3-3v-10c0-1.6,1.4-3,3-3h10c1.6,0,3,1.4,3,3V160.5z"/>
</g>
<polyline class="st9" points="178.5,151.5 183.5,156 178.5,160.5 "/>
<polyline class="st9" points="184.5,178.5 180,183.5 175.5,178.5 "/>
<polyline class="st13" points="222.5,180.5 225.5,183.5 232.5,176.5 "/>
<line class="st13" x1="223.5" y1="203.5" x2="231.5" y2="203.5"/>
<g>
	<path class="st13" d="M235.5,208.5c0,1.6-1.4,3-3,3h-10c-1.6,0-3-1.4-3-3v-10c0-1.6,1.4-3,3-3h10c1.6,0,3,1.4,3,3V208.5z"/>
</g>
<g>
	<path class="st13" d="M235.5,184.5c0,1.6-1.4,3-3,3h-10c-1.6,0-3-1.4-3-3v-10c0-1.6,1.4-3,3-3h10c1.6,0,3,1.4,3,3V184.5z"/>
</g>
<g>
	<path class="st13" d="M235.5,160.5c0,1.6-1.4,3-3,3h-10c-1.6,0-3-1.4-3-3v-10c0-1.6,1.4-3,3-3h10c1.6,0,3,1.4,3,3V160.5z"/>
</g>
<polyline class="st13" points="250.5,151.5 255.5,156 250.5,160.5 "/>
<polyline class="st13" points="256.5,178.5 252,183.5 247.5,178.5 "/>
</svg>
