<?xml version="1.0" standalone="no"?>
<!DOCTYPE svg PUBLIC "-//W3C//DTD SVG 20010904//EN"
 "http://www.w3.org/TR/2001/REC-SVG-20010904/DTD/svg10.dtd">
<svg version="1.0" xmlns="http://www.w3.org/2000/svg"
 width="700.000000pt" height="700.000000pt" viewBox="0 0 700.000000 700.000000"
 preserveAspectRatio="xMidYMid meet">
<metadata>
Created by potrace 1.11, written by Peter Selinger 2001-2013
</metadata>
<g transform="translate(0.000000,700.000000) scale(0.100000,-0.100000)"
fill="#000000" stroke="none">
<path d="M5430 6993 c-254 -42 -451 -124 -650 -272 -89 -67 -2861 -2834 -2885
-2881 -9 -18 -14 -42 -11 -54 3 -13 8 -193 11 -402 4 -208 8 -473 10 -589 2
-115 4 -299 5 -407 l1 -197 -372 -372 -372 -371 -41 47 c-279 325 -533 817
-632 1225 -65 270 -96 507 -96 745 0 101 11 312 18 350 2 11 6 40 9 65 50 422
227 892 478 1270 303 456 722 836 1165 1059 251 126 609 243 842 276 25 3 52
8 60 10 8 2 44 7 80 10 36 4 74 9 85 11 11 2 81 6 155 9 197 8 236 13 278 34
71 37 111 133 87 205 -18 52 -58 101 -102 122 -67 32 -380 20 -653 -26 -30 -5
-71 -12 -90 -15 -198 -33 -532 -138 -745 -234 -281 -127 -593 -326 -815 -519
-77 -68 -283 -267 -385 -372 -423 -435 -717 -1041 -819 -1685 -23 -149 -25
-162 -33 -260 -15 -167 -6 -686 12 -715 1 -3 6 -32 9 -65 5 -52 24 -168 41
-245 2 -14 7 -36 10 -49 12 -60 57 -224 84 -306 150 -453 386 -860 699 -1203
79 -87 257 -263 317 -313 22 -19 51 -45 65 -57 26 -25 311 -238 345 -259 240
-146 303 -181 470 -258 223 -102 522 -198 745 -239 130 -24 142 -26 185 -31
22 -3 51 -7 64 -10 133 -25 706 -26 837 -1 11 2 47 7 79 10 32 4 61 8 64 11 4
2 27 6 52 9 198 23 584 142 813 250 39 18 94 44 121 57 142 66 399 230 550
349 228 181 471 426 650 655 246 315 439 679 560 1054 20 62 38 120 41 129 2
9 13 53 24 97 24 94 26 105 46 210 21 113 28 167 39 275 3 36 8 83 10 105 11
112 7 281 -7 315 -48 110 -191 146 -286 73 -56 -42 -69 -88 -76 -258 -3 -82
-8 -161 -10 -175 -2 -14 -7 -54 -11 -90 -4 -36 -8 -72 -10 -80 -4 -21 -14 -78
-21 -120 -21 -126 -97 -387 -156 -535 -284 -709 -815 -1288 -1503 -1642 -154
-79 -327 -146 -562 -217 -136 -42 -397 -86 -588 -101 -168 -13 -428 -6 -585
16 -41 6 -84 12 -95 13 -78 11 -155 28 -335 71 -338 82 -805 320 -1120 572
l-110 88 374 374 374 374 208 -3 c115 -1 283 -3 374 -5 802 -15 966 -15 1019
-3 l55 12 1398 1398 c852 852 1419 1427 1451 1471 133 180 209 348 254 558 13
63 18 129 18 269 0 197 -3 237 -30 340 -66 264 -179 465 -365 650 -187 187
-430 323 -653 366 -10 2 -27 6 -37 9 -10 3 -33 8 -51 12 -40 7 -393 12 -429 6z
m385 -394 c233 -49 418 -164 576 -356 32 -39 59 -74 59 -77 0 -4 10 -23 23
-44 45 -73 100 -226 112 -312 3 -19 8 -50 11 -67 7 -44 6 -198 -1 -248 -28
-190 -89 -342 -193 -479 -25 -32 -320 -334 -657 -671 l-611 -612 -130 3 c-71
2 -273 6 -449 10 -339 7 -508 11 -512 13 -2 1 211 215 473 477 294 294 481
489 490 510 30 73 12 173 -41 227 -46 46 -151 61 -219 33 -22 -9 -468 -448
-1245 -1225 -666 -666 -1211 -1205 -1212 -1199 0 7 -1 258 -2 558 l-2 545
1341 1340 c737 738 1368 1362 1401 1388 225 173 520 242 788 186z m-1485
-3254 c74 -2 195 -4 268 -5 72 -1 132 -4 132 -6 0 -10 -352 -354 -358 -350 -6
4 -105 9 -422 21 -63 3 -160 7 -215 10 -55 2 -174 7 -265 11 -91 3 -167 8
-169 10 -3 3 11 18 30 35 36 34 95 89 226 212 l82 77 278 -6 c153 -3 339 -7
413 -9z m-895 -720 c375 -8 535 -12 558 -14 22 -1 -296 -321 -321 -322 -117
-6 -1099 -2 -1094 5 3 5 80 84 171 176 l166 166 110 -2 c61 -1 246 -5 410 -9z"/>
</g>
</svg>
