<?xml version="1.0" encoding="UTF-8"?>
<svg width="74px" height="74px" viewBox="0 0 74 74" version="1.1" xmlns="http://www.w3.org/2000/svg" xmlns:xlink="http://www.w3.org/1999/xlink">
    <!-- Generator: Sketch 49.1 (51147) - http://www.bohemiancoding.com/sketch -->
    <title>icon-lock-color</title>
    <desc>Created with Sketch.</desc>
    <defs>
        <path d="M27.8783212,49.3490171 C26.3228874,48.6131763 25.2467532,47.0281537 25.2467532,45.1914894 C25.2467532,42.6533297 27.301909,40.5957447 29.837072,40.5957447 C32.3722351,40.5957447 34.4273908,42.6533297 34.4273908,45.1914894 C34.4273908,47.0281537 33.3512566,48.6131763 31.7958229,49.3490171 L33.6623377,57.4468085 L26.0118064,57.4468085 L27.8783212,49.3490171 Z" id="path-1"></path>
    </defs>
    <g id="icon-lock-color" stroke="none" stroke-width="1" fill="none" fill-rule="evenodd">
        <g id="icon-lock-copy-3" transform="translate(7.000000, 0.000000)">
            <rect id="Rectangle-3" fill="#E74C3C" x="2.29515939" y="31.4042553" width="54.3187721" height="37.5319149"></rect>
            <path d="M8.80936176,32.0125156 C7.18760304,32.0125156 5.87290784,33.3154696 5.87290784,34.9227443 L5.87290784,62.9539197 C5.87290784,64.5611945 7.18760304,65.8641484 8.80936176,65.8641484 L49.9197166,65.8641484 C51.5414752,65.8641484 52.8561706,64.5611945 52.8561706,62.9539197 L52.8561706,34.9227443 C52.8561706,33.3154696 51.5414752,32.0125156 49.9197166,32.0125156 L8.80936176,32.0125156 Z M8.80936176,26.1920583 L49.9197166,26.1920583 C54.7849927,26.1920583 58.7290784,30.1009197 58.7290784,34.9227443 L58.7290784,62.9539197 C58.7290784,67.7757443 54.7849927,71.6846058 49.9197166,71.6846058 L8.80936176,71.6846058 C3.9440856,71.6846058 6.52023751e-16,67.7757443 0,62.9539197 L0,34.9227443 C-6.52023751e-16,30.1009197 3.9440856,26.1920583 8.80936176,26.1920583 Z" id="Rectangle-path" fill="#2C3E50" fill-rule="nonzero"></path>
            <path d="M17.6187235,29.1022869 C17.6187235,30.7095617 16.3040283,32.0125156 14.6822696,32.0125156 C13.0605109,32.0125156 11.7458157,30.7095617 11.7458157,29.1022869 L11.7458157,17.4613722 C11.7458157,7.81772261 19.6339869,2.50367987e-15 29.3645392,8.8817842e-16 C39.0950915,-2.34282449e-15 46.9832627,7.81772261 46.9832627,17.4613722 L46.9832627,29.1022869 C46.9832627,30.7095617 45.6685674,32.0125156 44.0468088,32.0125156 C42.4250502,32.0125156 41.1103549,30.7095617 41.1103549,29.1022869 L41.1103549,17.4613722 C41.1103549,11.0322725 35.8515741,5.82045739 29.3645392,5.82045739 C22.8775043,5.82045739 17.6187235,11.0322725 17.6187235,17.4613722 L17.6187235,29.1022869 Z" id="Shape" fill="#2C3E50" fill-rule="nonzero"></path>
            <g id="Combined-Shape" stroke-linejoin="round">
                <use fill="#FD9A8F" fill-rule="evenodd" xlink:href="#path-1"></use>
                <path stroke="#2C3E50" stroke-width="5" d="M25.0618626,50.4375662 C23.6182043,49.1211077 22.7467532,47.2346759 22.7467532,45.1914894 C22.7467532,41.2732785 25.9205355,38.0957447 29.837072,38.0957447 C33.7536085,38.0957447 36.9273908,41.2732785 36.9273908,45.1914894 C36.9273908,47.2346759 36.0559397,49.1211077 34.6122815,50.4375662 L36.8041312,59.9468085 L22.8700129,59.9468085 L25.0618626,50.4375662 Z"></path>
            </g>
        </g>
    </g>
</svg>