<?xml version="1.0" encoding="UTF-8"?>
<svg width="89px" height="89px" viewBox="0 0 89 89" version="1.1" xmlns="http://www.w3.org/2000/svg" xmlns:xlink="http://www.w3.org/1999/xlink">
    <!-- Generator: Sketch 49 (51002) - http://www.bohemiancoding.com/sketch -->
    <title>Group 4 Copy 3</title>
    <desc>Created with Sketch.</desc>
    <defs></defs>
    <g id="Page-1" stroke="none" stroke-width="1" fill="none" fill-rule="evenodd">
        <g id="icons-and-illustration" transform="translate(-96.000000, -382.000000)">
            <g id="Group-4-Copy-3" transform="translate(96.000000, 381.000000)">
                <polygon id="Path-3" fill="#E1F6A9" points="21.0019531 61.125 15.2304688 65.2900391 7.50390625 69.8701172 5.671875 82.5302734 19.2695312 82.5302734 29.2324219 68.2158203"></polygon>
                <path d="M88.9899172,7.85543825 C89.0223392,10.1807149 88.9798529,12.6827732 88.8370834,15.2780526 C88.4338464,22.6081381 87.3209753,29.3333838 85.2818316,34.8200593 C83.0830645,40.7337676 80.8375326,44.1258863 75.789575,48.6071916 C73.9746227,50.2189617 71.0731268,52.0154184 66.5977453,54.4320022 C65.7915165,54.8673438 64.9374032,55.321529 63.9090953,55.8630469 C63.4286671,56.1160455 60.7816585,57.5037205 60.0471127,57.8915668 C58.6076772,58.6516009 57.4943545,59.2513578 56.5001621,59.8063276 C56.2811184,59.9286577 56.2811184,59.9286577 56.06137,60.0510325 C55.8751653,60.15461 55.8751653,60.15461 55.6888709,60.2580514 C55.4659277,60.3817953 55.2369533,60.5086467 54.9390702,60.6734978 C54.5669531,60.8793859 54.5669531,60.8793859 54.200005,61.0824645 C53.6062873,61.4111575 53.1875697,61.6438787 52.7925045,61.8652098 C52.059533,62.2758491 51.4779122,62.6087299 51.0118767,62.8860504 L51.0118767,76.3044646 C51.0118767,77.3877276 50.537012,78.4174327 49.7687183,79.0703931 L39.664539,89.1060396 C38.9888199,89.6856133 38.1315243,90 37.2475587,90 C36.864384,90 36.4793879,89.9386986 36.0988816,89.8182856 C34.8667376,89.4179259 33.9322627,88.4038954 33.6350326,87.1453305 L30.3927993,73.4475358 L24.4323789,66.8472593 C20.7854676,62.8047385 19.6472583,61.5281336 18.7364382,60.4211018 L2.88653612,56.800777 C1.60758639,56.5111141 0.576629155,55.5647203 0.177973895,54.316403 C-0.223435759,53.0690006 0.0646677236,51.7016901 0.948689051,50.7060098 L10.8791534,39.9549622 C11.5844562,39.1615924 12.5943507,38.7076903 13.6555895,38.7076903 L28.1556178,38.7076903 C28.8271516,37.4775936 29.5346242,36.0900222 31.0558823,33.0598807 C31.2549875,32.6629297 33.063889,29.0287822 33.6157146,27.936314 C36.6287467,21.97131 38.787794,18.2815858 41.0026696,15.7013961 C45.2106782,10.7985051 49.7422182,7.54724208 55.2385248,5.49723792 C55.7770062,5.29639053 56.3209341,5.10255363 56.8701165,4.91562697 C66.4397792,1.65837572 76.3683525,0.726336348 84.512135,1.04683516 C84.9623785,1.0645545 85.2779114,1.08245639 85.4481805,1.09485511 C87.3003306,1.23204049 88.7682102,2.71580095 88.881404,4.56750522 C88.9228072,5.21519686 88.9696262,6.40018043 88.9899172,7.85543825 Z" id="Path" fill="#2C3E50" fill-rule="nonzero"></path>
                <path d="M79.2554104,32.5841008 C82.4494781,23.9961661 82.6379229,12.4114636 82.5497616,7.41504415 C77.8270275,7.37981993 67.4958771,7.77270541 57.4849049,11.5091818 C52.985965,13.1891059 49.405259,15.7699571 45.8801626,19.8790819 C42.8961562,23.3581506 39.5161868,30.5207746 36.7995466,35.9358204 C35.1950106,39.1330953 33.8101997,41.8942165 32.6166311,43.8356127 C32.124284,44.6375563 31.2480961,45.1267157 30.3054481,45.1267157 L14.8745045,45.1267157 L8.77916645,51.5619089 L21.2058436,54.4014379 C21.7958463,54.5369156 22.3180326,54.8620622 22.6950917,55.319977 C23.2729722,55.9824632 30.8087306,64.3306869 35.7972202,69.8527601 C36.1037503,70.1914544 36.3194065,70.6018674 36.4239285,71.0435248 L38.8612499,81.3398339 L44.5848693,75.0576459 L44.5848693,60.8961566 C44.5848693,60.0805805 44.9511627,59.3110669 45.5818552,58.7976062 C46.6791245,57.9007435 49.182906,56.537922 53.3631089,54.2035557 C58.9633872,51.0753744 68.1579347,46.7915679 71.5202718,43.8083478 C76.0707523,39.7669618 77.5844143,37.0779825 79.2554104,32.5841008 Z" id="Path" fill="#BDDC66"></path>
                <path d="M71.7357585,28.9875052 C71.7357585,34.9796861 66.854334,39.8555304 60.8566516,39.8555304 C54.8589692,39.8555304 49.9761884,34.9810409 49.9761884,28.9874205 C49.9761884,22.9965943 54.8576128,18.1208348 60.8566516,18.1208348 C66.8529777,18.1208348 71.7357585,22.996679 71.7357585,28.9875052 Z" id="Path" fill="#2C3E50"></path>
                <path d="M66.2887452,28.9874205 C66.2887452,25.9974265 63.8514238,23.5615366 60.8566516,23.5615366 C57.8618793,23.5615366 55.4245579,25.9974265 55.4245579,28.9874205 C55.4245579,31.9787693 57.8618793,34.4133891 60.8566516,34.4133891 C63.8514238,34.4133891 66.2873889,31.980124 66.2887452,28.9874205 Z" id="Path" fill="#E1F6A9"></path>
                <path d="M22.9382334,72.4848776 C23.0310911,72.2964046 23.0767528,72.202004 23.2867867,71.765897 C24.3650216,69.5418435 24.9430879,68.490182 25.9594265,67.1050196 C26.1349081,66.8658566 26.4788232,66.83118 26.6985164,67.0304979 L30.7213853,70.6802685 C30.8982962,70.8407719 30.9369693,71.1039936 30.8137013,71.3086001 C30.2398416,72.2611211 29.8876081,72.9293732 29.4500117,73.8550344 C29.4166196,73.925749 29.4166196,73.925749 29.3832318,73.9967129 C29.1651079,74.4627601 29.0496129,74.7083916 28.9234072,74.9703677 C25.5547535,81.9591953 21.6012121,84.0864176 8.72383065,84.0862927 L6.0572898,84.145903 C5.7801031,84.1520994 5.550801,83.9315707 5.54618447,83.6543532 L5.5,80.8768626 C5.5,68.3599206 7.46952066,64.4891024 14.3385414,61.0680646 C14.4583177,61.0085409 14.5824041,60.9474621 14.7390667,60.8707853 C16.7953417,59.8643634 17.5174269,59.4635092 18.6391624,58.6032428 C18.856623,58.4364708 19.1678065,58.4758236 19.3369044,58.6914805 L22.6395631,62.9034838 C22.8111507,63.1223159 22.7712203,63.4391048 22.5506961,63.6085122 C20.8982913,64.8778943 19.6203219,65.6098849 17.2035321,66.8135487 C13.1545923,68.8287348 12.2466714,70.3167112 11.9884355,77.7059555 C19.0739346,77.3958575 21.1178794,76.1796444 22.9382334,72.4848776 Z" id="Path" fill="#2C3E50" fill-rule="nonzero"></path>
            </g>
        </g>
    </g>
</svg>