<?xml version="1.0" encoding="UTF-8"?>
<svg width="74px" height="74px" viewBox="0 0 74 74" version="1.1" xmlns="http://www.w3.org/2000/svg" xmlns:xlink="http://www.w3.org/1999/xlink">
    <!-- Generator: Sketch 49.1 (51147) - http://www.bohemiancoding.com/sketch -->
    <title>icon-layout-color</title>
    <desc>Created with Sketch.</desc>
    <defs></defs>
    <g id="icon-layout-color" stroke="none" stroke-width="1" fill="none" fill-rule="evenodd">
        <g id="Group-6" transform="translate(8.000000, 8.000000)">
            <rect id="Rectangle-5" fill="#3FA6EC" x="20.6883117" y="20.6278195" width="33.7142857" height="33.6157059"></rect>
            <rect id="Rectangle-6" fill="#B1D9F3" x="4.5974026" y="3.81996658" width="50.5714286" height="15.2798663"></rect>
            <rect id="Rectangle-4" fill="#B1D9F3" x="2.2987013" y="19.8638262" width="19.1558442" height="34.3796992"></rect>
            <path d="M8.82295646,5.73444395 C7.19869502,5.73444395 5.88197097,7.01814296 5.88197097,8.60166593 L5.88197097,48.7427736 C5.88197097,50.3262964 7.19869502,51.6099956 8.82295646,51.6099956 L49.9967532,51.6099956 C51.6210145,51.6099956 52.9377387,50.3262964 52.9377387,48.7427736 L52.9377387,8.60166593 C52.9377387,7.01814296 51.6210145,5.73444395 49.9967532,5.73444395 L8.82295646,5.73444395 Z M8.82295646,0 L49.9967532,0 C54.8695374,-6.36651171e-16 58.8197097,3.85109701 58.8197097,8.60166593 L58.8197097,48.7427736 C58.8197097,53.4933424 54.8695374,57.3444395 49.9967532,57.3444395 L8.82295646,57.3444395 C3.95017216,57.3444395 6.5302996e-16,53.4933424 0,48.7427736 L0,8.60166593 C-6.5302996e-16,3.85109701 3.95017216,9.54976755e-16 8.82295646,0 Z" id="Rectangle-path" fill="#2C3E50" fill-rule="nonzero"></path>
            <path d="M2.94098549,21.7872918 C1.31672405,21.7872918 0,20.7611374 0,19.4953118 C0,18.2294862 1.31672405,17.2033319 2.94098549,17.2033319 L55.8787242,17.2033319 C57.5029855,17.2033319 58.8197097,18.2294862 58.8197097,19.4953118 C58.8197097,20.7611374 57.5029855,21.7872918 55.8787242,21.7872918 L2.94098549,21.7872918 Z" id="Shape" fill="#2C3E50" fill-rule="nonzero"></path>
            <path d="M22.2433155,53.8215322 C22.2433155,55.3447422 21.2141519,56.5795481 19.9446142,56.5795481 C18.6750765,56.5795481 17.6459129,55.3447422 17.6459129,53.8215322 L17.6459129,20.7253411 C17.6459129,19.202131 18.6750765,17.9673252 19.9446142,17.9673252 C21.2141519,17.9673252 22.2433155,19.202131 22.2433155,20.7253411 L22.2433155,53.8215322 Z" id="Shape" fill="#2C3E50" fill-rule="nonzero"></path>
        </g>
    </g>
</svg>