<?xml version="1.0" encoding="UTF-8"?>
<svg width="94px" height="94px" viewBox="0 0 94 94" version="1.1" xmlns="http://www.w3.org/2000/svg" xmlns:xlink="http://www.w3.org/1999/xlink">
    <!-- Generator: Sketch 49 (51002) - http://www.bohemiancoding.com/sketch -->
    <title>Artboard 3</title>
    <desc>Created with Sketch.</desc>
    <defs>
        <path d="M36.4397192,64.4278835 C34.4066137,63.4672024 33,61.3978673 33,59 C33,55.6862915 35.6862915,53 39,53 C42.3137085,53 45,55.6862915 45,59 C45,61.3978673 43.5933863,63.4672024 41.5602808,64.4278835 L44,75 L34,75 L36.4397192,64.4278835 Z" id="path-1"></path>
    </defs>
    <g id="Artboard-3" stroke="none" stroke-width="1" fill="none" fill-rule="evenodd">
        <g id="icon-lock-color" transform="translate(9.000000, 0.000000)">
            <rect id="Rectangle-3" fill="#E74C3C" x="3" y="41" width="71" height="49"></rect>
            <path d="M11.5147059,41.7941176 C9.39490706,41.7941176 7.67647059,43.4951964 7.67647059,45.5935829 L7.67647059,82.1898396 C7.67647059,84.2882261 9.39490706,85.9893048 11.5147059,85.9893048 L65.25,85.9893048 C67.3697986,85.9893048 69.0882353,84.2882261 69.0882353,82.1898396 L69.0882353,45.5935829 C69.0882353,43.4951964 67.3697986,41.7941176 65.25,41.7941176 L11.5147059,41.7941176 Z M11.5147059,34.1951872 L65.25,34.1951872 C71.6093963,34.1951872 76.7647059,39.2984229 76.7647059,45.5935829 L76.7647059,82.1898396 C76.7647059,88.4849995 71.6093963,93.5882353 65.25,93.5882353 L11.5147059,93.5882353 C5.15530942,93.5882353 8.5225944e-16,88.4849995 0,82.1898396 L0,45.5935829 C-8.5225944e-16,39.2984229 5.15530942,34.1951872 11.5147059,34.1951872 Z" id="Rectangle-path" fill="#2C3E50" fill-rule="nonzero"></path>
            <path d="M23.0294118,37.9946524 C23.0294118,40.0930389 21.3109753,41.7941176 19.1911765,41.7941176 C17.0713777,41.7941176 15.3529412,40.0930389 15.3529412,37.9946524 L15.3529412,22.7967914 C15.3529412,10.2064712 25.66356,2.99730531e-15 38.3823529,8.8817842e-16 C51.1011459,-3.33007537e-15 61.4117647,10.2064712 61.4117647,22.7967914 L61.4117647,37.9946524 C61.4117647,40.0930389 59.693328,41.7941176 57.5735294,41.7941176 C55.4537308,41.7941176 53.7352941,40.0930389 53.7352941,37.9946524 L53.7352941,22.7967914 C53.7352941,14.4032446 46.8615482,7.59893048 38.3823529,7.59893048 C29.9031577,7.59893048 23.0294118,14.4032446 23.0294118,22.7967914 L23.0294118,37.9946524 Z" id="Shape" fill="#2C3E50" fill-rule="nonzero"></path>
            <g id="Combined-Shape" stroke-linejoin="round">
                <use fill="#FD9A8F" fill-rule="evenodd" xlink:href="#path-1"></use>
                <path stroke="#2C3E50" stroke-width="5" d="M33.6096597,65.5734213 C31.680209,63.9906868 30.5,61.6016583 30.5,59 C30.5,54.3055796 34.3055796,50.5 39,50.5 C43.6944204,50.5 47.5,54.3055796 47.5,59 C47.5,61.6016583 46.319791,63.9906868 44.3903403,65.5734213 L47.1426277,77.5 L30.8573723,77.5 L33.6096597,65.5734213 Z"></path>
            </g>
        </g>
    </g>
</svg>