<?xml version="1.0" encoding="UTF-8"?>
<svg width="19px" height="16px" viewBox="0 0 19 16" version="1.1" xmlns="http://www.w3.org/2000/svg" xmlns:xlink="http://www.w3.org/1999/xlink" style="background: #3B5A83;">
    <!-- Generator: Sketch 48.2 (47327) - http://www.bohemiancoding.com/sketch -->
    <title>Artboard 3</title>
    <desc>Created with Sketch.</desc>
    <defs></defs>
    <g id="Page-1" stroke="none" stroke-width="1" fill="none" fill-rule="evenodd">
        <g id="Artboard-3" fill="#FFFFFF" fill-rule="nonzero">
            <path d="M2.7,2 C2.32387587,2 2,2.33340163 2,2.75 L2,13.25 C2,13.6665984 2.32387587,14 2.7,14 L16.3,14 C16.6761241,14 17,13.6665984 17,13.25 L17,2.75 C17,2.33340163 16.6761241,2 16.3,2 L2.7,2 Z M2.7,0 L16.3,0 C17.7938759,0 19,1.24159837 19,2.75 L19,13.25 C19,14.7584016 17.7938759,16 16.3,16 L2.7,16 C1.20612413,16 0,14.7584016 0,13.25 L0,2.75 C0,1.24159837 1.20612413,0 2.7,0 Z" id="Shape-Copy-3"></path>
            <path d="M16.3711,1.22251378 C16.8004938,0.875181914 17.4301544,0.941706246 17.7774862,1.37110003 C18.1248181,1.80049382 18.0582938,2.43015436 17.6289,2.77748622 L10.1289,8.84415289 C9.76211902,9.14083793 9.23788098,9.14083793 8.87110003,8.84415289 L1.37110003,2.77748622 C0.941706246,2.43015436 0.875181914,1.80049382 1.22251378,1.37110003 C1.56984564,0.941706246 2.19950618,0.875181914 2.62889997,1.22251378 L9.5,6.78047025 L16.3711,1.22251378 Z" id="Shape-Copy-4"></path>
        </g>
    </g>
</svg>