<?xml version="1.0" encoding="UTF-8"?>
<svg width="24px" height="24px" viewBox="0 0 24 24" version="1.1" xmlns="http://www.w3.org/2000/svg" xmlns:xlink="http://www.w3.org/1999/xlink">
    <!-- Generator: Sketch 49.1 (51147) - http://www.bohemiancoding.com/sketch -->
    <title>Artboard 3</title>
    <desc>Created with Sketch.</desc>
    <defs></defs>
    <g id="Artboard-3" stroke="none" stroke-width="1" fill="none" fill-rule="evenodd">
        <g class="envelope-icon" transform="translate(2.000000, 4.000000)" fill="#FFF" fill-rule="nonzero">
            <path d="M2.84210526,2.10526316 C2.44618513,2.10526316 2.10526316,2.45621224 2.10526316,2.89473684 L2.10526316,13.9473684 C2.10526316,14.385893 2.44618513,14.7368421 2.84210526,14.7368421 L17.1578947,14.7368421 C17.5538149,14.7368421 17.8947368,14.385893 17.8947368,13.9473684 L17.8947368,2.89473684 C17.8947368,2.45621224 17.5538149,2.10526316 17.1578947,2.10526316 L2.84210526,2.10526316 Z M2.84210526,0 L17.1578947,0 C18.7303957,0 20,1.30694565 20,2.89473684 L20,13.9473684 C20,15.5351596 18.7303957,16.8421053 17.1578947,16.8421053 L2.84210526,16.8421053 C1.26960435,16.8421053 0,15.5351596 0,13.9473684 L0,2.89473684 C0,1.30694565 1.26960435,0 2.84210526,0 Z" id="Shape-Copy-3"></path>
            <path d="M17.2327084,1.28495483 C17.6847001,0.922365435 18.3474981,0.991812036 18.7131091,1.44006815 C19.0787201,1.88832427 19.0086948,2.54564443 18.5567031,2.90823382 L10.6619974,9.24139589 C10.2759137,9.55111365 9.72408633,9.55111365 9.33800264,9.24139589 L1.44329687,2.90823382 C0.991305193,2.54564443 0.921279856,1.88832427 1.2868909,1.44006815 C1.65250195,0.991812036 2.31529992,0.922365435 2.76729159,1.28495483 L10,7.08706018 L17.2327084,1.28495483 Z" id="Shape-Copy-4"></path>
        </g>
    </g>
</svg>