<?xml version="1.0" encoding="UTF-8"?>
<svg width="74px" height="65px" viewBox="0 0 74 65" version="1.1" xmlns="http://www.w3.org/2000/svg" xmlns:xlink="http://www.w3.org/1999/xlink">
    <!-- Generator: Sketch 50.2 (55047) - http://www.bohemiancoding.com/sketch -->
    <title>icon-clockback-color</title>
    <desc>Created with Sketch.</desc>
    <defs></defs>
    <g id="Features-page" stroke="none" stroke-width="1" fill="none" fill-rule="evenodd">
        <g id="icon-clockback-color" transform="translate(0.237500, -0.025455)">
            <circle id="Oval-2" fill="#B1DAF3" cx="40.835291" cy="34.1888176" r="29.1001128"></circle>
            <path d="M15.9426151,25.2032429 L23.1150947,22.0154743 C24.7469132,21.2902216 26.6576969,22.0251384 27.3829496,23.6569569 C28.1082023,25.2887754 27.3732854,27.1995592 25.7414669,27.9248118 L11.1914105,34.3915036 C9.55959203,35.1167562 7.6488083,34.3818394 6.92355562,32.7500209 L0.4568639,18.1999645 C-0.268388773,16.568146 0.466528047,14.6573623 2.09834656,13.9321096 C3.73016507,13.2068569 5.64094881,13.9417738 6.36620148,15.5735923 L9.77693324,23.2477387 C13.7948286,9.85057846 26.2270805,0.229854974 40.7493417,0.229854974 C58.6066178,0.229854974 73.0828003,14.7060375 73.0828003,32.5633136 C73.0828003,50.4205897 58.6066178,64.8967722 40.7493417,64.8967722 C30.2284433,64.8967722 20.5496332,59.8323457 14.5109893,51.4614818 C13.4662565,50.0132566 13.7933517,47.9923147 15.2415769,46.9475819 C16.6898022,45.902849 18.710744,46.2299442 19.7554769,47.6781695 C24.5911853,54.3815052 32.3285652,58.4300805 40.7493417,58.4300805 C55.0351626,58.4300805 66.6161086,46.8491345 66.6161086,32.5633136 C66.6161086,18.2774927 55.0351626,6.6965467 40.7493417,6.6965467 C29.0976092,6.6965467 19.1255646,14.4408603 15.9426151,25.2032429 Z M40.2678107,39.7130248 L40.3795404,39.8247546 L39.9698647,39.8247546 C37.9129769,39.8247546 36.2455399,38.1573175 36.2455399,36.1004297 L37.4373238,16.8829136 C37.5897618,15.6515487 38.635992,14.7268512 39.8767566,14.7268512 C41.1175212,14.7268512 42.1637513,15.6515487 42.3161893,16.8829136 L43.3590003,34.796916 L50.80765,39.5640518 C51.8853477,40.2842617 52.2185851,41.7175571 51.5691419,42.8393228 C50.9196986,43.9610884 49.5107889,44.3857723 48.3495956,43.8097821 L40.2678107,39.7130248 Z" id="Combined-Shape" fill="#2C3E50" fill-rule="nonzero"></path>
        </g>
    </g>
</svg>