<?xml version="1.0" encoding="UTF-8"?>
<svg width="22px" height="23px" viewBox="0 0 22 23" version="1.1" xmlns="http://www.w3.org/2000/svg" xmlns:xlink="http://www.w3.org/1999/xlink">
    <!-- Generator: Sketch 48.2 (47327) - http://www.bohemiancoding.com/sketch -->
    <title>icon-github</title>
    <desc>Created with Sketch.</desc>
    <defs></defs>
    <g id="Symbols" fill-rule="evenodd">
        <g id="icon-github" fill-rule="nonzero">
            <path d="M7.71265211,18.0421737 C8.24164496,17.8834759 8.79912843,18.1836593 8.95782629,18.7126521 C9.11652414,19.241645 8.81634074,19.7991284 8.28734789,19.9578263 C5.29536503,20.8554211 3.61387935,20.1947126 2.05965459,18.2702824 C1.97791514,18.1690732 1.67961761,17.790397 1.6104056,17.7048707 C1.21940206,17.221702 0.98784881,17.0277386 0.757464375,16.9701425 C0.221669467,16.8361938 -0.104091227,16.2932593 0.0298574999,15.7574644 C0.163806227,15.2216695 0.706740717,14.8959088 1.24253563,15.0298575 C2.00752835,15.2211057 2.52205015,15.6521012 3.1651046,16.4467328 C3.24513677,16.5456297 3.54424327,16.9253328 3.61558546,17.0136682 C4.69163668,18.3460273 5.56106042,18.6876512 7.71265211,18.0421737 Z M16,18.13 L16,22 C16,22.5522847 15.5522847,23 15,23 C14.4477153,23 14,22.5522847 14,22 L14.00308,18.0515745 C14.0564459,17.3732041 13.8156539,16.704622 13.3420118,16.2160552 C12.7634872,15.6193012 13.1231893,14.6182285 13.9492211,14.5261549 C17.7180589,14.1060615 19.5,12.6076942 19.5,8.52018382 C19.4997906,7.38066027 19.0614619,6.28483873 18.2757353,5.45952205 C18.0118621,5.18235314 17.9293121,4.77889532 18.0631162,4.42035917 C18.3505677,3.6501155 18.3962586,2.81614188 18.2027941,2.02756394 C18.1325852,2.04343043 18.0555833,2.06314488 17.9716158,2.08731672 C17.3272446,2.27281271 16.5241981,2.66217096 15.5568049,3.31064333 C15.3163417,3.47183293 15.0178259,3.52090675 14.7384155,3.44518059 C12.6177244,2.87042821 10.3822756,2.87042821 8.26158445,3.44518059 C7.98217405,3.52090675 7.68365831,3.47183293 7.44319513,3.31064333 C6.47580192,2.66217096 5.67275541,2.27281271 5.02838423,2.08731672 C4.9444167,2.06314488 4.86741475,2.04343043 4.79720591,2.02756394 C4.60374141,2.81614188 4.64943234,3.6501155 4.93688382,4.42035917 C5.07069048,4.77890224 4.98813459,5.18236801 4.72425058,5.45953688 C3.93266315,6.29097559 3.49388303,7.39670147 3.5,8.55 C3.5,12.5991978 5.26855422,14.0863086 9.06325674,14.5576252 C9.88190173,14.659304 10.2322801,15.6526176 9.65860406,16.2454194 C9.1906659,16.7289582 8.95032666,17.3886127 9,18.13 L9,22 C9,22.5522847 8.55228475,23 8,23 C7.44771525,23 7,22.5522847 7,22 L7.00246419,18.2001592 C6.95592234,17.5384189 7.06095032,16.8827792 7.30065258,16.2796129 C3.55978674,15.4211526 1.5000016,13.1665442 1.50001413,8.55531606 C1.49224131,7.09319784 1.98201917,5.67833877 2.87892438,4.5386057 C2.53730464,3.23744598 2.63637375,1.85309257 3.17086766,0.606051089 C3.28798642,0.332798312 3.52061425,0.125823961 3.80563505,0.0412838915 C3.86290847,0.024296013 3.93275762,0.00892423554 4.01507659,-0.00302492271 C4.95491251,-0.139448493 6.33267133,0.231592831 8.17903312,1.40284681 C10.3626161,0.884539473 12.6373839,0.884539473 14.8209669,1.40284681 C16.6673287,0.231592831 18.0450875,-0.139448493 18.9849234,-0.00302492271 C19.0672424,0.00892423554 19.1370915,0.024296013 19.1943649,0.0412838915 C19.4793858,0.125823961 19.7120136,0.332798312 19.8291323,0.606051089 C20.3636281,1.85309694 20.4626961,3.23745567 20.121072,4.53861936 C21.0104843,5.66887921 21.4997335,7.06998109 21.5,8.52 C21.5,13.1621477 19.4298333,15.4383605 15.7094009,16.2631898 C15.9483905,16.8630072 16.0508078,17.5050805 16,18.13 Z" id="Shape"></path>
        </g>
    </g>
</svg>