<svg width="18" height="24" viewBox="0 0 18 24" fill="none" xmlns="http://www.w3.org/2000/svg">
<path d="M8.72727 5.45455V8.72727L13.0909 4.36364L8.72727 0V3.27273C3.90545 3.27273 0 7.17818 0 12C0 13.7127 0.501818 15.3055 1.35273 16.6473L2.94545 15.0545C2.45455 14.1491 2.18182 13.1018 2.18182 12C2.18182 8.38909 5.11636 5.45455 8.72727 5.45455ZM16.1018 7.35273L14.5091 8.94545C14.9891 9.86182 15.2727 10.8982 15.2727 12C15.2727 15.6109 12.3382 18.5455 8.72727 18.5455V15.2727L4.36364 19.6364L8.72727 24V20.7273C13.5491 20.7273 17.4545 16.8218 17.4545 12C17.4545 10.2873 16.9527 8.69455 16.1018 7.35273Z" fill="currentColor"/>
</svg>
