<?xml version="1.0" encoding="UTF-8"?>
<svg width="77px" height="76px" viewBox="0 0 77 76" version="1.1" xmlns="http://www.w3.org/2000/svg" xmlns:xlink="http://www.w3.org/1999/xlink">
    <!-- Generator: Sketch 49 (51002) - http://www.bohemiancoding.com/sketch -->
    <title>icon-layout-color</title>
    <desc>Created with Sketch.</desc>
    <defs></defs>
    <g id="Page-1" stroke="none" stroke-width="1" fill="none" fill-rule="evenodd">
        <g id="icons-and-illustration" transform="translate(-105.000000, -590.000000)">
            <g id="icon-layout-color" transform="translate(105.000000, 590.000000)">
                <rect id="Rectangle-5" fill="#3FA6EC" x="27" y="27" width="44" height="44"></rect>
                <rect id="Rectangle-6" fill="#B1D9F3" x="6" y="5" width="66" height="20"></rect>
                <rect id="Rectangle-4" fill="#B1D9F3" x="3" y="26" width="25" height="45"></rect>
                <path d="M11.5147059,7.50588235 C9.39490706,7.50588235 7.67647059,9.18613135 7.67647059,11.2588235 L7.67647059,63.8 C7.67647059,65.872692 9.39490706,67.5529412 11.5147059,67.5529412 L65.25,67.5529412 C67.3697986,67.5529412 69.0882353,65.872692 69.0882353,63.8 L69.0882353,11.2588235 C69.0882353,9.18613135 67.3697986,7.50588235 65.25,7.50588235 L11.5147059,7.50588235 Z M11.5147059,0 L65.25,0 C71.6093963,-8.33320341e-16 76.7647059,5.04074699 76.7647059,11.2588235 L76.7647059,63.8 C76.7647059,70.0180764 71.6093963,75.0588235 65.25,75.0588235 L11.5147059,75.0588235 C5.15530942,75.0588235 8.5225944e-16,70.0180764 0,63.8 L0,11.2588235 C-8.5225944e-16,5.04074699 5.15530942,1.24998051e-15 11.5147059,0 Z" id="Rectangle-path" fill="#2C3E50" fill-rule="nonzero"></path>
                <path d="M3.83823529,30.0235294 C1.71843647,30.0235294 0,28.3432804 0,26.2705882 C0,24.1978961 1.71843647,22.5176471 3.83823529,22.5176471 L72.9264706,22.5176471 C75.0462692,22.5176471 76.7647059,24.1978961 76.7647059,26.2705882 C76.7647059,28.3432804 75.0462692,30.0235294 72.9264706,30.0235294 L3.83823529,30.0235294 Z" id="Shape" fill="#2C3E50" fill-rule="nonzero"></path>
                <path d="M30.7058824,70.4476479 C30.7058824,72.4413957 28.9874459,74.057648 26.8676471,74.057648 C24.7478482,74.057648 23.0294118,72.4413957 23.0294118,70.4476479 L23.0294118,27.1276471 C23.0294118,25.1338991 24.7478482,23.5176471 26.8676471,23.5176471 C28.9874459,23.5176471 30.7058824,25.1338991 30.7058824,27.1276471 L30.7058824,70.4476479 Z" id="Shape" fill="#2C3E50" fill-rule="nonzero"></path>
            </g>
        </g>
    </g>
</svg>