<?xml version="1.0" encoding="UTF-8"?>
<svg width="12px" height="12px" viewBox="0 0 12 12" version="1.1" xmlns="http://www.w3.org/2000/svg" xmlns:xlink="http://www.w3.org/1999/xlink">
    <!-- Generator: Sketch 48.2 (47327) - http://www.bohemiancoding.com/sketch -->
    <title>icon-plus-12</title>
    <desc>Created with Sketch.</desc>
    <defs></defs>
    <g id="Symbols" fill-rule="evenodd">
        <g id="icon-plus-12" fill-rule="nonzero">
            <g id="Group">
                <path d="M5,1.27272727 C5,0.569819409 5.44771525,0 6,0 C6.55228475,0 7,0.569819409 7,1.27272727 L7,10.7272727 C7,11.4301806 6.55228475,12 6,12 C5.44771525,12 5,11.4301806 5,10.7272727 L5,1.27272727 Z" id="Shape" transform="translate(6.000000, 6.000000) scale(1, -1) translate(-6.000000, -6.000000) "></path>
                <path d="M5,1.27272727 C5,0.569819409 5.44771525,0 6,0 C6.55228475,0 7,0.569819409 7,1.27272727 L7,10.7272727 C7,11.4301806 6.55228475,12 6,12 C5.44771525,12 5,11.4301806 5,10.7272727 L5,1.27272727 Z" id="Shape-Copy" transform="translate(6.000000, 6.000000) scale(1, -1) rotate(90.000000) translate(-6.000000, -6.000000) "></path>
            </g>
        </g>
    </g>
</svg>