<?xml version="1.0" encoding="UTF-8"?>
<svg width="74px" height="74px" viewBox="0 0 74 74" version="1.1" xmlns="http://www.w3.org/2000/svg" xmlns:xlink="http://www.w3.org/1999/xlink">
    <!-- Generator: Sketch 49.1 (51147) - http://www.bohemiancoding.com/sketch -->
    <title>icon-rocket-color</title>
    <desc>Created with Sketch.</desc>
    <defs>
        <path d="M69.9060088,2.11496994 C69.943113,2.6883367 70.7223,16.2692805 67.0588113,26.1265424 C65.517898,30.2709159 63.9486791,33.0745267 59.6412561,36.8984252 C56.582415,39.6148319 49.2051696,43.0495822 44.2627474,45.808501 C42.4490095,46.8222483 40.5217765,47.8610668 39.4348434,48.5358764 L39.4348434,59.7852014 C39.4348434,60.4217911 39.1555392,61.0267012 38.672094,61.4398986 L30.5855729,69.4745955 C30.1839751,69.8190516 29.6787039,70 29.1647024,70 C28.9377123,70 28.709631,69.9629383 28.4891205,69.893175 C27.7644984,69.657724 27.2155753,69.0614662 27.0410357,68.3224117 L24.3848154,57.1004061 L19.4510554,51.637003 C17.0850523,49.0143406 15.606343,47.3770842 14.7191856,46.282605 L1.69563061,43.3078562 C0.944817314,43.1378082 0.339146707,42.5818823 0.104517553,41.847188 C-0.1312029,41.1146738 0.0379483508,40.3113063 0.549767296,39.7346694 L8.5500758,31.073057 C8.96476919,30.6065834 9.55843551,30.3395209 10.1826582,30.3395209 L22.3244441,30.3395209 C23.0796908,28.9834976 23.9701221,27.2078048 24.9020909,25.3514481 C27.3138603,20.5431656 30.0465397,14.7517935 32.7966117,11.5481339 C36.0945154,7.70563648 39.6281396,5.16901997 43.9213757,3.56773524 C55.6724767,-0.815291188 67.8873796,0.074122196 67.8873796,0.074122196 C68.9764272,0.154785961 69.839576,1.02703104 69.906077,2.11490181 L69.9060088,2.11496994 Z" id="path-1"></path>
        <path d="M20.4066512,52.6213382 L23.6434423,55.5579352 C22.8435206,56.8856853 22.5794263,57.5517064 22.1047115,58.5371124 C19.9373929,63.0335722 17.7755308,65.6442441 6.20558529,65.6442441 L4.06009265,65.6922063 L4.02298851,63.4641423 C4.02298851,52.5146494 6.22959385,50.2179123 10.9111957,47.8862934 C12.0276622,47.3314575 13.1821877,46.8245839 14.437249,45.862069 L17.0945606,49.2510371 C15.5066533,50.4708722 14.0377656,51.2011381 12.8580721,51.7886756 C10.0479787,53.187279 8.64456898,53.9764758 8.42521801,61.3320709 C16.0565994,61.055198 16.9221355,59.1572832 18.2938976,56.3089803 C18.8308164,55.2014886 19.436487,53.9435699 20.4066512,52.6213382 Z" id="path-2"></path>
    </defs>
    <g id="icon-rocket-color" stroke="none" stroke-width="1" fill="none" fill-rule="evenodd">
        <g id="Group-4-Copy-3" transform="translate(2.000000, 2.000000)">
            <polygon id="Path-3" fill="#E1F6A9" points="16.0935255 47.5718391 11.4498024 50.9230199 5.23302802 54.6081403 3.75897989 64.7944729 14.6996228 64.7944729 22.7157417 53.2770968"></polygon>
            <g id="Path" stroke-linecap="round" stroke-linejoin="round">
                <use fill="#2C3E50" fill-rule="evenodd" xlink:href="#path-1"></use>
                <path stroke="#2C3E50" stroke-width="1" d="M39.9348434,48.8161761 L39.9348434,59.7852014 C39.9348434,60.5676879 39.5917807,61.3115909 39.024509,61.7945867 L30.9110935,69.8541166 C30.4228753,70.2728683 29.8035138,70.5 29.1647024,70.5 C28.888069,70.5 28.6092376,70.4556028 28.3346078,70.3687019 C27.4443647,70.0794358 26.7692068,69.346799 26.5544798,68.4375783 L23.9277941,57.3403502 L19.0798033,51.9719236 C16.0612643,48.6259396 15.1811493,47.6375996 14.4401058,46.7317368 L1.58518536,43.7955055 C0.661456246,43.5862947 -0.0832997263,42.9026268 -0.371445693,42.0003513 C-0.661401828,41.0992967 -0.453268991,40.111519 0.182470716,39.3954155 L8.17639109,30.7408527 C8.68609977,30.1674998 9.41582541,29.8395209 10.1826582,29.8395209 L22.0297524,29.8395209 C22.6000147,28.8031459 23.163705,27.6996816 24.4551613,25.1272743 C24.6157339,24.8071448 26.0709029,21.8836584 26.5144105,21.0056309 C28.9277522,16.2278549 30.6563262,13.273792 32.4171949,11.2224916 C35.7702547,7.31572995 39.3739226,4.73019127 43.7466403,3.09926159 C44.1771289,2.93869429 44.6120052,2.78371958 45.0511145,2.6342588 C52.7093968,0.0275890912 60.663334,-0.719082394 67.1816937,-0.462552147 C67.5405049,-0.448431123 67.7910062,-0.434218827 67.9243125,-0.424511898 C69.2627188,-0.325378591 70.3233762,0.746753924 70.4051454,2.08439401 L70.4049652,2.0826811 C70.4376548,2.587831 70.475546,3.54140057 70.491917,4.71551883 C70.5179105,6.57975312 70.4838437,8.58598043 70.3693775,10.6667596 C70.0464693,16.5366204 69.1556794,21.9197967 67.5274658,26.3007922 C65.7751944,31.0136249 63.9962804,33.7008668 59.973263,37.2722853 C58.5362267,38.5484468 56.2155831,39.9852697 52.6350715,41.9186482 C51.9874356,42.2683539 51.3011004,42.6333211 50.4745859,43.0685724 C50.0884315,43.2719254 47.9584524,44.3885515 47.366949,44.7008703 C46.2068678,45.3134029 45.3091912,45.7969893 44.5066926,46.2449535 C44.330715,46.3432323 44.330715,46.3432323 44.1541248,46.4415729 C44.004473,46.5248176 44.004473,46.5248176 43.8547177,46.6079704 C43.5651072,46.7687177 43.2503867,46.9428868 42.6570706,47.2711299 C42.1789547,47.5358237 41.8416661,47.7232871 41.5232542,47.9016739 C40.8511428,48.2782171 40.3360518,48.5741164 39.9348434,48.8161761 Z"></path>
            </g>
            <path d="M62.9641233,24.6078972 C65.5340628,17.6980647 65.6856851,8.37703969 65.6147507,4.35693207 C61.8148497,4.32859075 53.5024299,4.6447055 45.4476247,7.65106581 C41.8277879,9.00272889 38.9467601,11.0792758 36.1104756,14.3854682 C33.709551,17.1847189 30.9900354,22.9477497 28.8042329,27.304683 C27.5132269,29.8772031 26.3990112,32.0987949 25.4386687,33.6608378 C25.0425273,34.3060798 24.3375486,34.6996563 23.5790962,34.6996563 L11.1633944,34.6996563 L6.25909945,39.8773979 L16.2575753,42.1620764 C16.7322901,42.2710815 17.15244,42.5326937 17.4558209,42.9011309 C17.9207823,43.4341658 23.9840361,50.1511274 27.9977634,54.5941748 C28.2443968,54.8666875 28.4179133,55.1969048 28.5020115,55.5522614 L30.4630747,63.836648 L35.0682857,58.782014 L35.0682857,47.3877122 C35.0682857,46.7315016 35.3630044,46.1123527 35.8704582,45.6992234 C36.7533186,44.9776097 38.7678554,43.8810867 42.1312371,42.0028609 C46.6372081,39.4859334 54.0351199,36.0391926 56.7404486,33.6389005 C60.4017547,30.3872107 61.6196437,28.2236641 62.9641233,24.6078972 Z" id="Path" fill="#BDDC66"></path>
            <path d="M56.9138286,21.7140846 C56.9138286,26.5353796 52.9862457,30.4584727 48.1605243,30.4584727 C43.3348028,30.4584727 39.4061286,26.5364697 39.4061286,21.7140165 C39.4061286,16.8938115 43.3337115,12.9707866 48.1605243,12.9707866 C52.9851544,12.9707866 56.9138286,16.8938797 56.9138286,21.7140846 Z" id="Path" fill="#2C3E50"></path>
            <path d="M52.5311743,21.7140165 C52.5311743,19.3082742 50.5701111,17.3483628 48.1605243,17.3483628 C45.7509374,17.3483628 43.7898742,19.3082742 43.7898742,21.7140165 C43.7898742,24.1208488 45.7509374,26.0797384 48.1605243,26.0797384 C50.5701111,26.0797384 52.530083,24.1219389 52.5311743,21.7140165 Z" id="Path" fill="#E1F6A9"></path>
            <g id="Path" stroke-linecap="round" stroke-linejoin="round">
                <use fill="#2C3E50" fill-rule="evenodd" xlink:href="#path-2"></use>
                <path stroke="#2C3E50" stroke-width="0.5" d="M8.68349993,61.071932 C14.5704476,60.8313894 16.2832182,59.8336726 17.7880698,56.7792799 C17.86307,56.6270522 17.8998832,56.5509449 18.0689403,56.1999196 C18.9326634,54.4183352 19.3943598,53.5783825 20.2050884,52.4734449 L20.3691888,52.2497934 L23.9636507,55.5108894 L23.8575824,55.6869469 C23.3930189,56.4580525 23.1072732,57.000165 22.7531254,57.7493047 C22.7261789,57.8063696 22.7261789,57.8063696 22.6992576,57.8635894 C22.523655,58.2387812 22.4310837,58.4356594 22.3299158,58.6456621 C19.6467988,64.2122308 16.5206991,65.8942441 6.21117261,65.8941816 L3.8143138,65.9477631 L3.81012731,65.696369 L3.77298851,63.4641423 C3.77298851,53.4466562 5.32994002,50.3866851 10.7999377,47.6624148 C10.895992,47.6146799 10.9605148,47.58292 11.1213735,47.5040917 C12.7847628,46.6899635 13.3719688,46.3639854 14.2851112,45.6636904 L14.4813705,45.5131778 L17.4470922,49.2954728 L17.2468603,49.4492916 C15.9271092,50.4631281 14.905796,51.0481122 12.9694647,52.0124873 C9.628956,53.6750821 8.88596456,54.9303026 8.68349993,61.071932 Z"></path>
            </g>
        </g>
    </g>
</svg>