<svg width="18" height="15" viewBox="0 0 18 15" xmlns="http://www.w3.org/2000/svg">
<path d="M7.5 1.52979H13.5C14.325 1.52979 15 2.20479 15 3.02979V4.96468C14.5282 4.78025 14.0247 4.65913 13.5 4.6118V3.02979H1.5V10.5298H7.51766C7.55925 11.0538 7.6744 11.5573 7.85278 12.0298H1.5C0.675 12.0298 0 11.3548 0 10.5298L0.00749999 1.52979C0.00749999 0.704785 0.675 0.0297852 1.5 0.0297852H6L7.5 1.52979Z" fill="currentColor"/>
<path fill-rule="evenodd" clip-rule="evenodd" d="M13.0001 5.50586C10.4701 5.50586 8.41675 7.55919 8.41675 10.0892C8.41675 12.6192 10.4701 14.6725 13.0001 14.6725C15.5301 14.6725 17.5834 12.6192 17.5834 10.0892C17.5834 7.55919 15.5301 5.50586 13.0001 5.50586ZM15.2917 10.5475H13.4584V12.3809H12.5417V10.5475H10.7084V9.63086H12.5417V7.79753H13.4584V9.63086H15.2917V10.5475Z" fill="currentColor"/>
</svg>
