<svg width="15" height="17" viewBox="0 0 15 17" xmlns="http://www.w3.org/2000/svg">
<path d="M7.125 7.62082V3.75H8.25V7.09425C7.85286 7.22759 7.47592 7.40506 7.125 7.62082Z" fill="currentColor"/>
<path d="M5.28577 15.1424C4.92876 15.2922 4.53659 15.375 4.125 15.375C2.4675 15.375 1.125 14.0325 1.125 12.375V3C1.125 1.965 1.965 1.125 3 1.125C4.035 1.125 4.875 1.965 4.875 3V10.3111C5.13433 9.64709 5.51905 9.04568 6 8.53605V3C6 1.3425 4.6575 0 3 0C1.3425 0 0 1.3425 0 3V12.375C0 14.655 1.845 16.5 4.125 16.5C4.79226 16.5 5.42227 16.342 5.97967 16.0613C5.71779 15.7808 5.4849 15.4729 5.28577 15.1424Z" fill="currentColor"/>
<path d="M4.51459 12.7094C4.3889 12.736 4.25857 12.75 4.125 12.75C3.09 12.75 2.25 11.91 2.25 10.875V3.75H3.375V10.875C3.375 11.2875 3.7125 11.625 4.125 11.625C4.28767 11.625 4.43868 11.5725 4.56193 11.4836C4.5213 11.753 4.50024 12.0288 4.50024 12.3095C4.50024 12.444 4.50508 12.5773 4.51459 12.7094Z" fill="currentColor"/>
<path fill-rule="evenodd" clip-rule="evenodd" d="M10.0001 7.72607C7.47008 7.72607 5.41675 9.77941 5.41675 12.3094C5.41675 14.8394 7.47008 16.8927 10.0001 16.8927C12.5301 16.8927 14.5834 14.8394 14.5834 12.3094C14.5834 9.77941 12.5301 7.72607 10.0001 7.72607ZM12.2917 12.7677H10.4584V14.6011H9.54175V12.7677H7.70841V11.8511H9.54175V10.0177H10.4584V11.8511H12.2917V12.7677Z" fill="currentColor"/>
</svg>
