<svg width="21" height="21" viewBox="0 0 21 21" fill="none" xmlns="http://www.w3.org/2000/svg">
<path fill-rule="evenodd" clip-rule="evenodd" d="M10.3384 0.839844C4.81838 0.839844 0.338379 5.31984 0.338379 10.8398C0.338379 16.3598 4.81838 20.8398 10.3384 20.8398C15.8584 20.8398 20.3384 16.3598 20.3384 10.8398C20.3384 5.31984 15.8584 0.839844 10.3384 0.839844ZM9.33838 18.7698C5.38838 18.2798 2.33838 14.9198 2.33838 10.8398C2.33838 10.2198 2.41838 9.62984 2.54838 9.04984L7.33838 13.8398V14.8398C7.33838 15.9398 8.23838 16.8398 9.33838 16.8398V18.7698ZM16.2384 16.2298C15.9784 15.4198 15.2384 14.8398 14.3384 14.8398H13.3384V11.8398C13.3384 11.2898 12.8884 10.8398 12.3384 10.8398H6.33838V8.83984H8.33838C8.88838 8.83984 9.33838 8.38984 9.33838 7.83984V5.83984H11.3384C12.4384 5.83984 13.3384 4.93984 13.3384 3.83984V3.42984C16.2684 4.61984 18.3384 7.48984 18.3384 10.8398C18.3384 12.9198 17.5384 14.8098 16.2384 16.2298Z" fill="currentColor"/>
</svg>
