<svg width="24" height="24" viewBox="0 0 24 24" fill="none" xmlns="http://www.w3.org/2000/svg">
<path d="M9.72137 19.4286L13.1676 15.9824L14.5818 17.3966L11.1356 20.8428C8.81693 23.1614 5.05765 23.1614 2.73899 20.8428C0.420336 18.5241 0.420336 14.7648 2.73899 12.4462L6.18517 9L7.59939 10.4142L4.15321 13.8604C2.6156 15.398 2.6156 17.891 4.15321 19.4286C5.69082 20.9662 8.18377 20.9662 9.72137 19.4286Z" fill="black"/>
<path d="M13.8607 4.15346L10.4145 7.59964L9.00027 6.18543L12.4464 2.73924C14.7651 0.420587 18.5244 0.420595 20.843 2.73925C23.1617 5.05791 23.1617 8.81719 20.843 11.1358L17.3969 14.582L15.9826 13.1678L19.4288 9.72164C20.9664 8.18403 20.9664 5.69107 19.4288 4.15346C17.8912 2.61585 15.3983 2.61585 13.8607 4.15346Z" fill="black"/>
<path fill-rule="evenodd" clip-rule="evenodd" d="M15.4853 7.9677C15.8758 8.35822 15.8758 8.99139 15.4853 9.38191L9.12132 15.7459C8.73079 16.1364 8.09763 16.1364 7.7071 15.7459C7.31658 15.3553 7.31658 14.7222 7.7071 14.3317L14.0711 7.9677C14.4616 7.57717 15.0948 7.57717 15.4853 7.9677Z" fill="black"/>
</svg>
