<?xml version="1.0" encoding="UTF-8"?>
<svg width="24px" height="24px" viewBox="0 0 24 24" version="1.1" xmlns="http://www.w3.org/2000/svg" xmlns:xlink="http://www.w3.org/1999/xlink" style="background: #3B5A83;">
    <!-- Generator: Sketch 48.2 (47327) - http://www.bohemiancoding.com/sketch -->
    <title>Artboard 3</title>
    <desc>Created with Sketch.</desc>
    <defs></defs>
    <g id="Page-1" stroke="none" stroke-width="1" fill="none" fill-rule="evenodd">
        <g id="Artboard-3" fill="#FFFFFF" fill-rule="nonzero">
            <g id="Group" transform="translate(3.000000, 4.000000)">
                <path d="M2.7,2 C2.32387587,2 2,2.33340163 2,2.75 L2,13.25 C2,13.6665984 2.32387587,14 2.7,14 L16.3,14 C16.6761241,14 17,13.6665984 17,13.25 L17,2.75 C17,2.33340163 16.6761241,2 16.3,2 L2.7,2 Z M2.7,0 L16.3,0 C17.7938759,0 19,1.24159837 19,2.75 L19,13.25 C19,14.7584016 17.7938759,16 16.3,16 L2.7,16 C1.20612413,16 0,14.7584016 0,13.25 L0,2.75 C0,1.24159837 1.20612413,0 2.7,0 Z" id="Shape-Copy-3"></path>
                <path d="M25.371073,8.22070708 C25.8004651,7.87624716 26.4301231,7.94222143 26.7774536,8.36806474 C27.1247841,8.79390805 27.0582601,9.4183622 26.628868,9.76282213 L19.1288975,15.7793261 C18.762118,16.073558 18.237882,16.073558 17.8711025,15.7793261 L10.371132,9.76282213 C9.94173993,9.4183622 9.87521586,8.79390805 10.2225464,8.36806474 C10.5698769,7.94222143 11.1995349,7.87624716 11.628927,8.22070708 L18.5,13.7327072 L25.371073,8.22070708 Z" id="Shape-Copy-4"></path>
            </g>
        </g>
    </g>
</svg>