<?xml version="1.0" encoding="UTF-8"?>
<svg width="22px" height="23px" viewBox="0 0 22 23" version="1.1" xmlns="http://www.w3.org/2000/svg" xmlns:xlink="http://www.w3.org/1999/xlink">
    <!-- Generator: Sketch 48.2 (47327) - http://www.bohemiancoding.com/sketch -->
    <title>Artboard 3</title>
    <desc>Created with Sketch.</desc>
    <defs></defs>
    <g id="Page-1" stroke="none" stroke-width="1" fill="none" fill-rule="evenodd">
        <g id="Artboard-3" fill="#FFFFFF" fill-rule="nonzero">
            <g id="Group" transform="translate(0.000000, 2.000000)">
                <path d="M3.12631579,2.31578947 C2.69080364,2.31578947 2.31578947,2.70183347 2.31578947,3.18421053 L2.31578947,15.3421053 C2.31578947,15.8244823 2.69080364,16.2105263 3.12631579,16.2105263 L18.8736842,16.2105263 C19.3091964,16.2105263 19.6842105,15.8244823 19.6842105,15.3421053 L19.6842105,3.18421053 C19.6842105,2.70183347 19.3091964,2.31578947 18.8736842,2.31578947 L3.12631579,2.31578947 Z M3.12631579,0 L18.8736842,0 C20.6034352,0 22,1.43764022 22,3.18421053 L22,15.3421053 C22,17.0886756 20.6034352,18.5263158 18.8736842,18.5263158 L3.12631579,18.5263158 C1.39656478,18.5263158 0,17.0886756 0,15.3421053 L0,3.18421053 C0,1.43764022 1.39656478,0 3.12631579,0 Z" id="Shape-Copy-3"></path>
                <path d="M18.9559792,1.41345031 C19.4531701,1.01460198 20.1822479,1.09099324 20.58442,1.58407497 C20.9865922,2.07715669 20.9095643,2.80020887 20.4123734,3.1990572 L11.7281971,10.1655355 C11.303505,10.506225 10.696495,10.506225 10.2718029,10.1655355 L1.58762656,3.1990572 C1.09043571,2.80020887 1.01340784,2.07715669 1.41557999,1.58407497 C1.81775214,1.09099324 2.54682991,1.01460198 3.04402075,1.41345031 L11,7.79576619 L18.9559792,1.41345031 Z" id="Shape-Copy-4"></path>
            </g>
        </g>
    </g>
</svg>