<?xml version="1.0" encoding="UTF-8" standalone="no"?>
<svg width="20px" height="20px" viewBox="0 0 20 20" version="1.1" xmlns="http://www.w3.org/2000/svg" xmlns:xlink="http://www.w3.org/1999/xlink">    <!-- Generator: Sketch 3.7.2 (28276) - http://www.bohemiancoding.com/sketch -->
  <title>book</title>
  <desc>Created with Sketch.</desc>
  <defs></defs>
  <g id="Page-1" stroke="none" stroke-width="1" fill="none" fill-rule="evenodd">
      <g id="book" fill="#ffffff">
          <path d="M19.4153125,16.18125 L10.3709375,19.92375 C10.2571875,19.9728125 10.131875,20 10,20 C9.868125,20 9.7428125,19.9728125 9.6290625,19.92375 L0.5846875,16.18125 C0.241875,16.0415625 0,15.705625 0,15.3125 L0,0.9375 C0,0.4196875 0.4196875,0 0.9375,0 C1.064375,0 1.185625,0.025625 1.2959375,0.07125 L1.2975,0.071875 C1.3003125,0.073125 1.303125,0.0740625 1.3059375,0.0753125 L10,3.6728125 L18.6940625,0.0753125 C18.696875,0.0740625 18.6996875,0.073125 18.7025,0.071875 L18.7040625,0.07125 C18.8146875,0.025625 18.935625,0 19.0625,0 C19.5803125,0 20,0.4196875 20,0.9375 L20,15.3125 C20,15.705625 19.758125,16.0415625 19.4153125,16.18125 L19.4153125,16.18125 Z M9.0625,17.66 L9.0625,5.3140625 L1.875,2.34 L1.875,14.6859375 L9.0625,17.66 L9.0625,17.66 Z M18.125,2.34 L10.9375,5.3140625 L10.9375,17.66 L18.125,14.6859375 L18.125,2.34 L18.125,2.34 Z"></path>
      </g>
  </g>
</svg>