<?xml version="1.0" encoding="UTF-8"?>
<svg width="22px" height="21px" viewBox="0 0 22 21" version="1.1" xmlns="http://www.w3.org/2000/svg" xmlns:xlink="http://www.w3.org/1999/xlink">
    <!-- Generator: Sketch 50.2 (55047) - http://www.bohemiancoding.com/sketch -->
    <title>icon-checkbox</title>
    <desc>Created with Sketch.</desc>
    <defs></defs>
    <g id="Features-page" stroke="none" stroke-width="1" fill="none" fill-rule="evenodd">
        <g id="Features---desktop---v3" transform="translate(-37.000000, -1717.000000)" fill="#2C3E50" fill-rule="nonzero">
            <g id="icon-checkbox" transform="translate(37.000000, 1717.000000)">
                <path d="M19.9257231,2.16606818 C20.3162474,1.77554389 20.9494124,1.77554389 21.3399367,2.16606818 C21.730461,2.55659248 21.730461,3.18975745 21.3399367,3.58028175 L11.3399367,13.5802817 C10.9494124,13.970806 10.3162474,13.970806 9.92572311,13.5802817 L6.92572311,10.5802817 C6.53519882,10.1897575 6.53519882,9.55659248 6.92572311,9.16606818 C7.31624741,8.77554389 7.94941238,8.77554389 8.33993668,9.16606818 L10.6328299,11.4589614 L19.9257231,2.16606818 Z" id="Shape"></path>
                <path d="M18.6328299,10.873175 C18.6328299,10.3208902 19.0805451,9.87317496 19.6328299,9.87317496 C20.1851146,9.87317496 20.6328299,10.3208902 20.6328299,10.873175 L20.6328299,17.873175 C20.6328299,19.5300292 19.2896841,20.873175 17.6328299,20.873175 L3.63282989,20.873175 C1.97597565,20.873175 0.632829895,19.5300292 0.632829895,17.873175 L0.632829895,3.87317496 C0.632829895,2.21632072 1.97597565,0.873174965 3.63282989,0.873174965 L14.6328299,0.873174965 C15.1851146,0.873174965 15.6328299,1.32089022 15.6328299,1.87317496 C15.6328299,2.42545971 15.1851146,2.87317496 14.6328299,2.87317496 L3.63282989,2.87317496 C3.08054515,2.87317496 2.63282989,3.32089022 2.63282989,3.87317496 L2.63282989,17.873175 C2.63282989,18.4254597 3.08054515,18.873175 3.63282989,18.873175 L17.6328299,18.873175 C18.1851146,18.873175 18.6328299,18.4254597 18.6328299,17.873175 L18.6328299,10.873175 Z" id="Shape"></path>
            </g>
        </g>
    </g>
</svg>