<?xml version="1.0" encoding="UTF-8"?>
<svg width="22px" height="22px" viewBox="0 0 22 22" version="1.1" xmlns="http://www.w3.org/2000/svg" xmlns:xlink="http://www.w3.org/1999/xlink">
    <!-- Generator: Sketch 50.2 (55047) - http://www.bohemiancoding.com/sketch -->
    <title>icon-clock</title>
    <desc>Created with Sketch.</desc>
    <defs></defs>
    <g id="Features-page" stroke="none" stroke-width="1" fill="none" fill-rule="evenodd">
        <g id="Features---desktop---v3" transform="translate(-525.000000, -1293.000000)" fill="#2C3E50" fill-rule="nonzero">
            <g id="icon-clock" transform="translate(525.000000, 1293.000000)">
                <path d="M10.5162643,21.524171 C4.70829188,21.524171 0,16.8158791 0,11.0079067 C0,5.19993436 4.70829188,0.491642475 10.5162643,0.491642475 C16.3242366,0.491642475 21.0325285,5.19993436 21.0325285,11.0079067 C21.0325285,16.8158791 16.3242366,21.524171 10.5162643,21.524171 Z M10.5162643,19.524171 C15.2196671,19.524171 19.0325285,15.7113096 19.0325285,11.0079067 C19.0325285,6.30450386 15.2196671,2.49164247 10.5162643,2.49164247 C5.81286138,2.49164247 2,6.30450386 2,11.0079067 C2,15.7113096 5.81286138,19.524171 10.5162643,19.524171 Z" id="Oval"></path>
                <path d="M14.7699836,12.0167324 C15.2639621,12.2637216 15.4641864,12.8643947 15.2171972,13.3583732 C14.9702079,13.8523517 14.3695349,14.052576 13.8755564,13.8055868 L10.0690507,11.9023339 C9.73026664,11.7329419 9.51626426,11.3866788 9.51626426,11.0079067 L9.51626426,5.29814818 C9.51626426,4.74586343 9.96397951,4.29814818 10.5162643,4.29814818 C11.068549,4.29814818 11.5162643,4.74586343 11.5162643,5.29814818 L11.5162643,10.3898727 L14.7699836,12.0167324 Z" id="Shape"></path>
            </g>
        </g>
    </g>
</svg>