<?xml version="1.0" encoding="UTF-8"?>
<svg width="66px" height="65px" viewBox="0 0 66 65" version="1.1" xmlns="http://www.w3.org/2000/svg" xmlns:xlink="http://www.w3.org/1999/xlink">
    <!-- Generator: Sketch 50.2 (55047) - http://www.bohemiancoding.com/sketch -->
    <title>icon-two-squares-color</title>
    <desc>Created with Sketch.</desc>
    <defs></defs>
    <g id="Features-page" stroke="none" stroke-width="1" fill="none" fill-rule="evenodd">
        <g id="icon-two-squares-color" transform="translate(-0.002424, 0.000000)">
            <path d="M42.5365984,14.4883875 L28.5257955,14.4883875 C21.1486099,14.4883875 15.1682194,20.468778 15.1682194,27.8459635 L15.1682194,41.8567664 L5.9480454,41.8567664 C4.8434759,41.8567664 3.9480454,40.9613359 3.9480454,39.8567664 L3.9480454,5.26821344 C3.9480454,4.16364394 4.8434759,3.26821344 5.9480454,3.26821344 L40.5365984,3.26821344 C41.6411679,3.26821344 42.5365984,4.16364394 42.5365984,5.26821344 L42.5365984,14.4883875 Z" id="Combined-Shape" fill="#FD9A8F"></path>
            <rect id="Rectangle-path-Copy-3" fill="#E74C3C" x="25.3599375" y="24.6801056" width="37.3216719" height="37.3216719" rx="2"></rect>
            <path d="M28.5257955,27.8459635 L28.5257955,58.8359195 L59.5157515,58.8359195 L59.5157515,27.8459635 L28.5257955,27.8459635 Z M28.5257955,21.9092631 L59.5157515,21.9092631 C62.7945006,21.9092631 65.4524519,24.5672144 65.4524519,27.8459635 L65.4524519,58.8359195 C65.4524519,62.1146686 62.7945006,64.77262 59.5157515,64.77262 L28.5257955,64.77262 C25.2470463,64.77262 22.589095,62.1146686 22.589095,58.8359195 L22.589095,27.8459635 C22.589095,24.5672144 25.2470463,21.9092631 28.5257955,21.9092631 Z" id="Rectangle-path-Copy" fill="#2C3E50" fill-rule="nonzero"></path>
            <path d="M12.8530961,38.8884162 C14.4924706,38.8884162 15.8214463,40.2173918 15.8214463,41.8567664 C15.8214463,43.496141 14.4924706,44.8251166 12.8530961,44.8251166 L9.88474586,44.8251166 C4.96662217,44.8251166 0.979695174,40.8381896 0.979695174,35.9200659 L0.979695174,9.20491389 C0.979695174,4.2867902 4.96662217,0.299863211 9.88474586,0.299863211 L36.5998979,0.299863211 C41.5180216,0.299863211 45.5049486,4.2867902 45.5049486,9.20491389 L45.5049486,12.1732641 C45.5049486,13.8126387 44.1759729,15.1416143 42.5365984,15.1416143 C40.8972238,15.1416143 39.5682481,13.8126387 39.5682481,12.1732641 L39.5682481,9.20491389 C39.5682481,7.56553933 38.2392725,6.23656367 36.5998979,6.23656367 L9.88474586,6.23656367 C8.24537129,6.23656367 6.91639563,7.56553933 6.91639563,9.20491389 L6.91639563,35.9200659 C6.91639563,37.5594405 8.24537129,38.8884162 9.88474586,38.8884162 L12.8530961,38.8884162 Z" id="Shape-Copy" fill="#2C3E50" fill-rule="nonzero"></path>
        </g>
    </g>
</svg>