<?xml version="1.0" encoding="UTF-8"?>
<svg width="22px" height="22px" viewBox="0 0 22 22" version="1.1" xmlns="http://www.w3.org/2000/svg" xmlns:xlink="http://www.w3.org/1999/xlink">
    <!-- Generator: Sketch 50.2 (55047) - http://www.bohemiancoding.com/sketch -->
    <title>icon-star</title>
    <desc>Created with Sketch.</desc>
    <defs></defs>
    <g id="Features-page" stroke="none" stroke-width="1" fill="none" fill-rule="evenodd">
        <g id="Features---desktop---v3" transform="translate(-35.000000, -1274.000000)" fill="#2C3E50" fill-rule="nonzero">
            <path d="M48.9453718,1282.53375 C48.6200176,1282.4862 48.3388324,1282.28174 48.1932927,1281.98689 L46,1277.54352 L43.8067073,1281.98689 C43.6611676,1282.28174 43.3799824,1282.4862 43.0546282,1282.53375 L38.1484117,1283.25087 L41.6977328,1286.70791 C41.9336065,1286.93765 42.0412692,1287.26878 41.9856086,1287.59331 L41.1481808,1292.47594 L45.5345487,1290.16919 C45.8259316,1290.01596 46.1740684,1290.01596 46.4654513,1290.16919 L50.8518192,1292.47594 L50.0143914,1287.59331 C49.9587308,1287.26878 50.0663935,1286.93765 50.3022672,1286.70791 L53.8515883,1283.25087 L48.9453718,1282.53375 Z M56.1446282,1281.56478 C56.9645429,1281.68462 57.2913263,1282.69246 56.6977328,1283.27062 L52.0745218,1287.77363 L53.1656086,1294.13522 C53.3057271,1294.95218 52.4481783,1295.57515 51.7145487,1295.18934 L46,1292.18412 L40.2854513,1295.18934 C39.5518217,1295.57515 38.6942729,1294.95218 38.8343914,1294.13522 L39.9254782,1287.77363 L35.3022672,1283.27062 C34.7086737,1282.69246 35.0354571,1281.68462 35.8553718,1281.56478 L42.2457386,1280.63073 L45.1032927,1274.84164 C45.470128,1274.09847 46.529872,1274.09847 46.8967073,1274.84164 L49.7542614,1280.63073 L56.1446282,1281.56478 Z" id="icon-star"></path>
        </g>
    </g>
</svg>