<svg width="20" height="24" viewBox="0 0 20 24" fill="none" xmlns="http://www.w3.org/2000/svg">
<path d="M19.2647 6.00599C19.2647 4.01598 17.6583 2.40959 15.6683 2.40959C13.6783 2.40959 12.0719 4.01598 12.0719 6.00599C12.0719 7.43257 12.9111 8.66733 14.1219 9.24276C13.4266 10.3457 11.9401 12.1678 9.68631 12.1678C7.56444 12.1678 5.94605 13.1868 4.7952 14.3497V6.97702C6.18581 6.48551 7.19281 5.16683 7.19281 3.5964C7.19281 1.60639 5.58641 0 3.5964 0C1.60639 0 0 1.60639 0 3.5964C0 5.16683 1.00699 6.48551 2.3976 6.97702V17.023C1.00699 17.5145 0 18.8332 0 20.4036C0 22.3936 1.60639 24 3.5964 24C5.58641 24 7.19281 22.3936 7.19281 20.4036C7.19281 19.0969 6.48551 17.958 5.44256 17.3347C6.20979 16.1838 7.63636 14.5774 9.68631 14.5774C14.3856 14.5774 16.6274 9.72228 16.7592 9.43456C18.2098 8.96703 19.2647 7.62438 19.2647 6.01798V6.00599ZM3.58442 2.3976C4.24376 2.3976 4.78322 2.93706 4.78322 3.5964C4.78322 4.25574 4.24376 4.7952 3.58442 4.7952C2.92507 4.7952 2.38561 4.25574 2.38561 3.5964C2.38561 2.93706 2.92507 2.3976 3.58442 2.3976ZM3.58442 21.6144C2.92507 21.6144 2.38561 21.0749 2.38561 20.4156C2.38561 19.7562 2.92507 19.2168 3.58442 19.2168C4.24376 19.2168 4.78322 19.7562 4.78322 20.4156C4.78322 21.0749 4.24376 21.6144 3.58442 21.6144ZM15.6563 7.21678C14.997 7.21678 14.4575 6.67732 14.4575 6.01798C14.4575 5.35864 14.997 4.81918 15.6563 4.81918C16.3157 4.81918 16.8551 5.35864 16.8551 6.01798C16.8551 6.67732 16.3157 7.21678 15.6563 7.21678Z" fill="currentColor"/>
</svg>
