<?xml version="1.0" encoding="UTF-8"?>
<svg width="24px" height="24px" viewBox="0 0 24 24" version="1.1" xmlns="http://www.w3.org/2000/svg" xmlns:xlink="http://www.w3.org/1999/xlink">
    <!-- Generator: Sketch 48.2 (47327) - http://www.bohemiancoding.com/sketch -->
    <title>icon-branch</title>
    <desc>Created with Sketch.</desc>
    <defs></defs>
    <g id="Page-1" stroke="none" stroke-width="1" fill="none" fill-rule="evenodd">
        <g id="icon-branch" fill="currentColor" fill-rule="nonzero">
            <g transform="translate(2.000000, 4.000000)">
                <path d="M16,8 C13.790861,8 12,6.209139 12,4 C12,1.790861 13.790861,8.8817842e-16 16,8.8817842e-16 C18.209139,8.8817842e-16 20,1.790861 20,4 C20,6.209139 18.209139,8 16,8 Z M16,6 C17.1045695,6 18,5.1045695 18,4 C18,2.8954305 17.1045695,2 16,2 C14.8954305,2 14,2.8954305 14,4 C14,5.1045695 14.8954305,6 16,6 Z" id="Oval" transform="translate(16.000000, 4.000000) scale(1, -1) translate(-16.000000, -4.000000) "></path>
                <path d="M4,20 C1.790861,20 0,18.209139 0,16 C0,13.790861 1.790861,12 4,12 C6.209139,12 8,13.790861 8,16 C8,18.209139 6.209139,20 4,20 Z M4,18 C5.1045695,18 6,17.1045695 6,16 C6,14.8954305 5.1045695,14 4,14 C2.8954305,14 2,14.8954305 2,16 C2,17.1045695 2.8954305,18 4,18 Z" id="Oval" transform="translate(4.000000, 16.000000) scale(1, -1) translate(-4.000000, -16.000000) "></path>
                <path d="M5,13 C5,13.5522847 4.55228475,14 4,14 C3.44771525,14 3,13.5522847 3,13 L3,1 C3,-0.333333333 5,-0.333333333 5,1 C5,5.418278 8.581722,9 13,9 C13.5522847,9 14,9.44771525 14,10 C14,10.5522847 13.5522847,11 13,11 C9.72880208,11 6.82445758,9.4293138 5,7.00097491 L5,13 Z" id="Shape" transform="translate(8.500000, 7.000000) scale(1, -1) translate(-8.500000, -7.000000) "></path>
            </g>
        </g>
    </g>
</svg>