<?xml version="1.0" encoding="UTF-8"?>
<svg width="12" height="16" viewBox="0 0 12 16" xmlns="http://www.w3.org/2000/svg">
<path fill-rule="evenodd" clip-rule="evenodd" d="M8.25 0.5L12 4.25V14C12 14.7875 11.385 15.4383 10.6115 15.4959L10.5 15.5H1.5C0.7125 15.5 0.0616735 14.885 0.00413454 14.1115L0 14V2C0 1.2125 0.615031 0.561674 1.38848 0.504135L1.5 0.5H8.25ZM7.5 2H1.5V14H10.5V5H7.5V2ZM5.07 3.5075C6.045 3.605 6.75 4.4975 6.75 5.48V10.25H5.25V5.375C5.25 5.165 5.085 5 4.875 5C4.665 5 4.5 5.165 4.5 5.375V10.25C4.5 11.075 5.175 11.75 6 11.75C6.825 11.75 7.5 11.075 7.5 10.25V6.5H9V10.25C9 11.9075 7.6575 13.25 6 13.25C4.3425 13.25 3 11.9075 3 10.25V5.375C3 4.2725 3.945 3.395 5.07 3.5075Z" fill="currentColor"/>
</svg>
