<?xml version="1.0" encoding="UTF-8"?>
<svg id="Layer_1" data-name="Layer 1" xmlns="http://www.w3.org/2000/svg" version="1.1" viewBox="0 0 24 24" fill="currentColor">

  <path d="M13.4,1.6c.2,0,.4.2.4.4v5.9c0,.2,0,.4.1.6l5.7,13.2c.2.4-.1.8-.5.8H5c-.4,0-.7-.4-.5-.8l5.7-13.2c0-.2.1-.4.1-.6V1.9c0-.2.2-.4.4-.4h2.7M13.4,0h-2.7c-1.1,0-1.9.9-1.9,1.9v5.9l-5.7,13.2c-.3.7-.2,1.4.2,2,.4.6,1,.9,1.8.9h14c.7,0,1.4-.4,1.8-.9.4-.6.5-1.3.2-2l-5.7-13.2V1.9c0-.5-.2-1-.6-1.4-.4-.4-.8-.6-1.4-.6h0Z"/>
  <circle cx="10" cy="18.3" r="2.9"/>
  <circle cx="12.5" cy="12.7" r="1.8"/>
  <circle cx="15.7" cy="20.3" r="1.1"/>
</svg>