<?xml version="1.0" encoding="UTF-8" standalone="no"?>
<svg width="20px" height="20px" viewBox="0 0 20 20" version="1.1" xmlns="http://www.w3.org/2000/svg" xmlns:xlink="http://www.w3.org/1999/xlink">
  <!-- Generator: Sketch 3.7.2 (28276) - http://www.bohemiancoding.com/sketch -->
  <title>minus-circle</title>
  <desc>Created with Sketch.</desc>
  <defs></defs>
  <g id="Page-1" stroke="none" stroke-width="1" fill="none" fill-rule="evenodd">
    <path d="M10,20 C15.5228475,20 20,15.5228475 20,10 C20,4.4771525 15.5228475,0 10,0 C4.4771525,0 0,4.4771525 0,10 C0,15.5228475 4.4771525,20 10,20 L10,20 Z M11.0325447,10.875 L9.1275306,10.875 L5.95250706,10.875 C5.42640566,10.875 5,10.4553125 5,9.9375 C5,9.4196875 5.42640566,9 5.95250706,9 L9.1275306,9 L11.0325447,9 L14.2075683,9 C14.7336697,9 15.1600753,9.4196875 15.1600753,9.9375 C15.1600753,10.4553125 14.7336697,10.875 14.2075683,10.875 L11.0325447,10.875 L11.0325447,10.875 Z" id="minus-circle" fill="#ffffff"></path>
  </g>
</svg>