<?xml version="1.0" encoding="UTF-8" standalone="no"?>
<svg width="20px" height="20px" viewBox="0 0 20 20" version="1.1" xmlns="http://www.w3.org/2000/svg" xmlns:xlink="http://www.w3.org/1999/xlink">
    <!-- Generator: Sketch 3.7.2 (28276) - http://www.bohemiancoding.com/sketch -->
    <title>plus-circle</title>
    <desc>Created with Sketch.</desc>
    <defs></defs>
    <g id="Page-1" stroke="none" stroke-width="1" fill="none" fill-rule="evenodd">
        <path d="M10,20 C15.5228475,20 20,15.5228475 20,10 C20,4.4771525 15.5228475,0 10,0 C4.4771525,0 0,4.4771525 0,10 C0,15.5228475 4.4771525,20 10,20 L10,20 Z M14.2075683,10.9375 L11.0325447,10.9375 L11.0325447,14.0625 C11.0325447,14.5803125 10.6061391,15 10.0800377,15 C9.55393626,15 9.1275306,14.5803125 9.1275306,14.0625 L9.1275306,10.9375 L5.95250706,10.9375 C5.42640566,10.9375 5,10.5178125 5,10 C5,9.4821875 5.42640566,9.0625 5.95250706,9.0625 L9.1275306,9.0625 L9.1275306,5.9375 C9.1275306,5.4196875 9.55393626,5 10.0800377,5 C10.6061391,5 11.0325447,5.4196875 11.0325447,5.9375 L11.0325447,9.0625 L14.2075683,9.0625 C14.7336697,9.0625 15.1600753,9.4821875 15.1600753,10 C15.1600753,10.5178125 14.7336697,10.9375 14.2075683,10.9375 L14.2075683,10.9375 Z" id="plus-circle" fill="#ffffff"></path>
    </g>
</svg>